<?xml version="1.0" encoding="UTF-8" standalone="no"?>
<svg
   xmlns:dc="http://purl.org/dc/elements/1.1/"
   xmlns:cc="http://creativecommons.org/ns#"
   xmlns:rdf="http://www.w3.org/1999/02/22-rdf-syntax-ns#"
   xmlns:svg="http://www.w3.org/2000/svg"
   xmlns="http://www.w3.org/2000/svg"
   xml:space="preserve"
   style="enable-background:new 0 0 203 82.2;"
   viewBox="0 0 203 82.2"
   y="0px"
   x="0px"
   id="Calque_1"
   version="1.1"><metadata
   id="metadata111"><rdf:RDF><cc:Work
       rdf:about=""><dc:format>image/svg+xml</dc:format><dc:type
         rdf:resource="http://purl.org/dc/dcmitype/StillImage" /></cc:Work></rdf:RDF></metadata><defs
   id="defs109" />
<style
   id="style2"
   type="text/css">
	.st0{fill:#E6007E;}
	.st1{fill-rule:evenodd;clip-rule:evenodd;fill:#E6007E;}
</style>
<g
   id="g104">
	<path
   id="path4"
   d="M50.8,40.8c0,1-0.4,1.9-1.3,2.4c-0.6,0.4-1.3,0.6-2.1,0.6c-0.4,0-0.8,0-1.2-0.1l0,4.6c0,0.2,0,0.4,0,0.5   c0.1,0.2,0.2,0.2,0.4,0.3c0.3,0,0.6,0.1,0.9,0.1c0.1,0,0.2,0,0.2,0.1c0,0.1-0.1,0.2-0.2,0.2c-0.1,0-0.1,0-0.2,0c-0.6,0-1.7,0-3.3,0   l-0.2,0c-0.3,0-0.5,0-0.5-0.2c0-0.1,0.1-0.1,0.3-0.1c0.5,0,0.8-0.1,0.9-0.2c0.1,0,0.1-0.2,0.1-0.3l-0.1-9.5c0-0.3-0.1-0.5-0.3-0.6   c-0.1,0-0.3-0.1-0.6-0.1l-0.2,0c0,0-0.1,0-0.1,0c-0.2,0-0.2,0-0.2-0.1c0-0.1,0.1-0.1,0.4-0.1l3.5,0c1.2,0,2.1,0.2,2.7,0.6   C50.4,39.3,50.8,40,50.8,40.8z M49.1,40.9c0-1.6-0.7-2.4-2-2.4c-0.5,0-0.7,0.1-0.9,0.2c-0.1,0.1-0.1,0.2-0.1,0.5l0,4.3   c0.1,0,0.2,0,0.3,0c0.7,0,1.3-0.2,1.8-0.5C48.8,42.6,49.1,41.9,49.1,40.9z"
   class="st0" />
	<path
   id="path6"
   d="M57.4,47.6c0,0,0,0.1,0,0.2c0,0.1,0,0.2,0,0.3l0,0.9c0,0.1,0,0.2,0,0.3l-2.7,0l-3.1,0.1c-0.2,0-0.3,0-0.3-0.1   c0-0.1,0.1-0.1,0.2-0.1c0.3,0,0.5,0,0.6-0.1c0.1,0,0.1-0.2,0.1-0.5l0-5.5c0-0.4,0-0.7-0.1-0.7c-0.1,0-0.3,0-0.6,0   c-0.1,0-0.2,0-0.2-0.1c0-0.1,0.1-0.1,0.2-0.1l0.4,0c0.1,0,0.2,0,0.3,0l0.2,0l0.4,0c0.1,0,0.3,0,0.8,0c0.5,0,1.1,0,1.8,0l1,0   c0.3,0,0.5,0,0.7,0l0,0.1l0,0.2c0,0.2,0.1,0.6,0.1,1.4c0,0.1,0,0.1,0,0.2c0,0.1,0,0.2-0.1,0.2c-0.1,0-0.2-0.1-0.2-0.3   c-0.2-0.8-0.4-1.3-0.9-1.4c-0.2-0.1-0.8-0.1-1.7-0.1l-0.8,0l0,3l0.4,0c0.7,0,1.1-0.1,1.3-0.2c0.2-0.1,0.3-0.4,0.3-0.9   c0-0.3,0.1-0.5,0.2-0.5c0.1,0,0.2,0.1,0.2,0.3c0,0.1,0,0.3,0,0.6c0,0.3,0,0.5,0,0.6c0,0.7,0,1.2,0,1.4c0,0.1,0,0.2,0,0.2   c0,0.2-0.1,0.3-0.2,0.3c-0.1,0-0.2-0.1-0.2-0.4c-0.1-0.6-0.2-0.9-0.3-1c-0.2-0.1-0.6-0.2-1.3-0.2l-0.4,0l0,3.5   c1.6,0,2.5-0.1,2.8-0.2c0.4-0.1,0.7-0.6,0.7-1.6c0-0.2,0.1-0.2,0.2-0.2C57.3,47.1,57.4,47.3,57.4,47.6z M56.3,38.6l-1.5,1.5   c-0.6,0.7-1,1-1.1,1c-0.1,0-0.1,0-0.1-0.1c0,0,0,0,0-0.1l0.1-0.2c0.1-0.2,0.2-0.6,0.4-1l0.5-1.1l0.5,0c0.1,0,0.1,0,0.3,0   c0.1,0,0.3,0,0.5,0L56.3,38.6z"
   class="st0" />
	<path
   id="path8"
   d="M65.5,45.6c0,1.3-0.5,2.2-1.4,2.9c-0.7,0.5-1.6,0.8-2.7,0.8c0,0-0.1,0-0.4,0c-0.3,0-0.7,0-1.3,0l-0.4,0   c0,0-0.1,0-0.3,0c-0.2,0-0.4,0-0.6,0l-0.1,0c-0.2,0-0.3,0-0.3-0.2C58,49,58,49,58.2,49l0.4,0c0.2,0,0.3-0.1,0.4-0.2   c0,0,0-0.2,0-0.6l0-5.1c0-0.5,0-0.8,0-0.8c-0.1-0.1-0.2-0.1-0.6-0.1c-0.2,0-0.3,0-0.3-0.1c0-0.1,0.1-0.1,0.3-0.1c0,0,0,0,0.1,0   c0.1,0,0.3,0,0.6,0l1.1,0c1.4,0,2.4,0.1,3,0.2c0.7,0.2,1.3,0.6,1.7,1.2C65.2,44,65.5,44.8,65.5,45.6z M63.9,45.5   c0-2.2-0.9-3.3-2.7-3.3c-0.5,0-0.8,0-0.9,0.1c-0.1,0.1-0.1,0.3-0.1,0.6l0,5.7c0,0.2,0,0.3,0.1,0.4c0.1,0,0.3,0.1,0.7,0.1   C63,49,64,47.8,63.9,45.5z"
   class="st0" />
	<path
   id="path10"
   d="M69.4,49.1c0,0.1,0,0.1-0.1,0.1l-0.2,0l-0.3,0l-0.4,0c-0.1,0-0.2,0-0.3,0c-0.1,0-0.1,0-0.2,0   c-0.1,0-0.3,0-0.6,0c-0.3,0-0.5,0-0.7,0l-0.1,0c-0.2,0-0.3,0-0.3-0.1c0-0.1,0.1-0.1,0.4-0.1c0.3,0,0.5-0.1,0.5-0.1   c0-0.1,0-0.3,0-0.7l0-5.2c0-0.4,0-0.7,0-0.7c0-0.1-0.1-0.1-0.2-0.1l-0.3,0l-0.2,0c-0.1,0-0.1,0-0.1-0.1s0.1-0.1,0.2-0.1   c0,0,0,0,0.1,0c0.1,0,0.2,0,0.4,0l1.2,0c0.1,0,0.2,0,0.3,0c0.1,0,0.2,0,0.4,0l0.4,0c0.2,0,0.3,0,0.3,0.1c0,0.1-0.2,0.1-0.5,0.1   c-0.2,0-0.2,0-0.3,0.1c0,0,0,0.2,0,0.4l0.1,6.1c0,0.1,0,0.2,0.1,0.2c0.1,0,0.3,0.1,0.6,0.1C69.4,49,69.4,49,69.4,49.1z"
   class="st0" />
	<path
   id="path12"
   d="M76.7,46.7c0,0,0,0.1,0,0.3c0,0.6-0.1,1-0.1,1.2c0,0.2,0,0.4,0.1,0.7l0,0.1c0,0.1,0,0.2-0.1,0.2   c-0.1,0-0.2-0.1-0.3-0.3l-0.2-0.3c0,0,0-0.1,0-0.1c-0.5,0.5-1.1,0.7-2,0.7c-1.1,0-2-0.3-2.7-1.1c-0.7-0.7-1.1-1.6-1.1-2.7   c0-1.1,0.3-2,1-2.7c0.7-0.7,1.5-1.1,2.5-1.1c0.8,0,1.5,0.2,2,0.6c0,0,0.1,0.1,0.1,0.1c0.1,0,0.1-0.1,0.1-0.2   c0.1-0.2,0.2-0.4,0.3-0.4c0.1,0,0.1,0,0.1,0.1c0,0,0,0.1,0,0.1c-0.1,0.4-0.1,0.9-0.1,1.6c0,0.5-0.1,0.7-0.2,0.7   c-0.1,0-0.1-0.1-0.2-0.2c-0.1-0.6-0.2-1-0.4-1.3c-0.3-0.6-0.9-0.9-1.7-0.9c-0.7,0-1.2,0.3-1.6,1c-0.4,0.6-0.6,1.5-0.6,2.6   c0,1.1,0.2,1.9,0.7,2.6c0.4,0.6,1,0.9,1.7,0.9c0.6,0,1-0.2,1.4-0.6c0.4-0.4,0.6-0.9,0.7-1.6c0.1-0.3,0.1-0.4,0.2-0.4   C76.6,46.4,76.7,46.5,76.7,46.7z"
   class="st0" />
	<path
   id="path14"
   d="M84.7,41.9c0,0.1-0.1,0.1-0.3,0.1l-0.1,0c-0.1,0-0.2,0-0.3,0c-0.2,0-0.3,0.1-0.3,0.3l0,3c0,1,0,1.7,0,2   c0,0.3-0.2,0.6-0.3,0.9c-0.4,0.7-1.2,1-2.2,1c-0.9,0-1.6-0.2-2.1-0.6c-0.5-0.4-0.7-1.1-0.7-2.2l0-3.4c0-0.6,0-0.9-0.1-0.9   c0-0.1-0.2-0.1-0.5-0.1c-0.2,0-0.3,0-0.3-0.1c0-0.1,0.1-0.1,0.2-0.1l0.2,0c0.1,0,0.2,0,0.3,0c0.1,0,0.2,0,0.2,0l1.4,0   c0.1,0,0.2,0,0.3,0c0.1,0,0.2,0,0.2,0c0.2,0,0.3,0,0.3,0.1c0,0.1-0.2,0.2-0.6,0.1c-0.1,0-0.2,0-0.2,0.1c0,0,0,0.2,0,0.4l0,3.9   c0,1,0.1,1.7,0.4,2c0.3,0.4,0.8,0.5,1.3,0.5c0.8,0,1.4-0.4,1.7-1c0.1-0.3,0.2-0.9,0.2-1.7c0,0,0,0,0-0.2c0-0.1,0-0.2,0-0.4l0-3.3   c0-0.1,0-0.2-0.1-0.3c-0.1,0-0.2,0-0.4,0c-0.2,0-0.4,0-0.4-0.1c0-0.1,0.1-0.1,0.2-0.1c0.1,0,0.1,0,0.2,0l0.7,0c0,0,0.1,0,0.2,0   c0.1,0,0.3,0,0.5,0l0.2,0C84.6,41.7,84.7,41.8,84.7,41.9z"
   class="st0" />
	<path
   id="path16"
   d="M92,48.6c0,0.3-0.3,0.5-0.9,0.5c-0.6,0-1.1-0.2-1.4-0.6c-0.2-0.2-0.3-0.4-0.3-0.6c-0.1-0.2-0.1-0.6-0.2-1.4   c-0.1-0.5-0.2-0.8-0.5-1c-0.2-0.2-0.7-0.3-1.2-0.3l0,3.3c0,0.2,0.2,0.2,0.8,0.2c0.1,0,0.2,0,0.2,0.1c0,0.1-0.1,0.1-0.2,0.1   c-0.1,0-0.2,0-0.3,0l-0.6,0c-0.2,0-0.5,0-0.9,0c-0.3,0-0.5,0-0.5,0l-0.3,0c-0.3,0-0.5,0-0.5-0.1c0-0.1,0.1-0.1,0.2-0.1   c0,0,0.1,0,0.2,0l0.1,0c0.4,0,0.5-0.1,0.5-0.2l-0.1-6.4c0-0.1,0-0.2-0.1-0.2C86,42,85.8,42,85.6,42c-0.3,0-0.4,0-0.4-0.1   c0-0.1,0.1-0.1,0.2-0.1l0.1,0c0.2,0,0.7,0,1.5,0c0.4,0,0.6,0,0.9,0c0.2,0,0.4,0,0.5,0c0.7,0,1.3,0.1,1.7,0.4   c0.4,0.3,0.7,0.7,0.7,1.2c0,0.5-0.2,0.9-0.7,1.3c-0.5,0.3-1.1,0.5-1.9,0.6c0.9,0.1,1.5,0.3,1.9,0.7c0.3,0.4,0.6,1,0.7,2   c0.1,0.7,0.3,1,0.6,1c0.1,0,0.1,0,0.1,0c0,0,0,0,0-0.1c0-0.1,0-0.1,0-0.1c0-0.2,0.1-0.3,0.3-0.3C91.9,48.3,92,48.4,92,48.6z    M89.5,43.4c0-1-0.5-1.4-1.4-1.4c-0.2,0-0.4,0-0.5,0.1c-0.1,0-0.1,0.2-0.1,0.3l0,2.6C88.8,45,89.5,44.5,89.5,43.4z"
   class="st0" />
	<path
   id="path18"
   d="M98.4,47.2c0,0,0,0.1,0,0.2c0,0.1,0,0.2,0,0.3l0,0.9c0,0.1,0,0.2,0.1,0.3l-2.7,0l-3.1,0.1   c-0.2,0-0.3,0-0.3-0.1c0-0.1,0.1-0.1,0.2-0.1c0.3,0,0.5,0,0.6-0.1c0.1,0,0.1-0.2,0.1-0.5l0-5.5c0-0.4,0-0.7-0.1-0.7   c-0.1,0-0.3,0-0.6,0c-0.1,0-0.2,0-0.2-0.1c0-0.1,0.1-0.1,0.2-0.1l0.4,0c0.1,0,0.2,0,0.3,0l0.2,0l0.4,0c0.1,0,0.3,0,0.8,0   c0.5,0,1.1,0,1.8,0l1,0c0.3,0,0.5,0,0.7,0l0,0.1l0,0.2c0,0.2,0.1,0.6,0.1,1.4c0,0.1,0,0.1,0,0.2c0,0.1,0,0.2-0.1,0.2   c-0.1,0-0.2-0.1-0.2-0.3c-0.2-0.8-0.4-1.3-0.9-1.4c-0.2-0.1-0.8-0.1-1.7-0.1l-0.8,0l0,3l0.4,0c0.7,0,1.1-0.1,1.3-0.2   c0.2-0.1,0.3-0.4,0.3-0.9c0-0.3,0.1-0.5,0.2-0.5c0.1,0,0.2,0.1,0.2,0.3c0,0.1,0,0.3,0,0.6c0,0.3,0,0.5,0,0.6c0,0.7,0,1.2,0,1.4   c0,0.1,0,0.2,0,0.2c0,0.2-0.1,0.3-0.2,0.3c-0.1,0-0.2-0.1-0.2-0.4c-0.1-0.6-0.2-0.9-0.3-1c-0.2-0.1-0.6-0.2-1.3-0.2l-0.4,0l0,3.5   c1.6,0,2.5-0.1,2.8-0.2c0.4-0.1,0.7-0.6,0.7-1.6c0-0.2,0.1-0.2,0.2-0.2C98.4,46.8,98.4,46.9,98.4,47.2z"
   class="st0" />
	<path
   id="path20"
   d="M110.4,48.7c0,0.1-0.1,0.1-0.3,0.1c0,0,0,0-0.2,0c-0.2,0-0.4,0-0.7,0l-0.6,0c-0.2,0-0.4,0-0.6,0   c-0.3,0-0.5,0-0.7,0l-0.1,0c-0.2,0-0.3,0-0.3-0.1c0,0,0-0.1,0.1-0.1c0,0,0.2,0,0.5,0c0.2,0,0.4,0,0.4-0.1c0-0.1,0.1-0.3,0.1-0.6   l0-5.2c-0.2,0.5-0.5,1.4-0.9,2.7c-0.2,0.7-0.5,1.7-0.9,2.9c-0.1,0.3-0.2,0.5-0.3,0.5c-0.1,0-0.2-0.1-0.3-0.4   c-0.3-0.7-1-2.6-2.2-5.5l0,5.5c0,0.1,0.1,0.2,0.2,0.3c0.1,0,0.3,0,0.6,0c0.1,0,0.2,0,0.2,0.1c0,0.1-0.1,0.1-0.3,0.1l-0.2,0   c-0.1,0-0.2,0-0.3,0l-0.9,0c-0.1,0-0.2,0-0.4,0c-0.2,0-0.2,0-0.2-0.1c0-0.1,0.2-0.1,0.5-0.1c0.2,0,0.4,0,0.4-0.1   c0,0,0.1-0.2,0.1-0.5l0-5.5c0-0.4,0-0.6-0.1-0.6s-0.3-0.1-0.7-0.1c-0.1,0-0.2,0-0.2-0.1c0-0.1,0.1-0.1,0.3-0.1c0.2,0,0.8,0,1.9,0   l0.1,0.2c0.1,0.1,0.1,0.3,0.2,0.5l0.4,1c0.1,0.3,0.3,0.7,0.6,1.3l0.9,2.1c0.2-0.5,0.3-0.9,0.4-1.1l1.4-4l1.2,0l0.7,0   c0.3,0,0.4,0,0.4,0.1c0,0.1-0.1,0.1-0.3,0.1c-0.3,0-0.4,0-0.5,0c-0.1,0.1-0.2,0.2-0.2,0.4l0.1,5.7c0,0.4,0,0.7,0.1,0.7   c0.1,0,0.3,0,0.7,0C110.3,48.6,110.4,48.6,110.4,48.7z"
   class="st0" />
	<path
   id="path22"
   d="M117,47.1c0,0,0,0.1,0,0.2c0,0.1,0,0.2,0,0.3l0,0.9c0,0.1,0,0.2,0.1,0.3l-2.7,0l-3.1,0.1c-0.2,0-0.3,0-0.3-0.1   c0-0.1,0.1-0.1,0.2-0.1c0.3,0,0.5,0,0.6-0.1c0.1,0,0.1-0.2,0.1-0.5l0-5.5c0-0.4,0-0.7-0.1-0.7c-0.1,0-0.3,0-0.6,0   c-0.1,0-0.2,0-0.2-0.1c0-0.1,0.1-0.1,0.2-0.1l0.4,0c0.1,0,0.2,0,0.3,0l0.2,0l0.4,0c0.1,0,0.3,0,0.8,0c0.5,0,1.1,0,1.8,0l0.9,0   c0.3,0,0.5,0,0.7,0l0,0.1l0,0.2c0,0.2,0.1,0.6,0.1,1.4c0,0.1,0,0.1,0,0.2c0,0.1,0,0.2-0.1,0.2c-0.1,0-0.2-0.1-0.2-0.3   c-0.2-0.8-0.4-1.3-0.9-1.4c-0.2-0.1-0.8-0.1-1.7-0.1l-0.8,0l0,3l0.4,0c0.7,0,1.1-0.1,1.3-0.2c0.2-0.1,0.3-0.4,0.3-0.9   c0-0.3,0.1-0.5,0.2-0.5c0.1,0,0.2,0.1,0.2,0.3c0,0.1,0,0.3,0,0.6c0,0.3,0,0.5,0,0.6c0,0.7,0,1.2,0,1.4c0,0.1,0,0.2,0,0.2   c0,0.2-0.1,0.3-0.2,0.3c-0.1,0-0.2-0.1-0.2-0.4c-0.1-0.6-0.2-0.9-0.3-1c-0.2-0.1-0.6-0.2-1.3-0.2l-0.4,0l0,3.5   c1.6,0,2.5-0.1,2.8-0.2c0.4-0.1,0.7-0.6,0.7-1.6c0-0.2,0.1-0.2,0.2-0.2C116.9,46.6,117,46.8,117,47.1z M115.9,38.1l-1.4,1.5   c-0.6,0.7-1,1-1.1,1c-0.1,0-0.1,0-0.1-0.1c0,0,0,0,0-0.1l0.1-0.2c0.1-0.2,0.2-0.6,0.4-1l0.5-1.1l0.5,0c0.1,0,0.1,0,0.3,0   c0.1,0,0.3,0,0.5,0L115.9,38.1z"
   class="st0" />
	<path
   id="path24"
   d="M125.1,45.1c0,1.3-0.5,2.2-1.4,2.9c-0.7,0.5-1.6,0.8-2.7,0.8c0,0-0.1,0-0.4,0c-0.3,0-0.7,0-1.3,0l-0.4,0   c0,0-0.1,0-0.3,0c-0.2,0-0.4,0-0.6,0l-0.1,0c-0.2,0-0.3,0-0.3-0.2c0-0.1,0.1-0.1,0.2-0.1l0.4,0c0.2,0,0.3-0.1,0.4-0.2   c0,0,0-0.2,0-0.6l0-5.1c0-0.5,0-0.8,0-0.8c-0.1-0.1-0.2-0.1-0.6-0.1c-0.2,0-0.3,0-0.3-0.1c0-0.1,0.1-0.1,0.3-0.1c0,0,0,0,0.1,0   c0.1,0,0.3,0,0.6,0l1.1,0c1.4,0,2.4,0.1,3,0.2c0.7,0.2,1.3,0.6,1.7,1.2C124.8,43.5,125.1,44.2,125.1,45.1z M123.5,45   c0-2.2-0.9-3.3-2.7-3.3c-0.5,0-0.8,0-0.9,0.1c-0.1,0.1-0.1,0.3-0.1,0.6l0,5.7c0,0.2,0,0.3,0.1,0.4c0.1,0,0.3,0.1,0.7,0.1   C122.6,48.5,123.6,47.3,123.5,45z"
   class="st0" />
	<path
   id="path26"
   d="M129,48.6c0,0.1,0,0.1-0.1,0.1l-0.2,0l-0.3,0l-0.4,0c-0.1,0-0.2,0-0.3,0c-0.1,0-0.1,0-0.2,0   c-0.1,0-0.3,0-0.6,0c-0.3,0-0.5,0-0.7,0l-0.1,0c-0.2,0-0.3,0-0.3-0.1c0-0.1,0.1-0.1,0.4-0.1c0.3,0,0.5-0.1,0.5-0.1   c0-0.1,0-0.3,0-0.7l0-5.2c0-0.4,0-0.7,0-0.7c0-0.1-0.1-0.1-0.2-0.1l-0.3,0l-0.2,0c-0.1,0-0.1,0-0.1-0.1s0.1-0.1,0.2-0.1   c0,0,0,0,0.1,0c0.1,0,0.2,0,0.4,0l1.2,0c0.1,0,0.2,0,0.3,0s0.2,0,0.4,0l0.4,0c0.2,0,0.3,0,0.3,0.1c0,0.1-0.2,0.1-0.5,0.1   c-0.2,0-0.2,0-0.3,0.1s0,0.2,0,0.4l0.1,6.1c0,0.1,0,0.2,0.1,0.2c0.1,0,0.3,0.1,0.6,0.1C129,48.5,129,48.5,129,48.6z"
   class="st0" />
	<path
   id="path28"
   d="M136.3,46.2c0,0,0,0.1,0,0.3c0,0.6-0.1,1-0.1,1.2c0,0.2,0,0.4,0.1,0.7l0,0.1c0,0.1,0,0.2-0.1,0.2   c-0.1,0-0.2-0.1-0.3-0.3l-0.2-0.3c0,0,0-0.1,0-0.1c-0.5,0.5-1.1,0.7-2,0.7c-1.1,0-2-0.3-2.7-1.1c-0.7-0.7-1.1-1.6-1.1-2.7   c0-1.1,0.3-2,1-2.7c0.7-0.7,1.5-1.1,2.5-1.1c0.8,0,1.5,0.2,2,0.6c0,0,0.1,0.1,0.1,0.1c0.1,0,0.1-0.1,0.1-0.2   c0.1-0.2,0.2-0.4,0.3-0.4c0.1,0,0.1,0,0.1,0.1c0,0,0,0.1,0,0.1c-0.1,0.4-0.1,0.9-0.1,1.6c0,0.5-0.1,0.7-0.2,0.7   c-0.1,0-0.1-0.1-0.2-0.2c-0.1-0.6-0.2-1-0.4-1.3c-0.3-0.6-0.9-0.9-1.7-0.9c-0.7,0-1.2,0.3-1.6,1c-0.4,0.6-0.6,1.5-0.6,2.6   c0,1.1,0.2,1.9,0.7,2.6c0.4,0.6,1,0.9,1.7,0.9c0.6,0,1-0.2,1.4-0.6c0.4-0.4,0.6-0.9,0.7-1.6c0.1-0.3,0.1-0.4,0.2-0.4   C136.2,45.9,136.3,46,136.3,46.2z"
   class="st0" />
	<path
   id="path30"
   d="M144.3,48.5c0,0.1-0.1,0.1-0.3,0.1l-0.1,0l-1,0l-0.4,0c-0.2,0-0.4,0-0.8,0l-0.5,0l-0.3,0l-0.1,0   c-0.2,0-0.3,0-0.3-0.1s0.2-0.1,0.6-0.1c0.5,0,0.7-0.1,0.7-0.2c0,0,0-0.1-0.1-0.3c0-0.1-0.1-0.4-0.4-1.1l-0.2-0.5l-2.3,0   c-0.4,1.1-0.6,1.8-0.6,1.9c0,0.1,0.1,0.1,0.2,0.2l0.2,0l0.2,0l0.1,0c0.1,0,0.2,0,0.2,0.1c0,0.1-0.1,0.1-0.3,0.1c0,0-0.2,0-0.6,0   c-0.3,0-0.7,0-0.9,0l-0.1,0l-0.1,0l-0.2,0l0,0c-0.2,0-0.3,0-0.3-0.1c0-0.1,0.1-0.1,0.2-0.1c0.2,0,0.3,0,0.4,0   c0.2,0,0.3-0.1,0.4-0.2c0.1,0,0.3-0.6,0.8-1.8c0.2-0.5,0.4-0.9,0.5-1.4c0.1-0.2,0.1-0.3,0.1-0.3c0-0.1,0.1-0.2,0.1-0.3   c0.2-0.4,0.4-1.1,0.8-2l0.2-0.7l0.1-0.3c0.1-0.2,0.1-0.2,0.2-0.2c0,0,0.1,0.1,0.2,0.4c0.3,0.8,1.2,2.8,2.5,6.2   c0.1,0.3,0.3,0.5,0.4,0.5c0,0,0.2,0,0.5,0C144.2,48.3,144.3,48.4,144.3,48.5z M141,46l-1.1-2.7c-0.3,0.6-0.6,1.6-1.1,2.8L141,46z"
   class="st0" />
	<path
   id="path32"
   d="M150.4,47c0,0.6,0,1.1,0,1.5c-0.1,0-0.1,0-0.2,0c0,0-0.1,0-0.2,0c-0.2,0-0.4,0-0.6,0l-0.8,0l-2.8,0l-1.3,0   c-0.1,0-0.2,0-0.2-0.1c0-0.1,0.2-0.1,0.6-0.1c0.1,0,0.2,0,0.2-0.1c0,0,0-0.2,0-0.4l0-5.4c0-0.6-0.1-0.9-0.2-1c0,0-0.1,0-0.3,0   c-0.1,0-0.2,0-0.3,0c-0.1,0-0.2,0-0.2-0.1c0-0.1,0.1-0.1,0.2-0.1l2.2,0c0.1,0,0.2,0,0.4,0c0.2,0,0.3,0,0.3,0.1   c0,0.1-0.2,0.1-0.5,0.1c-0.2,0-0.3,0.1-0.3,0.1c0,0.1,0,0.3,0,0.7l0.1,6c0.4,0,0.7,0,0.9,0c1.2,0,1.9-0.1,2.2-0.4   c0.2-0.2,0.4-0.6,0.4-1.2c0-0.3,0.1-0.4,0.2-0.4C150.3,46.3,150.4,46.6,150.4,47z"
   class="st0" />
	<path
   id="path34"
   d="M157,46.7c0,0,0,0.1,0,0.2c0,0.1,0,0.2,0,0.3l0,0.9c0,0.1,0,0.2,0.1,0.3l-2.7,0l-3.1,0.1c-0.2,0-0.3,0-0.3-0.1   c0-0.1,0.1-0.1,0.2-0.1c0.3,0,0.5,0,0.6-0.1c0.1,0,0.1-0.2,0.1-0.5l0-5.5c0-0.4,0-0.7-0.1-0.7c-0.1,0-0.3,0-0.6,0   c-0.1,0-0.2,0-0.2-0.1c0-0.1,0.1-0.1,0.2-0.1l0.4,0c0.1,0,0.2,0,0.3,0l0.2,0l0.4,0c0.1,0,0.3,0,0.8,0c0.5,0,1.1,0,1.8,0l0.9,0   c0.3,0,0.5,0,0.7,0l0,0.1l0,0.2c0,0.2,0.1,0.6,0.1,1.4c0,0.1,0,0.1,0,0.2c0,0.1,0,0.2-0.1,0.2c-0.1,0-0.2-0.1-0.2-0.3   c-0.2-0.8-0.4-1.3-0.9-1.4c-0.2-0.1-0.8-0.1-1.7-0.1l-0.8,0l0,3l0.4,0c0.7,0,1.1-0.1,1.3-0.2c0.2-0.1,0.3-0.4,0.3-0.9   c0-0.3,0.1-0.5,0.2-0.5c0.1,0,0.2,0.1,0.2,0.3c0,0.1,0,0.3,0,0.6c0,0.3,0,0.5,0,0.6c0,0.7,0,1.2,0,1.4c0,0.1,0,0.2,0,0.2   c0,0.2,0,0.3-0.2,0.3c-0.1,0-0.2-0.1-0.2-0.4c-0.1-0.6-0.2-0.9-0.3-1c-0.2-0.1-0.6-0.2-1.3-0.2l-0.4,0l0,3.5c1.6,0,2.5-0.1,2.8-0.2   c0.4-0.1,0.7-0.6,0.7-1.6c0-0.2,0.1-0.2,0.2-0.2C156.9,46.3,157,46.4,157,46.7z"
   class="st0" />
	<path
   id="path36"
   d="M15.9,64.6c0,0.1-0.2,0.1-0.6,0.1c-0.3,0-0.4,0.1-0.4,0.1c0,0,0,0.1-0.1,0.3l-0.1,0.5   c-0.2,0.7-0.4,1.3-0.9,1.9c0.1,0.1,0.2,0.3,0.3,0.5c0.2,0.4,0.4,0.6,0.5,0.7c0.2,0.1,0.5,0.1,1,0.1c0.2,0,0.3,0,0.3,0.1   c0,0.1-0.1,0.1-0.2,0.1c-0.1,0-0.3,0-0.6,0c-0.3,0-0.6,0-0.8,0c-0.4,0-0.7,0-0.9,0c-0.1-0.1-0.2-0.3-0.4-0.7   c-0.6,0.5-1.4,0.8-2.4,0.8c-0.8,0-1.4-0.2-1.9-0.5c-0.5-0.4-0.7-0.9-0.7-1.5c0-1,0.7-1.8,2-2.4c-0.3-0.3-0.5-0.5-0.6-0.6   c-0.3-0.3-0.4-0.6-0.4-0.9c0-0.5,0.2-0.9,0.5-1.2c0.4-0.3,0.8-0.5,1.4-0.5c0.6,0,1,0.1,1.4,0.4c0.4,0.3,0.5,0.6,0.5,1   c0,0.7-0.5,1.2-1.6,1.6l0.5,0.6c0.4,0.5,1,1.1,1.7,2c0.5-0.8,0.7-1.5,0.7-2.1c0-0.2-0.1-0.3-0.2-0.3l-0.1,0c-0.1,0-0.2,0-0.3,0   c-0.4,0-0.5,0-0.5-0.1c0-0.1,0.1-0.1,0.2-0.1c0.2,0,0.7,0,1.6,0l0.8,0C15.8,64.5,15.9,64.5,15.9,64.6z M12.7,68   c-0.5-0.8-1.4-1.8-2.6-3c-0.6,0.4-0.9,1-0.9,1.7c0,0.6,0.2,1.1,0.5,1.5c0.3,0.4,0.8,0.6,1.3,0.6C11.7,68.7,12.3,68.5,12.7,68z    M11.7,63.1c0-0.4-0.1-0.7-0.3-0.9c-0.2-0.2-0.4-0.4-0.7-0.4c-0.3,0-0.5,0.1-0.7,0.3c-0.2,0.2-0.3,0.4-0.3,0.7c0,0.5,0.4,1,1.2,1.6   C11.5,64.1,11.7,63.7,11.7,63.1z"
   class="st0" />
	<path
   id="path38"
   d="M26.5,65.7c0,0.9-0.3,1.7-1,2.4c-0.7,0.7-1.5,1-2.5,1c-0.6,0-1.3-0.2-2.1-0.5c-0.2-0.1-0.4-0.1-0.5-0.1   c-0.1,0-0.2,0.1-0.2,0.4c0,0.2-0.1,0.2-0.2,0.2c-0.1,0-0.2-0.1-0.2-0.2c0-0.1,0-0.1,0-0.2c0.1-0.7,0.1-1.3,0.1-1.8   c0-0.1,0-0.4,0-0.9c0-0.1,0-0.1,0-0.3c0-0.2,0.1-0.2,0.2-0.2c0.1,0,0.2,0.1,0.2,0.4c0.3,1.9,1.2,2.9,2.7,2.9c0.7,0,1.2-0.2,1.5-0.6   c0.4-0.4,0.5-0.9,0.5-1.6c0-0.6-0.2-1.1-0.5-1.5c-0.4-0.4-1-0.8-1.8-1.2c-1-0.5-1.7-1-2.1-1.4c-0.4-0.5-0.6-1.1-0.6-1.8   c0-0.9,0.3-1.6,0.8-2.2c0.6-0.6,1.3-0.9,2.2-0.9c0.4,0,0.9,0.1,1.5,0.4C24.7,58,24.9,58,25,58c0.1,0,0.2,0,0.2-0.1   c0,0,0.1-0.2,0.1-0.3c0-0.1,0.1-0.2,0.2-0.2c0.1,0,0.2,0.1,0.2,0.2c0,0.1,0,0.2,0,0.2c0,0.3,0,0.6,0,0.9c0,0.5,0,0.9,0.1,1.2l0,0.3   c0,0.1,0,0.2-0.1,0.2c-0.1,0-0.2-0.1-0.2-0.4c-0.1-0.6-0.4-1.2-0.8-1.6c-0.4-0.4-0.9-0.6-1.5-0.6c-0.5,0-1,0.2-1.3,0.5   c-0.3,0.3-0.5,0.8-0.5,1.4c0,0.7,0.2,1.2,0.7,1.7c0.3,0.2,0.8,0.6,1.7,1c1,0.5,1.7,1,2.2,1.5C26.3,64.5,26.5,65.1,26.5,65.7z"
   class="st0" />
	<path
   id="path40"
   d="M34.6,65.2c0,1-0.3,1.9-1,2.7c-0.7,0.7-1.5,1.1-2.5,1.1c-1,0-1.9-0.4-2.6-1.1c-0.7-0.7-1.1-1.6-1.1-2.7   c0-1.1,0.3-2,1-2.7c0.7-0.7,1.5-1.1,2.6-1.1c1,0,1.9,0.4,2.5,1.1C34.3,63.2,34.6,64.1,34.6,65.2z M33.1,65.3c0-1.2-0.3-2.2-0.8-2.9   c-0.3-0.5-0.8-0.7-1.3-0.7c-0.8,0-1.3,0.4-1.7,1.3c-0.2,0.6-0.4,1.4-0.4,2.3c0,1.1,0.2,2,0.6,2.6c0.4,0.6,0.9,0.9,1.6,0.9   C32.5,68.7,33.1,67.6,33.1,65.3z"
   class="st0" />
	<path
   id="path42"
   d="M38.6,68.7c0,0.1,0,0.1-0.1,0.1l-0.2,0l-0.3,0l-0.4,0c-0.1,0-0.2,0-0.3,0c-0.1,0-0.1,0-0.2,0   c-0.1,0-0.3,0-0.6,0c-0.3,0-0.5,0-0.7,0l-0.1,0c-0.2,0-0.3,0-0.3-0.1c0-0.1,0.1-0.1,0.4-0.1c0.3,0,0.5-0.1,0.5-0.1   c0-0.1,0-0.3,0-0.7l0-5.2c0-0.4,0-0.7,0-0.7c0-0.1-0.1-0.1-0.2-0.1l-0.3,0l-0.2,0c-0.1,0-0.1,0-0.1-0.1c0-0.1,0.1-0.1,0.2-0.1   c0,0,0,0,0.1,0c0.1,0,0.2,0,0.4,0l1.2,0c0.1,0,0.2,0,0.3,0c0.1,0,0.2,0,0.4,0l0.4,0c0.2,0,0.3,0,0.3,0.1c0,0.1-0.2,0.1-0.5,0.1   c-0.2,0-0.2,0-0.3,0.1s0,0.2,0,0.4l0.1,6.1c0,0.1,0,0.2,0.1,0.2c0.1,0,0.3,0.1,0.6,0.1C38.6,68.6,38.6,68.6,38.6,68.7z"
   class="st0" />
	<path
   id="path44"
   d="M46.4,61.5c0,0.1-0.1,0.1-0.4,0.1c0,0-0.1,0-0.2,0l-0.2,0c-0.1,0-0.2,0-0.2,0.1c0,0,0,0.2,0,0.4l0.1,5.9   c0,0.4,0,0.6,0,0.7s-0.1,0.1-0.1,0.1c-0.1,0-0.5-0.4-1.2-1.3c-0.1-0.1-0.2-0.3-0.4-0.5c0,0-0.1-0.1-0.2-0.2c-0.5-0.7-1.5-2-2.9-4   l0,5.1c0,0.4,0.1,0.6,0.2,0.6c0.1,0,0.3,0,0.6,0l0.1,0c0.1,0,0.2,0,0.2,0.1c0,0.1-0.1,0.1-0.4,0.1c0,0-0.2,0-0.5,0   c-0.2,0-0.3,0-0.4,0c-0.1,0-0.2,0-0.3,0c-0.2,0-0.4,0-0.7,0c-0.2,0-0.3,0-0.3-0.1c0-0.1,0.1-0.1,0.3-0.1l0.1,0l0.2,0   c0.3,0,0.4-0.1,0.4-0.1c0,0,0-0.2,0-0.5l0-4.5c0-0.8-0.1-1.3-0.2-1.5c-0.1-0.2-0.4-0.3-0.8-0.3c-0.3,0-0.4,0-0.4-0.1   c0-0.1,0.1-0.1,0.2-0.1l0.1,0l0.9,0c0,0,0.1,0,0.2,0c0.1,0,0.2,0,0.3,0l0.6,0l3.8,5.2l0-4.5c0-0.3,0-0.4,0-0.5c0,0-0.1-0.1-0.3-0.1   c-0.1,0-0.3,0-0.3,0l-0.1,0c-0.2,0-0.3,0-0.3-0.1c0-0.1,0.1-0.1,0.2-0.1c0.1,0,0.5,0,1.1,0c0.6,0,0.9,0,1,0   C46.3,61.4,46.4,61.4,46.4,61.5z"
   class="st0" />
	<path
   id="path46"
   d="M52.1,66.6c0,0.6-0.2,1.1-0.8,1.5c-0.5,0.4-1.1,0.6-1.9,0.7c-0.5,0-1.1-0.2-1.7-0.5c-0.1,0-0.1,0-0.1,0   c-0.1,0-0.1,0.1-0.1,0.2c0,0.1,0,0.2,0,0.3c0,0.1-0.1,0.1-0.2,0.1c-0.1,0-0.2-0.1-0.2-0.2c0,0,0-0.2,0-0.5c0-0.3,0-0.6,0-0.8   c0-0.1,0-0.2,0-0.4c0-0.2,0-0.3,0-0.4c0-0.2,0.1-0.3,0.2-0.3c0.1,0,0.2,0.2,0.2,0.5c0.2,1.2,0.9,1.8,1.9,1.8c0.9,0,1.3-0.5,1.3-1.4   c0-0.4-0.1-0.7-0.3-1c-0.2-0.2-0.6-0.5-1.3-0.8c-0.8-0.4-1.3-0.7-1.6-0.9c-0.3-0.3-0.4-0.7-0.4-1.2c0-0.6,0.2-1.1,0.6-1.5   c0.4-0.4,1-0.6,1.6-0.6c0.4,0,0.8,0.1,1.3,0.4c0.1,0,0.1,0,0.1,0c0.1,0,0.1-0.1,0.1-0.2c0-0.2,0.1-0.2,0.2-0.2   c0.1,0,0.2,0.1,0.2,0.2c0,0,0,0.1,0,0.1c0,0.2,0,0.4,0,0.7c0,0.2,0,0.5,0.1,0.9c0,0,0,0.1,0,0.1c0,0.1,0,0.2-0.1,0.2   c-0.1,0-0.2-0.1-0.2-0.3c-0.1-0.5-0.3-0.8-0.6-1.1c-0.3-0.3-0.6-0.4-1-0.4c-0.8,0-1.2,0.4-1.1,1.2c0,0.4,0.1,0.7,0.3,0.9   c0.1,0.1,0.2,0.2,0.4,0.3c0.1,0.1,0.5,0.3,1.1,0.6c0.7,0.3,1.2,0.7,1.5,1C51.9,65.8,52.1,66.2,52.1,66.6z"
   class="st0" />
	<path
   id="path48"
   d="M61.9,66.8c0,0,0,0.1,0,0.2c0,0.1,0,0.2,0,0.3l0,0.9c0,0.1,0,0.2,0,0.3l-2.7,0l-3.1,0.1c-0.2,0-0.3,0-0.3-0.1   c0-0.1,0.1-0.1,0.2-0.1c0.3,0,0.5,0,0.6-0.1c0.1,0,0.1-0.2,0.1-0.5l0-5.5c0-0.4,0-0.7-0.1-0.7c-0.1,0-0.3,0-0.6,0   c-0.1,0-0.2,0-0.2-0.1c0-0.1,0.1-0.1,0.2-0.1l0.4,0c0.1,0,0.2,0,0.3,0l0.2,0l0.4,0c0.1,0,0.3,0,0.8,0c0.5,0,1.1,0,1.8,0l0.9,0   c0.3,0,0.5,0,0.7,0l0,0.1l0,0.2c0,0.2,0.1,0.6,0.1,1.4c0,0.1,0,0.1,0,0.2c0,0.1,0,0.2-0.1,0.2c-0.1,0-0.2-0.1-0.2-0.3   c-0.2-0.8-0.4-1.3-0.9-1.4c-0.2-0.1-0.8-0.1-1.7-0.1l-0.8,0l0,3l0.4,0c0.7,0,1.1-0.1,1.3-0.2c0.2-0.1,0.3-0.4,0.3-0.9   c0-0.3,0.1-0.5,0.2-0.5c0.1,0,0.2,0.1,0.2,0.3c0,0.1,0,0.3,0,0.6c0,0.3,0,0.5,0,0.6c0,0.7,0,1.2,0,1.4c0,0.1,0,0.2,0,0.2   c0,0.2-0.1,0.3-0.2,0.3c-0.1,0-0.2-0.1-0.2-0.4c-0.1-0.6-0.2-0.9-0.3-1c-0.2-0.1-0.6-0.2-1.3-0.2l-0.4,0l0,3.5   c1.6,0,2.5-0.1,2.8-0.2c0.4-0.1,0.7-0.6,0.7-1.6c0-0.2,0.1-0.2,0.2-0.2C61.9,66.4,61.9,66.5,61.9,66.8z"
   class="st0" />
	<path
   id="path50"
   d="M67.6,66.5c0,0.6-0.2,1.1-0.8,1.5c-0.5,0.4-1.1,0.7-1.9,0.7c-0.5,0-1.1-0.2-1.7-0.5c-0.1,0-0.1,0-0.1,0   c-0.1,0-0.1,0.1-0.1,0.2c0,0.1,0,0.2,0,0.3c0,0.1-0.1,0.1-0.2,0.1c-0.1,0-0.2-0.1-0.2-0.2c0,0,0-0.2,0-0.5c0-0.3,0-0.6,0-0.8   c0-0.1,0-0.2,0-0.4c0-0.2,0-0.3,0-0.4c0-0.2,0.1-0.3,0.2-0.3c0.1,0,0.2,0.2,0.2,0.5c0.2,1.2,0.9,1.8,1.9,1.8c0.9,0,1.3-0.5,1.3-1.4   c0-0.4-0.1-0.7-0.3-1c-0.2-0.2-0.6-0.5-1.3-0.8c-0.8-0.4-1.3-0.7-1.6-0.9c-0.3-0.3-0.4-0.7-0.4-1.2c0-0.6,0.2-1.1,0.6-1.5   c0.4-0.4,1-0.6,1.6-0.6c0.4,0,0.8,0.1,1.3,0.4c0.1,0,0.1,0,0.1,0c0.1,0,0.1-0.1,0.1-0.2c0-0.2,0.1-0.2,0.2-0.2   c0.1,0,0.2,0.1,0.2,0.2c0,0,0,0.1,0,0.1c0,0.2,0,0.4,0,0.7c0,0.2,0,0.4,0.1,0.9c0,0,0,0.1,0,0.1c0,0.1,0,0.2-0.1,0.2   c-0.1,0-0.2-0.1-0.2-0.3c-0.1-0.5-0.3-0.8-0.6-1.1c-0.3-0.3-0.6-0.4-1-0.4c-0.8,0-1.2,0.4-1.1,1.2c0,0.4,0.1,0.7,0.3,0.9   c0.1,0.1,0.2,0.2,0.4,0.3c0.1,0.1,0.5,0.3,1.1,0.6c0.7,0.3,1.2,0.7,1.5,1C67.5,65.7,67.6,66,67.6,66.5z"
   class="st0" />
	<path
   id="path52"
   d="M74.6,63.1c0,0.1-0.1,0.2-0.2,0.2c-0.1,0-0.2-0.1-0.2-0.3c0-0.4-0.1-0.8-0.3-1c-0.2-0.4-0.7-0.6-1.4-0.5   c-0.1,0-0.3,0-0.5,0l0.1,6.5c0,0.2,0.2,0.3,0.5,0.3c0.3,0,0.5,0,0.5,0.1s-0.1,0.1-0.3,0.1l-0.1,0c-0.1,0-0.2,0-0.5,0   c-0.2,0-0.3,0-0.4,0c0,0-0.1,0-0.4,0c-0.2,0-0.5,0-0.9,0l-0.4,0c-0.2,0-0.3,0-0.3-0.1c0-0.1,0.2-0.1,0.5-0.1c0.1,0,0.2,0,0.3,0   c0.1,0,0.1-0.1,0.1-0.2c0-0.1,0-0.4,0-0.8l-0.1-5.8c-0.8,0-1.4,0.1-1.6,0.3c-0.3,0.2-0.4,0.6-0.5,1.3c0,0.2-0.1,0.4-0.2,0.4   c-0.1,0-0.1-0.1-0.1-0.4c0-0.3,0-0.9,0.1-1.8l3.8,0c0.3,0,1,0,2,0c0.1,0,0.2,0,0.3-0.1l0,0.3l0.1,0.6l0.1,0.7l0,0.3   C74.6,63,74.6,63.1,74.6,63.1z"
   class="st0" />
	<path
   id="path54"
   d="M82.7,68.3c0,0.1-0.2,0.1-0.5,0.1c0,0-0.1,0-0.2,0c-0.1,0-0.2,0-0.3,0l-1.2,0c-0.2,0-0.3,0-0.4,0l-0.3,0   c-0.2,0-0.4,0-0.4-0.1c0-0.1,0.1-0.1,0.3-0.1c0.3,0,0.5-0.1,0.6-0.2c0-0.1,0-0.2,0-0.5l0-2.9l-3,0l0,3.3c0,0.1,0.1,0.2,0.1,0.2   c0.1,0,0.3,0.1,0.5,0.1c0.1,0,0.2,0,0.2,0.1c0,0.1-0.1,0.1-0.3,0.1l-0.3,0c-0.1,0-0.4,0-0.7,0l-1.6,0c-0.2,0-0.2,0-0.2-0.1   c0-0.1,0.2-0.1,0.5-0.1c0.2,0,0.4-0.1,0.4-0.2L76,62c0-0.3,0-0.5,0-0.5c0-0.1-0.1-0.1-0.3-0.1c-0.4,0-0.5-0.1-0.6-0.2   c0-0.1,0.1-0.1,0.2-0.1l0.1,0c0.2,0,0.4,0,0.7,0c0.2,0,0.4,0,0.4,0c0.1,0,0.3,0,0.7,0c0.3,0,0.5,0,0.6,0l0.1,0c0.2,0,0.3,0,0.3,0.1   c0,0.1-0.1,0.1-0.4,0.1c-0.2,0-0.3,0-0.3,0.1s-0.1,0.1-0.1,0.3l0,2.5l3,0l0-2.2c0-0.3,0-0.5,0-0.6c0-0.1-0.1-0.2-0.3-0.2l-0.3,0   c-0.1,0-0.2-0.1-0.2-0.1c0-0.1,0.1-0.1,0.3-0.1l0.3,0c0.1,0,0.3,0,0.6,0c0.3,0,0.5,0,0.6,0c0.3,0,0.4,0,0.5,0l0.2,0   c0.3,0,0.4,0,0.4,0.1c0,0.1-0.1,0.1-0.2,0.1c-0.1,0-0.3,0-0.4,0c-0.1,0-0.2,0-0.2,0.1c0,0.1,0,0.2,0,0.5l0,5.6c0,0.4,0,0.6,0.1,0.6   c0.1,0,0.2,0.1,0.6,0.1C82.6,68.2,82.7,68.2,82.7,68.3z"
   class="st0" />
	<path
   id="path56"
   d="M89.5,66.6c0,0,0,0.1,0,0.2c0,0.1,0,0.2,0,0.3l0,0.9c0,0.1,0,0.2,0.1,0.3l-2.7,0l-3.1,0.1   c-0.2,0-0.3,0-0.3-0.1c0-0.1,0.1-0.1,0.2-0.1c0.3,0,0.5,0,0.6-0.1c0.1,0,0.1-0.2,0.1-0.5l0-5.5c0-0.4,0-0.7-0.1-0.7   c-0.1,0-0.3,0-0.6,0c-0.1,0-0.2,0-0.2-0.1c0-0.1,0.1-0.1,0.2-0.1l0.4,0c0.1,0,0.2,0,0.3,0l0.2,0l0.4,0c0.1,0,0.3,0,0.8,0   c0.5,0,1.1,0,1.8,0l0.9,0c0.3,0,0.5,0,0.7,0l0,0.1l0,0.2c0,0.2,0.1,0.6,0.1,1.4c0,0.1,0,0.1,0,0.2c0,0.1,0,0.2-0.1,0.2   c-0.1,0-0.2-0.1-0.2-0.3c-0.2-0.8-0.4-1.3-0.9-1.4c-0.2-0.1-0.8-0.1-1.7-0.1l-0.8,0l0,3l0.4,0c0.7,0,1.1-0.1,1.3-0.2   c0.2-0.1,0.3-0.4,0.3-0.9c0-0.3,0.1-0.5,0.2-0.5c0.1,0,0.2,0.1,0.2,0.3c0,0.1,0,0.3,0,0.6c0,0.3,0,0.5,0,0.6c0,0.7,0,1.2,0,1.4   c0,0.1,0,0.2,0,0.2c0,0.2,0,0.3-0.2,0.3c-0.1,0-0.2-0.1-0.2-0.4c-0.1-0.6-0.2-0.9-0.3-1c-0.2-0.1-0.6-0.2-1.3-0.2l-0.4,0l0,3.5   c1.6,0,2.5-0.1,2.8-0.2c0.4-0.1,0.7-0.6,0.7-1.6c0-0.2,0.1-0.2,0.2-0.2C89.5,66.2,89.5,66.3,89.5,66.6z M88.5,57.6L87,59.2   c-0.6,0.7-1,1-1.1,1c-0.1,0-0.1,0-0.1-0.1c0,0,0,0,0-0.1l0.1-0.2c0.1-0.2,0.2-0.6,0.4-1l0.5-1.1l0.5,0c0.1,0,0.1,0,0.3,0   c0.1,0,0.3,0,0.5,0L88.5,57.6z"
   class="st0" />
	<path
   id="path58"
   d="M96.4,62.9c0,0.1-0.1,0.2-0.2,0.2C96,63.1,96,63,96,62.8c0-0.4-0.1-0.8-0.3-1c-0.2-0.4-0.7-0.6-1.4-0.5   c-0.1,0-0.3,0-0.5,0l0.1,6.5c0,0.2,0.2,0.3,0.5,0.3c0.3,0,0.5,0,0.5,0.1c0,0.1-0.1,0.1-0.3,0.1l-0.1,0c-0.1,0-0.2,0-0.5,0   s-0.4,0-0.4,0c0,0-0.1,0-0.4,0c-0.2,0-0.5,0-0.9,0l-0.4,0c-0.2,0-0.3,0-0.3-0.1c0-0.1,0.2-0.1,0.5-0.1c0.1,0,0.2,0,0.3,0   c0.1,0,0.1-0.1,0.1-0.2c0-0.1,0-0.4,0-0.8l0-5.8c-0.8,0-1.4,0.1-1.6,0.3c-0.3,0.2-0.4,0.6-0.5,1.3c0,0.2-0.1,0.4-0.2,0.4   c-0.1,0-0.1-0.1-0.1-0.4c0-0.3,0-0.9,0.1-1.8l3.8,0c0.3,0,1,0,2,0c0.1,0,0.2,0,0.3-0.1l0,0.3l0.1,0.6l0.1,0.7l0,0.3   C96.4,62.8,96.4,62.9,96.4,62.9z"
   class="st0" />
	<path
   id="path60"
   d="M100.1,68.2c0,0.1,0,0.1-0.1,0.1l-0.2,0l-0.3,0l-0.4,0c-0.1,0-0.2,0-0.3,0c-0.1,0-0.1,0-0.2,0   c-0.1,0-0.3,0-0.6,0c-0.3,0-0.5,0-0.7,0l-0.1,0c-0.2,0-0.3,0-0.3-0.1c0-0.1,0.1-0.1,0.4-0.1c0.3,0,0.5-0.1,0.5-0.1   c0-0.1,0-0.3,0-0.7l0-5.2c0-0.4,0-0.7,0-0.7c0-0.1-0.1-0.1-0.2-0.1l-0.3,0l-0.2,0c-0.1,0-0.1,0-0.1-0.1c0-0.1,0.1-0.1,0.2-0.1   c0,0,0,0,0.1,0c0.1,0,0.2,0,0.4,0l1.2,0c0.1,0,0.2,0,0.3,0c0.1,0,0.2,0,0.4,0l0.4,0c0.2,0,0.3,0,0.3,0.1c0,0.1-0.2,0.1-0.5,0.1   c-0.2,0-0.2,0-0.3,0.1c0,0,0,0.2,0,0.4l0.1,6.1c0,0.1,0,0.2,0.1,0.2c0.1,0,0.3,0.1,0.6,0.1C100,68.1,100.1,68.1,100.1,68.2z"
   class="st0" />
	<path
   id="path62"
   d="M108.1,64.6c0,1-0.3,1.8-0.8,2.5c-0.6,0.7-1.3,1.1-2.1,1.2l0,0.3c0,0.6,0.1,0.9,0.3,1.1   c0.2,0.2,0.6,0.3,1.1,0.3c0.1,0,0.2,0,0.3,0c0.1,0,0.2,0,0.3,0c0.1,0,0.2,0,0.2,0.1c0,0.1-0.1,0.1-0.4,0.2   c-0.4,0.1-0.7,0.1-1.2,0.1c-1,0-1.6-0.3-1.9-0.8c-0.1-0.2-0.1-0.5-0.2-1l0-0.3c-0.7-0.2-1.3-0.4-1.6-0.7c-0.9-0.7-1.3-1.7-1.3-3   c0-1.1,0.3-2,1-2.7c0.7-0.7,1.5-1.1,2.6-1.1c1.1,0,1.9,0.3,2.6,1.1C107.8,62.5,108.1,63.5,108.1,64.6z M106.6,64.6   c0-1.3-0.3-2.3-0.8-3c-0.3-0.5-0.8-0.7-1.3-0.7c-0.7,0-1.2,0.3-1.6,0.9c-0.4,0.6-0.5,1.5-0.5,2.7c0,1.1,0.2,2,0.6,2.6   c0.4,0.6,0.9,0.9,1.6,0.9c0.7,0,1.2-0.3,1.5-0.9C106.4,66.6,106.6,65.7,106.6,64.6z"
   class="st0" />
	<path
   id="path64"
   d="M116.1,60.9c0,0.1-0.1,0.1-0.3,0.1l-0.1,0c-0.1,0-0.2,0-0.3,0c-0.2,0-0.3,0.1-0.3,0.3l0,3c0,1,0,1.7,0,2   c0,0.3-0.2,0.6-0.3,0.9c-0.4,0.7-1.2,1-2.2,1c-0.9,0-1.6-0.2-2.1-0.6c-0.5-0.4-0.7-1.1-0.7-2.2l0-3.4c0-0.6,0-0.9-0.1-0.9   c0-0.1-0.2-0.1-0.5-0.1c-0.2,0-0.3,0-0.3-0.1c0-0.1,0.1-0.1,0.2-0.1l0.2,0c0.1,0,0.2,0,0.3,0c0.1,0,0.2,0,0.2,0l1.4,0   c0.1,0,0.2,0,0.3,0c0.1,0,0.2,0,0.2,0c0.2,0,0.3,0,0.3,0.1c0,0.1-0.2,0.2-0.6,0.2c-0.1,0-0.2,0-0.2,0.1c0,0,0,0.2,0,0.4l0,3.9   c0,1,0.1,1.7,0.4,2c0.3,0.4,0.8,0.5,1.3,0.5c0.8,0,1.4-0.4,1.7-1c0.1-0.3,0.2-0.9,0.2-1.7c0,0,0,0,0-0.2c0-0.1,0-0.2,0-0.4l0-3.3   c0-0.1,0-0.2-0.1-0.3c-0.1,0-0.2,0-0.5,0c-0.2,0-0.4,0-0.4-0.1c0-0.1,0.1-0.1,0.2-0.1c0.1,0,0.1,0,0.2,0l0.7,0c0,0,0.1,0,0.2,0   c0.1,0,0.3,0,0.5,0l0.2,0C116,60.8,116.1,60.8,116.1,60.9z"
   class="st0" />
	<path
   id="path66"
   d="M122.8,66.3c0,0,0,0.1,0,0.2c0,0.1,0,0.2,0,0.3l0,0.9c0,0.1,0,0.2,0.1,0.3l-2.7,0l-3.1,0.1   c-0.2,0-0.3,0-0.3-0.1c0-0.1,0.1-0.1,0.2-0.1c0.3,0,0.5,0,0.6-0.1c0.1,0,0.1-0.2,0.1-0.5l0-5.5c0-0.4,0-0.7-0.1-0.7   c-0.1,0-0.3,0-0.6,0c-0.1,0-0.2,0-0.2-0.1c0-0.1,0.1-0.1,0.2-0.1l0.4,0c0.1,0,0.2,0,0.3,0l0.2,0l0.4,0c0.1,0,0.3,0,0.8,0   c0.5,0,1.1,0,1.8,0l0.9,0c0.3,0,0.5,0,0.7,0l0,0.1l0,0.2c0,0.2,0.1,0.6,0.1,1.4c0,0.1,0,0.1,0,0.2c0,0.1,0,0.2-0.1,0.2   c-0.1,0-0.2-0.1-0.2-0.3c-0.2-0.8-0.4-1.3-0.9-1.4c-0.2-0.1-0.8-0.1-1.7-0.1l-0.8,0l0,3l0.4,0c0.7,0,1.1-0.1,1.3-0.2   c0.2-0.1,0.3-0.4,0.3-0.9c0-0.3,0.1-0.5,0.2-0.5c0.1,0,0.2,0.1,0.2,0.3c0,0.1,0,0.3,0,0.6c0,0.3,0,0.5,0,0.6c0,0.7,0,1.2,0,1.4   c0,0.1,0,0.2,0,0.2c0,0.2,0,0.3-0.2,0.3c-0.1,0-0.2-0.1-0.2-0.4c-0.1-0.6-0.2-0.9-0.3-1c-0.2-0.1-0.6-0.2-1.3-0.2l-0.4,0l0,3.5   c1.6,0,2.5-0.1,2.8-0.2c0.4-0.1,0.7-0.6,0.7-1.6c0-0.2,0.1-0.2,0.2-0.2C122.8,65.9,122.8,66,122.8,66.3z"
   class="st0" />
	<path
   id="path68"
   d="M128.5,65.9c0,0.6-0.2,1.1-0.8,1.5c-0.5,0.4-1.1,0.7-1.9,0.7c-0.5,0-1.1-0.2-1.7-0.5c-0.1,0-0.1,0-0.1,0   c-0.1,0-0.1,0.1-0.1,0.2c0,0.1,0,0.2,0,0.3c0,0.1-0.1,0.1-0.2,0.1c-0.1,0-0.2-0.1-0.2-0.2c0,0,0-0.2,0-0.5c0-0.3,0-0.6,0-0.8   c0-0.1,0-0.2,0-0.4c0-0.2,0-0.3,0-0.4c0-0.2,0.1-0.3,0.2-0.3c0.1,0,0.2,0.2,0.2,0.5c0.2,1.2,0.9,1.8,1.9,1.8c0.9,0,1.4-0.5,1.3-1.4   c0-0.4-0.1-0.7-0.3-1c-0.2-0.2-0.6-0.5-1.3-0.8c-0.8-0.4-1.3-0.7-1.6-0.9c-0.3-0.3-0.4-0.7-0.4-1.2c0-0.6,0.2-1.1,0.6-1.5   c0.4-0.4,1-0.6,1.6-0.6c0.4,0,0.8,0.1,1.3,0.4c0.1,0,0.1,0,0.1,0c0.1,0,0.1-0.1,0.1-0.2c0-0.2,0.1-0.2,0.2-0.2   c0.1,0,0.2,0.1,0.2,0.2c0,0,0,0.1,0,0.1c0,0.2,0,0.4,0,0.7c0,0.2,0,0.5,0.1,0.9c0,0,0,0.1,0,0.1c0,0.1,0,0.2-0.1,0.2   c-0.1,0-0.2-0.1-0.2-0.3c-0.1-0.5-0.3-0.8-0.6-1.1c-0.3-0.3-0.6-0.4-1-0.4c-0.8,0-1.2,0.4-1.1,1.2c0,0.4,0.1,0.7,0.3,0.9   c0.1,0.1,0.2,0.2,0.4,0.3c0.1,0.1,0.5,0.3,1.1,0.6c0.7,0.3,1.2,0.7,1.5,1C128.4,65.1,128.5,65.5,128.5,65.9z"
   class="st0" />
	<path
   id="path70"
   d="M139.4,67.8c0,0.1-0.1,0.1-0.3,0.1l-0.1,0l-1,0l-0.5,0c-0.2,0-0.4,0-0.8,0l-0.5,0l-0.3,0l-0.1,0   c-0.2,0-0.3,0-0.3-0.1c0-0.1,0.2-0.1,0.6-0.1c0.5,0,0.7-0.1,0.7-0.2c0,0,0-0.1-0.1-0.3c0-0.1-0.2-0.4-0.4-1.1l-0.2-0.5l-2.3,0   c-0.4,1.1-0.6,1.8-0.6,1.9c0,0.1,0.1,0.1,0.2,0.2l0.2,0l0.2,0l0.1,0c0.1,0,0.2,0,0.2,0.1c0,0.1-0.1,0.1-0.3,0.1c0,0-0.2,0-0.6,0   c-0.4,0-0.7,0-0.9,0l-0.1,0l-0.1,0l-0.2,0l0,0c-0.2,0-0.3,0-0.3-0.1c0-0.1,0.1-0.1,0.2-0.1c0.2,0,0.3,0,0.4,0   c0.2,0,0.3-0.1,0.4-0.2c0.1,0,0.3-0.6,0.8-1.8c0.2-0.5,0.3-0.9,0.5-1.4c0.1-0.2,0.1-0.3,0.1-0.3c0-0.1,0.1-0.2,0.1-0.3   c0.2-0.4,0.4-1.1,0.8-2l0.2-0.7l0.1-0.3c0.1-0.2,0.1-0.2,0.2-0.2c0,0,0.1,0.1,0.2,0.4c0.3,0.8,1.2,2.8,2.5,6.2   c0.1,0.3,0.3,0.5,0.4,0.5c0,0,0.2,0,0.5,0C139.3,67.7,139.4,67.7,139.4,67.8z M135.8,59.7C135.8,59.7,135.8,59.8,135.8,59.7   c-0.2,0.1-0.6-0.3-1.2-0.9l-1.5-1.5l0.3,0l0.5,0l0.9,0l0.7,1.4C135.4,58.9,135.6,59.2,135.8,59.7C135.8,59.6,135.8,59.7,135.8,59.7   z M136.1,65.3l-1.1-2.7c-0.3,0.6-0.6,1.6-1.1,2.8L136.1,65.3z"
   class="st0" />
	<path
   id="path72"
   d="M149.8,64.2c0,1.3-0.5,2.2-1.4,2.9c-0.7,0.5-1.6,0.8-2.7,0.8c0,0-0.1,0-0.4,0c-0.3,0-0.7,0-1.3,0l-0.4,0   c0,0-0.1,0-0.3,0c-0.2,0-0.4,0-0.6,0l-0.1,0c-0.2,0-0.3,0-0.3-0.2c0-0.1,0.1-0.1,0.2-0.1l0.4,0c0.2,0,0.3-0.1,0.4-0.2   c0,0,0-0.2,0-0.6l0-5.1c0-0.5,0-0.8,0-0.8c-0.1-0.1-0.2-0.1-0.6-0.1c-0.2,0-0.3,0-0.3-0.1c0-0.1,0.1-0.1,0.3-0.1c0,0,0,0,0.1,0   c0.1,0,0.3,0,0.6,0l1.1,0c1.4,0,2.4,0.1,3,0.2c0.7,0.2,1.3,0.6,1.7,1.2C149.5,62.6,149.8,63.4,149.8,64.2z M148.2,64.1   c0-2.2-0.9-3.3-2.7-3.3c-0.5,0-0.8,0-0.9,0.1c-0.1,0.1-0.1,0.3-0.1,0.6l0,5.7c0,0.2,0,0.3,0.1,0.4c0.1,0,0.3,0.1,0.7,0.1   C147.3,67.6,148.2,66.4,148.2,64.1z"
   class="st0" />
	<path
   id="path74"
   d="M157.9,64.1c0,1-0.3,1.9-1,2.7c-0.7,0.7-1.5,1.1-2.5,1.1c-1,0-1.9-0.4-2.6-1.1c-0.7-0.7-1.1-1.6-1.1-2.7   c0-1.1,0.3-2,1-2.7c0.7-0.7,1.5-1.1,2.6-1.1c1,0,1.9,0.4,2.5,1.1C157.5,62.2,157.9,63.1,157.9,64.1z M156.4,64.2   c0-1.2-0.3-2.2-0.8-2.9c-0.3-0.5-0.8-0.7-1.3-0.7c-0.8,0-1.3,0.4-1.7,1.3c-0.2,0.6-0.4,1.4-0.3,2.3c0,1.1,0.2,2,0.6,2.6   c0.4,0.6,0.9,0.9,1.6,0.9C155.7,67.7,156.4,66.5,156.4,64.2z"
   class="st0" />
	<path
   id="path76"
   d="M167.1,67.6c0,0.1-0.1,0.1-0.3,0.1c0,0,0,0-0.2,0c-0.2,0-0.4,0-0.7,0l-0.6,0c-0.2,0-0.4,0-0.6,0   c-0.3,0-0.5,0-0.7,0l-0.1,0c-0.2,0-0.3,0-0.3-0.1c0,0,0-0.1,0.1-0.1c0,0,0.2,0,0.5,0c0.2,0,0.4,0,0.4-0.1c0-0.1,0.1-0.3,0.1-0.6   l0-5.2c-0.2,0.5-0.5,1.4-0.9,2.7c-0.2,0.7-0.5,1.7-0.9,2.9c-0.1,0.3-0.2,0.5-0.3,0.5c-0.1,0-0.2-0.1-0.3-0.4   c-0.3-0.7-1-2.6-2.2-5.5l0,5.5c0,0.1,0.1,0.2,0.2,0.3c0.2,0,0.3,0,0.6,0c0.1,0,0.2,0,0.2,0.1c0,0.1-0.1,0.1-0.3,0.1l-0.2,0   c-0.1,0-0.2,0-0.3,0l-0.9,0c-0.1,0-0.2,0-0.4,0c-0.2,0-0.2,0-0.2-0.1c0-0.1,0.2-0.1,0.5-0.1c0.2,0,0.4,0,0.4-0.1   c0,0,0.1-0.2,0.1-0.5l0-5.5c0-0.4,0-0.6-0.1-0.6c-0.1-0.1-0.3-0.1-0.7-0.1c-0.1,0-0.2,0-0.2-0.1c0-0.1,0.1-0.1,0.3-0.1   c0.2,0,0.8,0,1.9,0l0.1,0.2c0.1,0.1,0.1,0.3,0.2,0.5l0.4,1c0.1,0.3,0.3,0.7,0.6,1.3l0.9,2.1c0.2-0.5,0.3-0.9,0.4-1.1l1.4-4l1.2,0   l0.7,0c0.3,0,0.4,0,0.4,0.1c0,0.1-0.1,0.1-0.3,0.1c-0.3,0-0.4,0-0.5,0c-0.1,0.1-0.2,0.2-0.2,0.4l0,5.7c0,0.4,0,0.7,0.1,0.7   c0.1,0,0.3,0,0.7,0C167,67.4,167.1,67.5,167.1,67.6z"
   class="st0" />
	<path
   id="path78"
   d="M170.7,67.5c0,0.1,0,0.1-0.1,0.1l-0.2,0l-0.3,0l-0.4,0c-0.1,0-0.2,0-0.3,0c-0.1,0-0.1,0-0.2,0   c-0.1,0-0.3,0-0.6,0c-0.3,0-0.5,0-0.7,0l-0.1,0c-0.2,0-0.3,0-0.3-0.1c0-0.1,0.1-0.1,0.4-0.1c0.3,0,0.5-0.1,0.5-0.1   c0-0.1,0-0.3,0-0.7l0-5.2c0-0.4,0-0.7,0-0.7c0-0.1-0.1-0.1-0.2-0.1l-0.3,0l-0.2,0c-0.1,0-0.1,0-0.1-0.1s0.1-0.1,0.2-0.1   c0,0,0,0,0.1,0c0.1,0,0.2,0,0.4,0l1.2,0c0.1,0,0.2,0,0.3,0s0.2,0,0.4,0l0.4,0c0.2,0,0.3,0,0.3,0.1c0,0.1-0.2,0.1-0.5,0.1   c-0.2,0-0.2,0-0.3,0.1c0,0,0,0.2,0,0.4l0.1,6.1c0,0.1,0,0.2,0.1,0.2c0.1,0,0.3,0.1,0.6,0.1C170.7,67.4,170.7,67.5,170.7,67.5z"
   class="st0" />
	<path
   id="path80"
   d="M178,65.2c0,0,0,0.1,0,0.3c0,0.6-0.1,1-0.1,1.2c0,0.2,0,0.4,0.1,0.7l0,0.1c0,0.1,0,0.2-0.1,0.2   c-0.1,0-0.2-0.1-0.3-0.3l-0.2-0.3c0,0,0-0.1,0-0.1c-0.5,0.5-1.1,0.7-2,0.7c-1.1,0-2-0.3-2.7-1.1c-0.7-0.7-1.1-1.6-1.1-2.7   c0-1.1,0.3-2,1-2.7c0.7-0.7,1.5-1.1,2.5-1.1c0.8,0,1.5,0.2,2,0.6c0,0,0.1,0.1,0.1,0.1c0.1,0,0.1-0.1,0.1-0.2   c0.1-0.2,0.2-0.4,0.3-0.4c0.1,0,0.1,0,0.1,0.1c0,0,0,0.1,0,0.1c-0.1,0.4-0.1,0.9-0.1,1.6c0,0.5-0.1,0.7-0.2,0.7   c-0.1,0-0.1-0.1-0.2-0.2c-0.1-0.6-0.2-1-0.4-1.3c-0.3-0.6-0.9-0.9-1.7-0.9c-0.7,0-1.2,0.3-1.6,1c-0.4,0.6-0.6,1.5-0.6,2.6   c0,1.1,0.2,1.9,0.7,2.6c0.4,0.6,1,0.9,1.7,0.9c0.6,0,1-0.2,1.4-0.6c0.4-0.4,0.6-0.9,0.7-1.6c0.1-0.3,0.1-0.4,0.2-0.4   C177.9,64.9,178,65,178,65.2z"
   class="st0" />
	<path
   id="path82"
   d="M182,67.5c0,0.1,0,0.1-0.1,0.1l-0.2,0l-0.3,0l-0.4,0c-0.1,0-0.2,0-0.3,0c-0.1,0-0.1,0-0.2,0   c-0.1,0-0.3,0-0.6,0c-0.3,0-0.5,0-0.7,0l-0.1,0c-0.2,0-0.3,0-0.3-0.1c0-0.1,0.1-0.1,0.4-0.1c0.3,0,0.5-0.1,0.5-0.1   c0-0.1,0-0.3,0-0.7l0-5.2c0-0.4,0-0.7,0-0.7c0-0.1-0.1-0.1-0.2-0.1l-0.3,0l-0.2,0c-0.1,0-0.1,0-0.1-0.1c0-0.1,0.1-0.1,0.2-0.1   c0,0,0,0,0.1,0s0.2,0,0.4,0l1.2,0c0.1,0,0.2,0,0.3,0c0.1,0,0.2,0,0.4,0l0.4,0c0.2,0,0.3,0,0.3,0.1c0,0.1-0.2,0.1-0.5,0.1   c-0.2,0-0.2,0-0.3,0.1c0,0,0,0.2,0,0.4l0.1,6.1c0,0.1,0,0.2,0.1,0.2c0.1,0,0.3,0.1,0.6,0.1C181.9,67.3,182,67.4,182,67.5z"
   class="st0" />
	<path
   id="path84"
   d="M188.9,66c0,0.6,0,1.1,0,1.5c-0.1,0-0.1,0-0.2,0c0,0-0.1,0-0.2,0c-0.2,0-0.4,0-0.6,0l-0.8,0l-2.8,0l-1.3,0   c-0.1,0-0.2,0-0.2-0.1c0-0.1,0.2-0.1,0.6-0.1c0.1,0,0.2,0,0.2-0.1c0,0,0-0.2,0-0.4l0-5.4c0-0.6-0.1-0.9-0.2-0.9c0,0-0.1,0-0.3,0   c-0.1,0-0.2,0-0.3,0c-0.1,0-0.2,0-0.2-0.1c0-0.1,0.1-0.1,0.2-0.1l2.2,0c0.1,0,0.2,0,0.4,0c0.2,0,0.3,0,0.3,0.1   c0,0.1-0.2,0.1-0.5,0.1c-0.2,0-0.3,0-0.3,0.1c0,0.1,0,0.3,0,0.7l0.1,6c0.4,0,0.7,0,0.9,0c1.2,0,1.9-0.1,2.2-0.4   c0.2-0.2,0.4-0.6,0.4-1.2c0-0.3,0.1-0.4,0.2-0.4C188.8,65.3,188.9,65.6,188.9,66z"
   class="st0" />
	<path
   id="path86"
   d="M195.5,65.7c0,0,0,0.1,0,0.2c0,0.1,0,0.2,0,0.3l0,0.9c0,0.1,0,0.2,0.1,0.3l-2.7,0l-3.1,0.1   c-0.2,0-0.3,0-0.3-0.1c0-0.1,0.1-0.1,0.2-0.1c0.3,0,0.5,0,0.6-0.1c0.1,0,0.1-0.2,0.1-0.5l0-5.5c0-0.4,0-0.7-0.1-0.7   c-0.1,0-0.3,0-0.6,0c-0.1,0-0.2,0-0.2-0.1c0-0.1,0.1-0.1,0.2-0.1l0.4,0c0.1,0,0.2,0,0.3,0l0.2,0l0.4,0c0.1,0,0.3,0,0.8,0   c0.5,0,1.1,0,1.8,0l1,0c0.3,0,0.5,0,0.7,0l0,0.1l0,0.2c0,0.2,0.1,0.6,0.1,1.4c0,0.1,0,0.1,0,0.2c0,0.1,0,0.2-0.1,0.2   c-0.1,0-0.2-0.1-0.2-0.3c-0.2-0.8-0.4-1.3-0.9-1.4c-0.2-0.1-0.8-0.1-1.7-0.1l-0.8,0l0,3l0.4,0c0.7,0,1.1-0.1,1.3-0.2   c0.2-0.1,0.3-0.4,0.3-0.9c0-0.3,0.1-0.5,0.2-0.5c0.1,0,0.2,0.1,0.2,0.3c0,0.1,0,0.3,0,0.6c0,0.3,0,0.5,0,0.6c0,0.7,0,1.2,0,1.4   c0,0.1,0,0.2,0,0.2c0,0.2-0.1,0.3-0.2,0.3c-0.1,0-0.2-0.1-0.2-0.4c-0.1-0.6-0.2-0.9-0.3-1c-0.2-0.1-0.6-0.2-1.3-0.2l-0.4,0l0,3.5   c1.6,0,2.5-0.1,2.8-0.2c0.4-0.1,0.7-0.6,0.7-1.6c0-0.2,0.1-0.2,0.2-0.2C195.4,65.3,195.5,65.4,195.5,65.7z"
   class="st0" />
	<path
   id="path88"
   d="M191,9.8c-0.1-0.1-1.4,1.5-2.5,4c0,0,0,0,0-0.1c-1.1-5.4,5.4-7.7,7.4-8.2c-2.8,2.6-2.6,10.4-7,9.3   C189.7,12.9,190.5,10.7,191,9.8z"
   class="st1" />
	<path
   id="path90"
   d="M184.6,12.3c0.8,0.7,1.4,1.2,2.3,3.2c0,0,0,0,0-0.1c0.6-4.6-5.8-5.9-6.9-5.9c2.1,2,4.4,9.1,6.7,6.9   C186.2,14.6,185.2,13.1,184.6,12.3z"
   class="st1" />
	<path
   id="path92"
   d="M26.8,25.7c-0.2-0.5-0.4-0.9-0.7-1.3c-0.6-0.8-1.5-1.3-2.4-1.7c-0.2-0.1-2.9-0.5-2.9-0.4   c-0.1-0.5-0.1-0.9,0-1.4c0.6-2.9,0.6-5.8,1.4-8.7c0.1-0.4,0.2-0.7,0.4-1c0.4-0.5,1.5-0.4,2.1-0.5c0.9-0.2,1.7-0.7,2.1-1.4   c0.2-0.3,0.3-0.7,0.3-1c0-0.3-0.2-0.6-0.5-0.7c-0.3-0.2-0.5-0.3-0.8-0.5C25.7,7.1,25.4,7,25.1,7c-0.5,0-1,0.1-1.5,0.2   c-0.5,0.1-1,0.2-1.5,0.5c-0.1,0.1-0.2,0.1-0.2,0.1c-0.1,0-0.2,0.1-0.2,0.1c-0.5,0.5-1.3,2-1.9,2.2c-0.1,0.1-0.3,0-0.5,0   C18.1,10,17,9.7,15.8,9.7c-1.4,0.1-2.7,0.7-3.1,2.1c0,0.2,0,0.4,0.2,0.6c0.1,0.1,0.1,0.1,0.2,0.1c0.1,0,0.1,0,0.2-0.1   c0.2-0.6,0.8-1.5,1.4-1.8c0.5-0.2,1.1-0.2,1.7-0.2c1.1,0.1,2.2,0.2,3.1,0.8c-0.4,0.5-0.6,1.9-0.8,2.6c-0.2,0.9-0.4,1.7-0.6,2.6   c-0.4,1.9-0.4,4-1,5.8c-0.1,0.2-0.1,0.5,0,0.8c0,0.1-0.1,0.2-0.2,0.3c-5.1,2.4-9.6,7.6-11.4,12.9C5,37.4,4.7,38.7,4.8,40   c0.1,1.3,0.8,2.6,1.9,3.3c0.8,0.5,1.8,0.6,2.8,0.6c4.2-0.3,7.4-3.9,8.9-7.5c1.7-4,1.5-8.1,2.4-12.2c0-0.1,0.1-0.2,0.1-0.3   c0.1-0.1,0.2-0.1,0.4-0.1c1-0.1,2,0.1,2.8,0.6c0.9,0.5,1.6,1.3,1.8,2.2c0.2,0.8,0,1.4-0.3,2.2c-0.1,0.3-0.4,0.5-0.2,0.9   c0.7,1,1.5-1.5,1.6-1.9C27.1,27,27.1,26.4,26.8,25.7z M22.9,9.9c0.3-0.3,0.7-0.6,1-0.9c0.4-0.2,0.8-0.4,1.2-0.5   c0.2,0,0.3,0,0.4,0.1c0.1,0.1,0.2,0.2,0.2,0.3c0,0.2,0,0.3-0.1,0.4c-0.1,0.1-0.3,0.2-0.4,0.3c-0.1,0.1-0.3,0.2-0.4,0.2   C24.6,10,24.3,10,24,10.1c-0.3,0.1-0.6,0.2-0.8,0.2c-0.2,0.1-0.3,0-0.4-0.1C22.8,10.1,22.8,10,22.9,9.9z M16.8,26   c-0.3,3.9-1,7.6-2.7,11.2c-0.5,1.1-1.1,2.1-2,2.9c-1.8,1.6-5.5,1.6-5.6-1.5c0-0.8,0.2-1.6,0.4-2.3c0.8-2.6,2.3-5.1,4.2-7   c0.5-0.5,1-1,1.6-1.5c0.4-0.3,0.7-0.6,1.1-0.9c0.9-0.7,2-1.4,3.2-1.8C16.8,25.4,16.8,25.7,16.8,26z"
   class="st0" />
	<path
   id="path94"
   d="M63.6,23.3c-0.2,0-0.4,0.2-0.5,0.3c-2.4,3.3-4.9,6.6-7.6,9.6c-0.5,0.6-1,1.1-1.8,1.3c0.1-2.9,0.9-5.8,1.8-8.6   c0.7-2.4,1.5-4.7,2.4-7c0.1-0.2,0.1-0.4,0.3-0.6c0.5-0.6,1.6-0.3,2.4-0.7c0.3-0.2,0.5-0.6,0.2-0.8c-0.1-0.1-0.3-0.1-0.5-0.1   c-0.5,0.1-1.1,0.1-1.6,0.2c-0.1-0.9,0.9-1.9,0.4-2.7c-0.4-0.7-1.6-0.4-2,0.3c-0.5,0.7-0.6,1.5-1,2.2c-1.1-0.1-2.2-0.1-3.3-0.2   c-1-0.1-2.2,0-2.5,0.9c1.7-0.2,3.5,0,5.2,0.7c-0.7,1.9-1.4,3.8-2.2,5.7c-0.2,0.6-0.5,1.2-0.8,1.7c-0.4,0.6-1,1-1.5,1.4   c-0.9,0.6-1.9,1.2-2.9,1.6c-0.7-0.9-1.3-1.9-1.6-3c-0.3-1.1-0.2-2.4,0.6-3.2c0.5-0.5,1.3-1,1.3-1.7c0-0.4-0.4-0.8-0.9-0.9   c-0.4-0.1-0.9,0-1.3,0.2c-1.2,0.5-2,1.6-2.3,2.9c-0.1,0.6-0.1,1.2-0.2,1.7c-0.2,0.7-0.5,1.3-0.9,2c-0.9,1.5-1.8,2.9-2.7,4.3   c-0.1,0.2-0.3,0.4-0.5,0.4c-0.3,0-0.4-0.4-0.5-0.6c-0.2-1.4-0.1-2.9,0.4-4.2c0.3-0.8,0.6-1.7,0-2.3c-0.5-0.5-1.5-0.3-2,0.3   c-0.5,0.6-0.6,1.4-0.8,2.1c-0.4,1.4-1,2.6-1.9,3.8c-0.5,0.6-1.3,1.1-1.8,0.7c-0.2-0.2-0.3-0.5-0.4-0.8c-0.5-2-0.2-4.2,0.7-6.1   c0.2-0.4,0.5-0.9,0.6-1.4c0.1-0.5,0.1-1.1-0.3-1.4c-0.5-0.5-1.3-0.4-1.9,0.1s-0.8,1.1-1.1,1.7c-0.6,1.5-1.3,3-1.5,4.7   c-0.2,1.3-0.1,3.2,0.7,4.3c0.9,1.1,2.8,0.8,3.8,0.1c1-0.6,1.8-1.6,2.5-2.6c-0.1,0.7-0.1,1.5,0.1,2.2c0.2,0.7,0.8,1.4,1.6,1.4   c1.4,0.1,2.3-1.7,3-2.6c1-1.6,2.1-3.2,3.1-4.8c0.8,1.2,1.4,2.4,1.9,3.8c-0.8,0.4-1.7,0.8-2.3,1.6s-0.8,1.8-0.3,2.6   c0.5,0.8,1.6,1,2.6,0.8c2.2-0.6,3.1-3.1,2.4-5.2c1.5-0.6,2.9-1.5,4.2-2.6c-0.8,2.4-1.3,5-1.2,7.5c0,0.7,0.1,1.6,0.8,2   c0.5,0.3,1,0.2,1.5,0c0.9-0.4,1.7-1.1,2.4-1.9c2.9-3.1,5.5-6.5,7.8-10C63.8,23.8,64,23.4,63.6,23.3z M45.5,33.2   c-0.1,0.1-0.2,0.1-0.3,0.1c-0.3,0.1-0.7,0.2-1,0.1c-0.5-0.2-0.6-0.9-0.4-1.4c0.2-0.6,0.9-1.1,1.5-1.4c0.1,0,0.1-0.1,0.2-0.2   c0.1-0.1,0.2-0.2,0.4-0.2c0.8,0,0.2,2.2,0,2.6C45.6,33,45.6,33.2,45.5,33.2z"
   class="st0" />
	<path
   id="path96"
   d="M91.7,22.5c-0.2-0.8-0.8,0.4-0.9,0.6c-0.3,0.8-0.5,1.5-0.8,2.3c-0.6,1.6-1.4,3.1-2.3,4.5   c-0.5,0.8-1.3,1.6-2.2,1.5c-0.6-0.1-1.1-0.6-1.3-1.2c-0.2-0.6-0.2-1.2-0.1-1.8c0.2-2.4,0.8-4.7,1.7-6.9c0.3-0.6,0.5-1.3,0.5-2   c0-0.7-0.5-1.2-1.2-1.3c-0.9-0.1-1.5,0.8-2,1.4c0,0-0.1,0.1-0.1,0.1c-0.1,0-0.1,0-0.2-0.1c-1.9-2-4-1.4-5.9,0.3   c-1.3,1.2-2.5,2.6-3.3,4.2c-1,2-2.4,6.1,0.9,7c0.8,0.2,1.7-0.2,2.4-0.6c0.9-0.6,1.8-1.2,2.5-2c0.7-0.7,1.2-1.8,2-2.4   c0,0.1,0,0.1,0,0.2c-0.5,1.9-0.5,4.4,1.3,5.6c1.3,0.9,3.1,0.9,4.4-0.1c0.6-0.4,1-1,1.4-1.6c1.3-2.1,2.2-4.5,3.1-6.8   C91.7,23.2,91.8,22.8,91.7,22.5z M82.6,21.7c-0.1,0.3-0.2,0.6-0.4,0.9c-1.1,2.2-2.6,4.1-4.2,5.9c-0.8,0.8-1.8,1.7-3,1.4   c-0.1,0-0.2-0.1-0.3-0.2c-0.1-0.1-0.1-0.2-0.1-0.3c0-0.6,0.1-1.2,0.3-1.8c0.9-3,3-5.6,5.7-7.2c0.2-0.1,0.4-0.2,0.6-0.2   c0.7-0.1,1.4-0.1,1.4,0.9C82.6,21.4,82.6,21.5,82.6,21.7z"
   class="st0" />
	<path
   id="path98"
   d="M119.4,20.7c0,0,0-0.1,0-0.1c0-0.5,0-1-0.1-1.5c-0.2-0.8-0.5-1.7-0.9-2.4c-0.4-0.7-1.1-1.6-1.8-2   c-0.4-0.2-0.7-0.4-1.1-0.6c-0.2-0.2-0.5-0.3-0.8-0.4c-0.3-0.1-0.6-0.2-0.8-0.4c-0.1,0-0.2-0.1-0.3-0.1c-0.2,0-0.4,0-0.6-0.1   c-0.2-0.1-0.4-0.2-0.6-0.2c0.2-0.1,0.3-0.2,0.4-0.2c1.4-1.1,3-2,4-3.6c0.9-1.4,1.2-3.5,0.1-4.9c-0.4-0.5-0.8-1-1.3-1.4   c-0.1-0.1-0.2-0.1-0.3-0.1c-0.4-0.2-0.7-0.3-1.1-0.4c-0.4-0.1-0.8-0.2-1.2-0.3c-0.4-0.1-0.8-0.1-1.2-0.1c-0.4,0-0.8,0-1.2,0.1   c-2.6,0.3-5.1,1-7.5,2.1c-0.4,0.2-0.8,0.4-1,0.8c-0.2,0.4-0.2,0.9,0.2,1.1c0.3,0.1,0.6,0,0.9-0.1c2.9-1.1,5.9-2.3,9-2.2   c1.2,0,2.6,0.3,3.3,1.3c0.1,0.2,0.2,0.3,0.2,0.5c0,0.2-0.1,0.4-0.2,0.6c-0.6,1.2-1.6,2.2-2.8,3c-0.6,0.4-1.3,0.8-2,1.2   c-1.1,0.6-2.2,1.1-3.4,1.6c0-0.9,0.6-1.7,1-2.6c0.4-0.8,0.7-1.9,0.2-2.6c-0.4-0.6-1.1-0.9-1.8-0.7c-0.9,0.3-1.4,1.3-1.7,2.2   c-1.9,5.4-3.2,10.9-3.9,16.6c0,0.3-0.1,0.6-0.2,0.9c-0.1,1,0.9,1.9,1.7,2.2c0.1,0,0.2,0.1,0.3,0.1c0.1,0,0.3-0.1,0.4-0.2   c0.4-0.4,0.5-0.9,0.6-1.4c0.3-1.4,0.6-2.8,0.9-4.3c0.2-0.9,0.4-1.9,0.6-2.8c0.2-0.9,0.3-1.9,0.7-2.8c0.1-0.3,0.4-0.5,0.7-0.7   c0.7-0.5,1.6-0.8,2.5-1c0.5-0.1,0.9-0.2,1.4-0.2c0.3,0,0.6-0.1,0.9,0c0.7,0,1.4,0.2,2,0.6c1.2,0.6,2.2,1.6,2.7,2.9   c0.2,0.6,0.3,1.1,0.4,1.7c0.1,1.6-0.2,3.3-0.9,4.7c-0.7,1.5-1.7,2.8-2.8,4c-0.1,0.1-0.2,0.2-0.3,0.2c-0.2,0.1-0.5,0-0.7-0.1   c-3.5-1.6-7.7,0.7-9.7,3.7c-0.2,0.3-0.4,0.6-0.6,0.8c0,0.1-0.1,0.1-0.1,0.2c0,0.1,0,0.1,0,0.2c-0.1,0.3-0.2,0.6-0.3,0.9   c-0.2,0.5-0.3,1.1-0.3,1.7c0,0.8,0.3,1.5,1.1,1.8c0.2,0.1,0.5,0.1,0.7,0.1c0.9,0,1.7-0.1,2.6-0.4c3-1,5.8-2.8,8-5.2   c0.2-0.2,0.4-0.3,0.6-0.2c0,0.1,0.1,0.1,0.1,0.2c0.2,0.8,0.3,1.5,0.5,2.3c0,0.1,0.1,0.3,0.2,0.4c0.3,0.3,0.6,0,0.6-0.3   c0-0.8-0.1-1.6-0.4-2.3c-0.1-0.3-0.3-0.6-0.3-1c0.1-0.4,0.4-0.7,0.6-1c1.8-1.9,3.1-4.1,3.8-6.5C119.2,22.9,119.4,21.8,119.4,20.7z    M110.5,30.7c-0.8,0.7-1.7,1.3-2.5,2c-0.1,0.1-0.2,0.1-0.3,0.2c-0.1,0-0.2,0-0.3,0.1c-0.1,0-0.3,0.2-0.4,0.3   c-0.6,0.5-1.4,0.9-2.2,1c-0.3,0-0.6,0-0.9-0.2c-0.3-0.3-0.2-0.9,0-1.2c1.2-2.3,4.6-4.7,7.2-3.2c0.1,0.1,0.2,0.1,0.2,0.2   C111.2,30,110.9,30.4,110.5,30.7z"
   class="st0" />
	<path
   id="path100"
   d="M185.7,19.4c-0.4,0.1-0.8,0.7-1,1.1c-1.3,2.8-3.1,5.4-5.4,7.5c0.2-2.5,0.5-4.9,0.7-7.4c0-0.3,0.1-0.7,0-1   c-0.1-0.3-0.3-0.6-0.7-0.7c-0.3,0-0.6,0.1-0.8,0.3c-1.8,1.4-2.5,3.7-4,5.4c-0.3,0.3-0.8,0.6-1.1,0.3c-0.1-0.1-0.1-0.3-0.2-0.4   c-0.2-1.1,0.1-2.3,0.5-3.3c0.4-1,1.3-1.8,1.6-2.9c0.1-0.4,0.2-0.8,0-1.2c-0.2-0.6-0.8-1.1-1.4-0.9c-0.3,0.1-0.6,0.4-0.9,0.6   c-0.8,1-1.5,2.2-1.8,3.4c-0.2,0.7-0.2,1.5-0.6,2.1c-0.2,0.3-0.4,0.6-0.6,0.9c-1.6,1.9-3.1,3.8-4.7,5.7c-0.4,0.5-0.8,1-1.3,1.3   c-0.8,0.5-0.8,0.3-0.8-0.5c0-0.2,0-0.4,0.1-0.6c0.4-2.7,1.1-5.4,1.9-8.1c0.4-1.4,0.9-2.7,1.4-4c0.2-0.5,0.8-3,1.4-3   c0.7,0,1.6-0.1,2.1-0.5c0.2-0.2,0.4-0.5,0.2-0.7c-0.1-0.1-0.2-0.1-0.3-0.1c-0.2,0-1.9,0.1-1.9,0.1c0-0.3,0-0.5,0.2-0.8   c0-0.2,0.1-0.3,0.2-0.5c0.2-0.5,0.3-1.1-0.1-1.5c-0.3-0.3-0.8-0.4-1.2-0.2c-0.5,0.2-0.7,0.6-0.9,1.1c-0.2,0.5-0.4,1.5-0.9,1.8   c-0.3,0.1-0.6,0-0.9-0.1c-0.3-0.1-0.6-0.1-0.9-0.1c-0.7,0-1.3-0.1-2-0.1c-0.4,0-1.2,0.1-1.5,0.4c-0.1,0.2-0.3,0.3-0.5,0.5   c0.1-0.1,2.4,0.2,2.7,0.2c0.9,0.1,1.8,0.3,2.7,0.5c-0.2,0.1-0.3,0.2-0.3,0.4c0,0.2,0,0.3-0.2,0.4c-0.2,0.1-0.2,0.3-0.2,0.5   c0,0.1,0,0.2,0,0.3c-0.7,1.2-1.1,2.6-1.5,3.8c-0.3,0.9-0.7,1.9-1.1,2.7c-0.8,1.4-1.6,2.9-2.6,4.2c-0.2,0.2-0.4,0.4-0.6,0.3   c-0.1-0.1-0.2-0.2-0.2-0.4c-0.4-1.9,0-3.9,0.6-5.7c0.1-0.3,0.2-0.6,0-0.8c-0.1-0.1-0.2-0.2-0.4-0.3c-0.4-0.2-0.9-0.4-1.3-0.3   c-0.3,0.1-0.4,0.4-0.6,0.6c-0.5,0.9-0.7,1.9-1,2.9c-0.4,1.3-1.1,2.1-1.8,3.1c-0.2,0.3-0.5,0.6-0.8,0.7c-0.4,0.1-0.7-0.1-0.9-0.4   c-0.2-0.3-0.3-0.7-0.4-1c-0.4-2.1,0.2-4.4,1.2-6.3c0.2-0.3,0.3-0.6,0.4-1c0.1-0.7-0.6-1.5-1.4-1.5c-0.9,0-1.6,1-2,1.8   c-0.7,1.5-1.3,3-1.5,4.7c-0.2,2-0.7,3.8-2.1,5.3c-0.6,0.7-1.7,1-2.4,0.6c-0.8-0.5-0.8-1.6-0.7-2.6c0.3-2.6,0.9-5.2,1.9-7.6   c0.3-0.8,0.6-1.8,0-2.4c-1-1-3.1,1.1-3,1.2c-0.1-0.1-0.2-0.2-0.3-0.3c-0.1-0.1-0.2-0.2-0.3-0.3c-1.6-2-4.3-0.5-5.8,0.9   c-2.2,2.1-3.2,4.4-4.3,7.1c-0.2,0.6-0.6,1.1-0.9,1.6c-0.7,1.1-1.6,2.2-2.5,3c-0.8,0.7-1.7,1.3-2.7,1.5c-0.6,0.2-1.4,0.1-1.8-0.5   c-0.1-0.2-0.1-0.4-0.2-0.7c-0.1-1.3,0-2.6,0.4-3.9c0-0.1,0.1-0.3,0.2-0.4c0.1-0.1,0.4-0.2,0.6-0.2c1.9-0.3,3.6-1.6,4.4-3.4   c0.5-1.2,0.4-2.8-0.6-3.5c-1.3-0.9-3.6-0.1-4.6,0.9c-2.1,2-3.1,5.2-3.2,8c0,1.3,0.2,2.7,1,3.6c1.6,1.7,4.3,1.2,6,0   c0.9-0.6,1.6-1.4,2.3-2.3c0.2-0.3,1.8-2.2,1.7-2.4c0.2,0.3,0.2,0.7,0.4,1.1c0.6,0.8,1.2,1.4,2.3,1.3c0.7,0,1.3-0.3,1.9-0.7   c1.7-1.1,3-2.7,4.2-4.3c-0.1,1.6-0.4,3.2,0.4,4.7c0.7,1.2,1.9,1.9,3.2,1.8c0.2,0,0.3,0,0.5,0c0.1,0,0.3,0,0.4,0   c0.2,0,0.4-0.1,0.5-0.2c1.5-0.8,2.4-2.3,3.1-3.8c0.2,1.1,1,1.9,2.1,2c1,0.1,2-0.3,2.8-1c0.8-0.6,1.4-1.4,2-2.3   c-0.5,0.6,0.2,2.9,0.8,3.3c0.5,0.4,1.3,0.3,1.8,0s1-0.8,1.4-1.3c0.7-0.9,1.3-1.8,1.9-2.8c-0.6,2-0.9,4.5-0.6,6.6   c0,0.3,0.1,0.6,0.3,0.9c0.3,0.5,1,0.6,1.6,0.5c0.6-0.1,1.1-0.5,1.5-0.9c1.8-1.6,3.4-3.5,4.9-5.4c0.6-0.8,1.3-1.6,1.9-2.5   c-0.4,0.5,1.1,2.1,1.4,2.3c0.9,0.5,2.1,0.1,2.8-0.5c0.7-0.6,1.2-1.5,1.7-2.4c-0.3,2.3-0.6,4.6-1,6.9c-0.1,0.5-0.2,1-0.4,1.5   c-0.2,0.4-0.5,0.7-0.9,1c-1.7,1.7-3.5,3.4-5.2,5.2c-1.4,1.5-2.6,3.3-2.9,5.3c-0.2,1.2,0,2.5,0.9,3.2c0.9,0.7,2.1,0.6,3.1,0.3   c3.1-0.9,5-3.7,6.1-6.6c1.1-2.8,1.6-5.7,2-8.7c0.1-0.7,0.2-1.4,0.5-2c0.2-0.4,0.6-0.8,1-1.1c2.6-2.5,4.7-5.6,6-9   C186,19.4,185.8,19.3,185.7,19.4z M124.3,24.2l0.9-1.7c0.1-0.2,0.2-0.3,0.3-0.5c0.1-0.1,0.2-0.3,0.3-0.4c0.1-0.1,0.2-0.2,0.2-0.3   c0.1-0.1,0.2-0.2,0.2-0.3c0.1-0.3,0.3-0.5,0.5-0.7c0.2-0.2,0.5-0.3,0.7-0.4c0.3-0.2,0.5-0.1,0.6,0.2c0.2,0.3,0.2,0.7,0.2,1   c0,0.3-0.1,0.6-0.2,1c-0.1,0.4-0.3,0.7-0.6,1c-0.2,0.3-0.5,0.6-0.7,0.8c-0.2,0.2-0.5,0.4-0.8,0.5c-0.3,0.2-0.6,0.3-0.8,0.5   c-0.2,0.1-0.3,0.1-0.5,0.1c-0.2,0-0.4,0-0.6,0.2c-0.1-0.2-0.1-0.4,0-0.5C124.2,24.5,124.2,24.3,124.3,24.2z M141.4,19.7   c0,0.2-0.1,0.4-0.3,0.5c-0.1,0-0.1,0.1-0.1,0.1c0,0.1,0,0.1,0,0.2c0,0.2-0.1,0.3-0.1,0.5c-0.1,0.1-0.2,0.3-0.3,0.4   c-0.1,0.2-0.3,0.4-0.4,0.6c-0.1,0.2-0.3,0.4-0.4,0.6c-0.1,0.2-0.2,0.4-0.4,0.6c-0.1,0.2-0.3,0.3-0.4,0.5c-0.4,0.5-0.8,1.1-1.2,1.6   c-0.4,0.5-0.9,1-1.3,1.5c-0.2,0.2-0.4,0.4-0.6,0.5c-0.2,0.2-0.5,0.3-0.7,0.5c-0.3,0.2-0.6,0.3-1,0.2c-0.4,0-0.6,0-0.7-0.1   c-0.1-0.1-0.1-0.3-0.1-0.7c0-0.4,0.1-0.7,0.2-1.1c0.1-0.3,0.2-0.7,0.3-1c0.1-0.3,0.2-0.6,0.3-0.8c0.1-0.3,0.3-0.5,0.4-0.8   c0.4-0.8,0.9-1.5,1.4-2.1c0.5-0.6,1-1.1,1.5-1.5c0.5-0.5,1.1-0.9,1.7-1.3c0.2-0.1,0.4-0.2,0.6-0.2c0.2,0,0.4-0.1,0.6-0.2   c0.1,0,0.2,0,0.3,0.1c0.1,0.1,0.2,0.2,0.3,0.3c0.1,0.1,0.2,0.2,0.2,0.4c0.1,0.1,0.1,0.2,0.1,0.3C141.4,19.3,141.4,19.5,141.4,19.7z    M175.2,34.3c-0.1,1-0.5,2.1-0.7,2.9c-0.3,1.4-0.7,2.9-1.2,4.3c-0.6,1.8-1.6,4-3.8,4.3c-0.7,0.1-1.6-0.2-2-0.7   c-0.7-0.8-0.5-2.1-0.1-3.1c0.6-1.4,1.6-2.6,2.6-3.7c1.4-1.5,3.2-2.8,4.4-4.4c0.1-0.1,0.1-0.2,0.2-0.2c0.1-0.2,0.3-0.4,0.5-0.4   C175.2,33.4,175.2,33.8,175.2,34.3z"
   class="st0" />
	<path
   id="path102"
   d="M193.2,17.5c-1.2-0.4-2-0.8-4.6-0.7c0,0,0,0,0.1,0c4.5-3.2,9.4,2.8,10.1,4c-3.3-1.1-12.7,0-11-3.1   C190,17.1,192.1,17.3,193.2,17.5z"
   class="st1" />
</g>
</svg>