<svg width="1039" height="243" viewBox="0 0 1039 243" fill="none" xmlns="http://www.w3.org/2000/svg">
<path fill-rule="evenodd" clip-rule="evenodd" d="M996.198 43.9148C995.663 43.3625 988.708 52.1995 982.824 66.0073C982.824 66.0073 982.824 66.0073 982.824 65.4549C976.939 35.6301 1011.71 22.927 1022.41 20.1654C1007.43 34.5255 1008.5 77.6058 984.964 71.5304C989.778 60.4841 994.058 48.3333 996.198 43.9148Z" fill="white"/>
<path fill-rule="evenodd" clip-rule="evenodd" d="M962.495 57.7227C966.775 61.5888 969.984 64.3504 974.799 75.3966C974.799 75.3966 974.799 75.3966 974.799 74.8443C978.009 49.438 943.771 42.2579 937.886 42.2579C949.12 53.3042 961.425 92.5183 973.729 80.3674C971.054 69.8735 965.705 61.5888 962.495 57.7227Z" fill="white"/>
<path d="M118.303 131.733C117.234 128.971 116.164 126.762 114.559 124.553C111.349 120.134 106.534 117.372 101.719 115.163C100.649 114.611 86.205 112.402 86.205 112.954C85.67 110.192 85.67 107.983 86.205 105.222C89.4148 89.2046 89.4148 73.1876 93.6946 57.1705C94.2296 54.9613 94.7646 53.3043 95.8345 51.6474C97.9744 48.8859 103.859 49.4382 107.069 48.8859C111.884 47.7812 116.164 45.0197 118.303 41.1535C119.373 39.4966 119.908 37.2873 119.908 35.6304C119.908 33.9735 118.838 32.3165 117.234 31.7642C115.629 30.6596 114.559 30.1073 112.954 29.0026C111.349 28.4503 109.744 27.898 108.139 28.4503C105.464 28.4503 102.789 29.0026 100.114 29.555C97.4394 30.1073 94.7646 30.6596 92.0897 32.3165C91.5547 32.8688 91.0197 32.8688 91.0197 32.8688C90.4848 32.8688 89.9498 33.4211 89.9498 33.4211C87.2749 36.1827 82.9951 44.4674 79.7853 45.572C79.2503 46.1243 78.1803 45.572 77.1104 45.572C70.6907 44.4674 64.8059 42.8104 58.3862 42.8104C50.8966 43.3627 43.9419 46.6766 41.802 54.409C41.802 55.5136 41.802 56.6182 42.872 57.7228C43.4069 58.2752 43.4069 58.2752 43.9419 58.2752C44.4769 58.2752 44.4769 58.2752 45.0119 57.7228C46.0818 54.409 49.2917 49.4382 52.5015 47.7812C55.1764 46.6766 58.3862 46.6766 61.5961 46.6766C67.4808 47.2289 73.3656 47.7812 78.1803 51.0951C76.0404 53.8567 74.9705 61.589 73.9005 65.4552C72.8306 70.426 71.7606 74.8445 70.6907 79.8153C68.5508 90.3092 68.5508 101.908 65.3409 111.849C64.8059 112.954 64.8059 114.611 65.3409 116.268C65.3409 116.82 64.8059 117.372 64.271 117.925C37.5222 131.18 13.4483 160.453 3.81876 189.173C1.67885 195.801 0.0739293 202.981 0.608905 210.161C1.14388 217.341 4.35373 224.521 10.2385 228.387C14.5183 231.149 19.868 231.701 25.2178 231.701C47.6867 230.044 64.8059 210.161 72.8306 190.278C81.9252 168.185 80.8552 145.54 85.67 122.896C85.67 122.343 86.205 121.791 86.205 121.239C86.7399 120.686 87.2749 120.686 88.3449 120.686C93.6946 120.134 99.0444 121.239 103.324 124C108.139 126.762 111.884 131.18 112.954 136.151C114.024 140.57 112.954 143.883 111.349 148.302C110.814 149.959 109.209 151.063 110.279 153.273C114.024 158.796 118.303 144.988 118.838 142.779C119.908 138.913 119.373 135.046 118.303 131.733ZM97.4394 43.9151C99.0444 42.2581 101.184 40.6012 102.789 38.9443C104.929 37.8396 107.069 36.735 109.209 36.1827C110.279 36.1827 110.814 36.1827 111.349 36.735C111.884 37.2873 112.419 37.8396 112.419 38.3919C112.419 39.4966 112.419 40.0489 111.884 40.6012C111.349 41.1535 110.279 41.7058 109.744 42.2581C109.209 42.8104 108.139 43.3627 107.604 43.3627C105.999 43.9151 104.394 43.9151 103.324 44.4674C101.719 45.0197 100.114 45.572 99.0444 45.572C97.9744 46.1243 97.4394 45.572 96.9045 45.0197C96.3695 45.0197 96.9045 44.4674 97.4394 43.9151ZM64.271 133.389C62.666 154.93 58.9212 175.365 49.8266 195.248C47.1518 201.324 43.9419 206.847 39.1271 211.265C29.4976 220.102 9.70349 220.102 9.16851 202.981C9.16851 198.562 10.2385 194.144 11.3084 190.278C15.5882 175.917 23.6128 162.11 33.7774 151.616C36.4523 148.854 39.1271 146.093 42.337 143.331C44.4769 141.674 46.0818 140.017 48.2217 138.36C53.0365 134.494 58.9212 130.628 65.3409 128.419C64.8059 129.523 64.8059 131.18 64.271 133.389Z" fill="white"/>
<path d="M315.174 117.925C314.104 117.925 313.034 119.029 312.499 119.582C299.66 137.808 286.286 156.034 271.841 172.604C269.166 175.917 266.492 178.679 262.212 179.784C262.747 163.767 267.027 147.75 271.841 132.285C275.586 119.029 279.866 106.326 284.681 93.623C285.216 92.5184 285.216 91.4138 286.286 90.3091C288.961 86.9953 294.845 88.6522 299.125 86.443C300.73 85.3383 301.8 83.1291 300.195 82.0245C299.66 81.4722 298.59 81.4722 297.52 81.4722C294.845 82.0245 291.635 82.0245 288.961 82.5768C288.426 77.606 293.775 72.0829 291.1 67.6644C288.961 63.7982 282.541 65.4551 280.401 69.3213C277.726 73.1875 277.191 77.606 275.051 81.4722C269.166 80.9198 263.282 80.9198 257.397 80.3675C252.047 79.8152 245.628 80.3675 244.023 85.3383C253.117 84.2337 262.747 85.3383 271.841 89.2045C268.097 99.6984 264.352 110.192 260.072 120.686C259.002 124 257.397 127.314 255.792 130.076C253.652 133.389 250.442 135.599 247.767 137.808C242.953 141.122 237.603 144.436 232.253 146.645C228.508 141.674 225.298 136.151 223.694 130.076C222.089 124 222.624 116.82 226.903 112.402C229.578 109.64 233.858 106.878 233.858 103.012C233.858 100.803 231.718 98.5938 229.043 98.0415C226.903 97.4892 224.229 98.0415 222.089 99.1461C215.669 101.908 211.389 107.983 209.784 115.163C209.249 118.477 209.249 121.791 208.714 124.552C207.644 128.419 206.039 131.733 203.899 135.599C199.085 143.883 194.27 151.616 189.455 159.348C188.92 160.453 187.85 161.557 186.78 161.557C185.175 161.557 184.64 159.348 184.105 158.243C183.035 150.511 183.57 142.226 186.245 135.046C187.85 130.628 189.455 125.657 186.245 122.343C183.57 119.582 178.221 120.686 175.546 124C172.871 127.314 172.336 131.733 171.266 135.599C169.126 143.331 165.916 149.959 161.101 156.587C158.427 159.9 154.147 162.662 151.472 160.453C150.402 159.348 149.867 157.691 149.332 156.034C146.657 144.988 148.262 132.837 153.077 122.343C154.147 120.134 155.752 117.372 156.287 114.611C156.822 111.849 156.822 108.535 154.682 106.878C152.007 104.117 147.727 104.669 144.517 107.431C141.842 109.64 140.237 113.506 138.632 116.82C135.423 125.105 131.678 133.389 130.608 142.779C129.538 149.959 130.073 160.453 134.353 166.528C139.167 172.604 149.332 170.947 154.682 167.08C160.032 163.767 164.311 158.243 168.056 152.72C167.521 156.587 167.521 161.005 168.591 164.871C169.661 168.737 172.871 172.604 177.151 172.604C184.64 173.156 189.455 163.214 193.2 158.243C198.55 149.406 204.434 140.569 209.784 131.733C214.064 138.36 217.274 144.988 219.949 152.72C215.669 154.93 210.854 157.139 207.644 161.557C204.434 165.976 203.365 171.499 206.039 175.917C208.714 180.336 214.599 181.441 219.949 180.336C231.718 177.022 236.533 163.214 232.788 151.616C240.813 148.302 248.302 143.331 255.257 137.256C250.977 150.511 248.302 164.871 248.837 178.679C248.837 182.545 249.372 187.516 253.117 189.725C255.792 191.382 258.467 190.83 261.142 189.725C265.957 187.516 270.236 183.65 273.981 179.231C289.496 162.11 303.405 143.331 315.709 124C316.244 121.239 316.779 118.477 315.174 117.925ZM217.809 173.156C217.274 173.708 216.739 173.708 216.204 173.708C214.599 174.26 212.459 174.813 210.854 174.26C208.179 173.156 207.644 169.29 208.714 166.528C209.784 163.214 213.529 160.453 216.739 158.796C217.274 158.796 217.274 158.243 217.809 157.691C218.344 157.139 218.879 156.587 219.949 156.587C224.229 156.587 221.019 168.737 219.949 170.947C218.879 172.051 218.344 172.604 217.809 173.156Z" fill="white"/>
<path d="M465.503 114.058C464.433 109.64 461.223 116.268 460.688 117.372C459.083 121.791 458.013 125.657 456.408 130.075C453.198 138.912 448.918 147.197 444.103 154.929C441.429 159.348 437.149 163.766 432.334 163.214C429.124 162.662 426.449 159.9 425.379 156.586C424.309 153.272 424.309 149.959 424.844 146.645C425.914 133.389 429.124 120.686 433.939 108.535C435.544 105.221 436.614 101.355 436.614 97.489C436.614 93.6228 433.939 90.8613 430.194 90.309C425.379 89.7567 422.17 94.7275 419.495 98.0413L418.96 98.5936C418.425 98.5936 418.425 98.5937 417.89 98.0413C407.725 86.9951 396.491 90.309 386.326 99.6983C379.371 106.326 372.952 114.058 368.672 122.895C363.322 133.942 355.833 156.586 373.487 161.557C377.767 162.662 382.581 160.453 386.326 158.243C391.141 154.929 395.956 151.616 399.701 147.197C403.445 143.331 406.12 137.255 410.4 133.942C410.4 134.494 410.4 134.494 410.4 135.046C407.725 145.54 407.725 159.348 417.355 165.976C424.309 170.946 433.939 170.946 440.894 165.423C444.103 163.214 446.243 159.9 448.383 156.586C455.338 144.988 460.153 131.732 464.968 119.029C465.503 117.925 466.037 115.163 465.503 114.058ZM416.285 109.64C415.75 111.297 415.215 112.954 414.145 114.611C408.26 126.762 400.235 137.255 391.676 147.197C387.396 151.616 382.046 156.586 375.627 154.929C375.092 154.929 374.557 154.377 374.022 153.825C373.487 153.272 373.487 152.72 373.487 152.168C373.487 148.854 374.022 145.54 375.092 142.226C379.906 125.657 391.141 111.297 405.585 102.46C406.655 101.908 407.725 101.355 408.795 101.355C412.54 100.803 416.285 100.803 416.285 106.326C416.82 107.431 416.82 108.535 416.285 109.64Z" fill="white"/>
<path d="M613.691 104.117V103.565C613.691 100.803 613.691 98.0415 613.156 95.2799C612.086 90.8614 610.481 85.8906 608.341 82.0244C606.201 78.1583 602.456 73.1875 598.711 70.9782C596.571 69.8736 594.967 68.769 592.827 67.6643C591.757 66.5597 590.152 66.0074 588.547 65.4551C586.942 64.9028 585.337 64.3505 584.267 63.2458C583.732 63.2458 583.197 62.6935 582.662 62.6935C581.592 62.6935 580.522 62.6935 579.452 62.1412C578.382 61.5889 577.312 61.0366 576.242 61.0366C577.312 60.4843 577.847 59.932 578.382 59.932C585.872 53.8566 594.432 48.8857 599.781 40.0488C604.596 32.3164 606.201 20.7179 600.316 12.9855C598.176 10.2239 596.037 7.4624 593.362 5.25315C592.827 4.70084 592.292 4.70084 591.757 4.70084C589.617 3.59621 588.012 3.0439 585.872 2.49159C583.732 1.93928 581.592 1.38696 579.452 0.834652C577.312 0.28234 575.172 0.282349 573.033 0.282349C570.893 0.282349 568.753 0.28234 566.613 0.834652C552.704 2.49159 539.329 6.35777 526.49 12.4332C524.35 13.5378 522.21 14.6424 521.14 16.8517C520.07 19.0609 520.07 21.8225 522.21 22.9271C523.815 23.4794 525.42 22.9271 527.025 22.3748C542.539 16.2994 558.588 9.67164 575.172 10.2239C581.592 10.2239 589.082 11.8809 592.827 17.404C593.362 18.5086 593.897 19.0609 593.897 20.1656C593.897 21.2702 593.362 22.3748 592.827 23.4794C589.617 30.1072 584.267 35.6303 577.847 40.0488C574.638 42.258 570.893 44.4673 567.148 46.6765C561.263 49.9904 555.378 52.7519 548.959 55.5135C548.959 50.5427 552.169 46.1242 554.308 41.1534C556.448 36.1826 558.053 30.6595 555.378 26.7933C553.239 23.4794 549.494 21.8225 545.749 22.9271C540.934 24.584 538.259 30.1072 536.654 35.078C526.49 64.9028 519.535 95.2799 515.79 126.762C515.79 128.419 515.255 130.076 514.72 131.732C514.185 137.256 519.535 142.226 523.815 143.883C524.35 143.883 524.885 144.436 525.42 144.436C525.955 144.436 527.025 143.883 527.56 143.331C529.7 141.122 530.235 138.36 530.77 135.599C532.374 127.866 533.979 120.134 535.584 111.849C536.654 106.878 537.724 101.355 538.794 96.3845C539.864 91.4137 540.399 85.8906 542.539 80.9198C543.074 79.2629 544.679 78.1582 546.284 77.0536C550.029 74.2921 554.843 72.6351 559.658 71.5305C562.333 70.9782 564.473 70.4259 567.148 70.4259C568.753 70.4259 570.358 69.8736 571.963 70.4259C575.707 70.4259 579.452 71.5305 582.662 73.7398C589.082 77.0536 594.432 82.5768 597.106 89.7568C598.176 93.0707 598.711 95.8322 599.246 99.1461C599.781 107.983 598.176 117.372 594.432 125.105C590.687 133.389 585.337 140.569 579.452 147.197C578.917 147.749 578.382 148.302 577.847 148.302C576.777 148.854 575.172 148.302 574.103 147.75C555.378 138.913 532.909 151.616 522.21 168.185C521.14 169.842 520.07 171.499 519 172.604C519 173.156 518.465 173.156 518.465 173.708C518.465 174.26 518.465 174.26 518.465 174.813C517.93 176.47 517.395 178.127 516.86 179.784C515.79 182.545 515.255 185.859 515.255 189.173C515.255 193.591 516.86 197.458 521.14 199.114C522.21 199.667 523.815 199.667 524.885 199.667C529.7 199.667 533.979 199.114 538.794 197.458C554.843 191.934 569.823 181.993 581.592 168.737C582.662 167.633 583.732 167.08 584.802 167.633C584.802 168.185 585.337 168.185 585.337 168.737C586.407 173.156 586.942 177.022 588.012 181.44C588.012 181.993 588.547 183.097 589.082 183.65C590.687 185.307 592.292 183.65 592.292 181.993C592.292 177.574 591.757 173.156 590.152 169.29C589.617 167.633 588.547 165.976 588.547 163.767C589.082 161.557 590.687 159.9 591.757 158.243C601.386 147.749 608.341 135.599 612.086 122.343C612.621 115.715 613.691 110.192 613.691 104.117ZM566.078 158.796C561.798 162.662 556.983 165.976 552.704 169.842C552.169 170.394 551.634 170.394 551.099 170.947C550.564 170.947 550.029 170.947 549.494 171.499C548.959 171.499 547.889 172.604 547.354 173.156C544.144 175.917 539.864 178.127 535.584 178.679C533.979 178.679 532.374 178.679 530.77 177.574C529.165 175.917 529.7 172.603 530.77 170.947C537.189 158.243 555.378 144.988 569.288 153.273C569.823 153.825 570.358 153.825 570.358 154.377C569.288 155.482 567.683 157.139 566.078 158.796Z" fill="white"/>
<path d="M968.379 96.3844C966.239 96.9367 964.099 100.251 963.029 102.46C956.075 117.925 946.445 132.285 934.141 143.883C935.211 130.075 936.816 116.82 937.886 103.012C937.886 101.355 938.421 99.146 937.886 97.489C937.351 95.8321 936.281 94.1752 934.141 93.6229C932.536 93.6229 930.931 94.1752 929.861 95.2798C920.231 103.012 916.487 115.715 908.462 125.105C906.857 126.762 904.182 128.418 902.577 126.762C902.042 126.209 902.042 125.105 901.507 124.552C900.437 118.477 902.042 111.849 904.182 106.326C906.322 100.803 911.137 96.3844 912.742 90.309C913.277 88.0998 913.812 85.8905 912.742 83.6813C911.672 80.3674 908.462 77.6058 905.252 78.7105C903.647 79.2628 902.042 80.9197 900.437 82.0243C896.158 87.5474 892.413 94.1752 890.808 100.803C889.738 104.669 889.738 109.088 887.598 112.401C886.528 114.058 885.458 115.715 884.388 117.372C875.829 127.866 867.804 138.36 859.244 148.854C857.104 151.616 854.964 154.377 852.29 156.034C848.01 158.796 848.01 157.691 848.01 153.273C848.01 152.168 848.01 151.063 848.545 149.959C850.685 135.046 854.429 120.134 858.709 105.221C860.849 97.4891 863.524 90.309 866.199 83.129C867.269 80.3674 870.479 66.5596 873.689 66.5596C877.433 66.5596 882.248 66.0073 884.923 63.7981C885.993 62.6934 887.063 61.0365 885.993 59.9319C885.458 59.3796 884.923 59.3796 884.388 59.3796C883.318 59.3796 874.224 59.9319 874.224 59.9319C874.224 58.2749 874.224 57.1703 875.294 55.5134C875.294 54.4088 875.829 53.8565 876.363 52.7518C877.433 49.9903 877.968 46.6764 875.828 44.4672C874.224 42.8102 871.549 42.2579 869.409 43.3625C866.734 44.4672 865.664 46.6764 864.594 49.438C863.524 52.1995 862.454 57.7226 859.779 59.3796C858.174 59.9319 856.569 59.3796 854.964 58.8272C853.36 58.2749 851.755 58.2749 850.15 58.2749C846.405 58.2749 843.195 57.7226 839.45 57.7226C837.31 57.7226 833.03 58.2749 831.426 59.9319C830.891 61.0365 829.821 61.5888 828.751 62.6934C829.286 62.1411 841.59 63.7981 843.195 63.7981C848.01 64.3504 852.825 65.455 857.639 66.5596C856.569 67.1119 856.034 67.6642 856.034 68.7689C856.034 69.8735 856.034 70.4258 854.964 70.9781C853.895 71.5304 853.895 72.635 853.895 73.7397C853.895 74.292 853.895 74.8443 853.895 75.3966C850.15 82.0243 848.01 89.7567 845.87 96.3844C844.265 101.355 842.125 106.878 839.985 111.297C835.705 119.029 831.426 127.314 826.076 134.494C825.006 135.599 823.936 136.703 822.866 136.151C822.331 135.599 821.796 135.046 821.796 133.942C819.656 123.448 821.796 112.401 825.006 102.46C825.541 100.803 826.076 99.146 825.006 98.0414C824.471 97.4891 823.936 96.9367 822.866 96.3844C820.726 95.2798 818.051 94.1752 815.911 94.7275C814.306 95.2798 813.771 96.9367 812.701 98.0414C810.026 103.012 808.957 108.535 807.352 114.058C805.212 121.238 801.467 125.657 797.722 131.18C796.652 132.837 795.047 134.494 793.442 135.046C791.302 135.599 789.697 134.494 788.627 132.837C787.558 131.18 787.023 128.971 786.488 127.314C784.348 115.715 787.558 103.012 792.907 92.5183C793.977 90.8613 794.512 89.2044 795.047 86.9951C795.582 83.129 791.837 78.7105 787.558 78.7105C782.743 78.7105 778.998 84.2336 776.858 88.6521C773.113 96.9367 769.903 105.221 768.833 114.611C767.763 125.657 765.089 135.599 757.599 143.883C754.389 147.749 748.504 149.406 744.76 147.197C740.48 144.436 740.48 138.36 741.015 132.837C742.62 118.477 745.829 104.117 751.179 90.8613C752.784 86.4428 754.389 80.9197 751.179 77.6058C745.829 72.0827 734.595 83.6813 735.13 84.2336C734.595 83.6813 734.06 83.1289 733.525 82.5766C732.99 82.0243 732.455 81.472 731.92 80.9197C723.361 69.8735 708.916 78.1582 700.892 85.8905C689.122 97.4891 683.772 110.192 677.888 125.105C676.818 128.418 674.678 131.18 673.073 133.942C669.328 140.017 664.513 146.092 659.698 150.511C655.419 154.377 650.604 157.691 645.254 158.796C642.044 159.9 637.764 159.348 635.625 156.034C635.09 154.929 635.09 153.825 634.555 152.168C634.02 144.988 634.555 137.808 636.695 130.628C636.695 130.075 637.229 128.971 637.764 128.418C638.299 127.866 639.904 127.314 640.974 127.314C651.139 125.657 660.233 118.477 664.513 108.535C667.188 101.908 666.653 93.0706 661.303 89.2044C654.349 84.2336 642.044 88.6521 636.695 94.1752C625.46 105.221 620.11 122.895 619.575 138.36C619.575 145.54 620.645 153.272 624.925 158.243C633.485 167.633 647.929 164.871 657.024 158.243C661.838 154.929 665.583 150.511 669.328 145.54C670.398 143.883 678.958 133.389 678.423 132.285C679.493 133.942 679.493 136.151 680.562 138.36C683.772 142.779 686.982 146.092 692.867 145.54C696.612 145.54 699.822 143.883 703.031 141.674C712.126 135.599 719.081 126.762 725.5 117.925C724.965 126.762 723.361 135.599 727.64 143.883C731.385 150.511 737.805 154.377 744.76 153.825C745.829 153.825 746.364 153.825 747.434 153.825C747.969 153.825 749.039 153.825 749.574 153.825C750.644 153.825 751.714 153.272 752.249 152.72C760.274 148.302 765.089 140.017 768.833 131.732C769.903 137.808 774.183 142.226 780.068 142.779C785.418 143.331 790.767 141.122 795.047 137.255C799.327 133.942 802.537 129.523 805.747 124.552C803.072 127.866 806.817 140.569 810.026 142.779C812.701 144.988 816.981 144.436 819.656 142.779C822.866 141.122 825.006 138.36 827.146 135.599C830.891 130.628 834.1 125.657 837.31 120.134C834.1 131.18 832.495 144.988 834.1 156.586C834.1 158.243 834.635 159.9 835.705 161.557C837.31 164.319 841.055 164.871 844.265 164.319C847.475 163.766 850.15 161.557 852.29 159.348C861.919 150.511 870.479 140.017 878.503 129.523C881.713 125.105 885.458 120.686 888.668 115.715C886.528 118.477 894.553 127.314 896.158 128.418C900.972 131.18 907.392 128.971 911.137 125.657C914.882 122.343 917.557 117.372 920.231 112.401C918.627 125.105 917.022 137.808 914.882 150.511C914.347 153.273 913.812 156.034 912.742 158.796C911.672 161.005 910.067 162.662 907.927 164.319C898.832 173.708 889.203 183.097 880.108 193.039C872.619 201.324 866.199 211.265 864.594 222.311C863.524 228.939 864.594 236.119 869.409 239.985C874.224 243.852 880.643 243.299 885.993 241.642C902.577 236.672 912.742 221.207 918.626 205.19C924.511 189.725 927.186 173.708 929.326 157.139C929.861 153.272 930.396 149.406 932.001 146.092C933.071 143.883 935.211 141.674 937.351 140.017C951.26 126.209 962.494 109.088 969.449 90.309C969.449 96.3844 968.914 96.3844 968.379 96.3844ZM639.904 122.895L644.719 113.506C645.254 112.401 645.789 111.849 646.324 110.745C646.859 110.192 647.394 109.088 647.929 108.535C648.464 107.983 648.999 107.431 648.999 106.878C649.534 106.326 650.069 105.774 650.069 105.221C650.604 103.564 651.674 102.46 652.744 101.355C653.814 100.251 655.419 99.6983 656.489 99.146C658.094 98.0414 659.163 98.5937 659.698 100.251C660.768 101.908 660.768 104.117 660.768 105.774C660.768 107.431 660.233 109.088 659.698 111.297C659.163 113.506 658.094 115.163 656.489 116.82C655.419 118.477 653.814 120.134 652.744 121.238C651.674 122.343 650.069 123.448 648.464 124C646.859 125.105 645.254 125.657 644.184 126.762C643.114 127.314 642.579 127.314 641.509 127.314C640.439 127.314 639.369 127.314 638.299 128.418C637.764 127.314 637.764 126.209 638.299 125.657C638.834 124.552 639.369 124 639.904 122.895ZM731.385 98.5937C731.385 99.6983 730.85 100.803 729.78 101.355C729.245 101.355 729.245 101.908 729.245 101.908C729.245 102.46 729.245 102.46 729.245 103.012C729.245 104.117 728.71 104.669 728.71 105.774C728.175 106.326 727.64 107.431 727.105 107.983C726.57 109.088 725.5 110.192 724.965 111.297C724.43 112.401 723.361 113.506 722.826 114.611C722.291 115.715 721.756 116.82 720.686 117.925C720.151 119.029 719.081 119.582 718.546 120.686C716.406 123.448 714.266 126.762 712.126 129.523C709.986 132.285 707.311 135.046 705.171 137.808C704.101 138.912 703.031 140.017 701.961 140.569C700.892 141.674 699.287 142.226 698.217 143.331C696.612 144.436 695.007 144.988 692.867 144.436C690.727 144.436 689.657 144.436 689.122 143.883C688.587 143.331 688.587 142.226 688.587 140.017C688.587 137.808 689.122 136.151 689.657 133.942C690.192 132.285 690.727 130.075 691.262 128.418C691.797 126.762 692.332 125.105 692.867 124C693.402 122.343 694.472 121.238 695.007 119.582C697.147 115.163 699.822 111.297 702.496 107.983C705.171 104.669 707.846 101.908 710.521 99.6983C713.196 97.4891 716.406 94.7275 719.616 92.5183C720.686 91.9659 721.756 91.4136 722.826 91.4136C723.896 91.4136 724.965 90.8613 726.035 90.309C726.57 90.309 727.105 90.309 727.64 90.8613C728.175 91.4136 728.71 91.9659 729.245 92.5183C729.78 93.0706 730.315 93.6229 730.315 94.7275C730.85 95.2798 730.85 95.8321 730.85 96.3844C731.385 96.3844 731.385 97.489 731.385 98.5937ZM912.207 178.679C911.672 184.202 909.532 190.277 908.462 194.696C906.857 202.428 904.717 210.713 902.042 218.445C898.832 228.387 893.483 240.538 881.713 242.195C877.968 242.747 873.154 241.09 871.014 238.328C867.269 233.91 868.339 226.73 870.479 221.207C873.689 213.474 879.038 206.847 884.388 200.771C891.878 192.487 901.507 185.307 907.927 176.47C908.462 175.917 908.462 175.365 908.997 175.365C909.532 174.26 910.602 173.156 911.672 173.156C912.207 174.26 912.207 176.47 912.207 178.679Z" fill="white"/>
<path fill-rule="evenodd" clip-rule="evenodd" d="M1008.5 85.8908C1002.08 83.6816 997.803 81.4723 983.894 82.0246C983.894 82.0246 983.894 82.0246 984.429 82.0246C1008.5 64.3507 1034.72 97.4894 1038.46 104.117C1020.81 98.0417 970.519 104.117 979.614 86.9954C990.848 83.6816 1002.08 85.3385 1008.5 85.8908Z" fill="white"/>
</svg>
