<?xml version="1.0" encoding="UTF-8" standalone="no"?>
<svg
   xmlns:dc="http://purl.org/dc/elements/1.1/"
   xmlns:cc="http://creativecommons.org/ns#"
   xmlns:rdf="http://www.w3.org/1999/02/22-rdf-syntax-ns#"
   xmlns:svg="http://www.w3.org/2000/svg"
   xmlns="http://www.w3.org/2000/svg"
   xml:space="preserve"
   style="enable-background:new 0 0 82.2 82.2;"
   viewBox="0 0 82.2 82.2"
   y="0px"
   x="0px"
   id="Calque_1"
   version="1.1"><metadata
   id="metadata15"><rdf:RDF><cc:Work
       rdf:about=""><dc:format>image/svg+xml</dc:format><dc:type
         rdf:resource="http://purl.org/dc/dcmitype/StillImage" /></cc:Work></rdf:RDF></metadata><defs
   id="defs13" />
<style
   id="style2"
   type="text/css">
	.st0{fill:#E6007E;}
	.st1{fill:#FFFFFF;}
</style>
<g
   id="g8">
	
		<ellipse
   id="ellipse4"
   ry="41.1"
   rx="41.1"
   cy="40.1"
   cx="41.1"
   class="st0"
   transform="matrix(0.9973 -7.313513e-02 7.313513e-02 0.9973 -2.8244 3.1135)" />
	<path
   id="path6"
   d="M66.6,35.6C66,36.1,65.5,36,65,35.3c-0.6-0.9-1.2-1.8-2-2.6c-3.1-3.4-6.4-6.7-9.5-10.1   c-1.7-1.9-3.6-2.1-5.8-1.4c-2.5,0.8-4.3,2.5-5.6,4.8c-1.9,3.2-3.9,6.3-6.4,9c-0.9,1-1.8,1.9-2.6,2.9c0.4-0.1,0.8-0.3,1-0.6   c1.5-1.4,3-2.7,4.5-4.1c1.1-1,2.1-1,3.1,0.2c0.8,1,1.5,1.9,2.2,2.9c0.6,0.8,0.4,1.5-0.1,2.3c-0.1,0.2-0.2,0.3-0.3,0.5   c1.9-1.2,3.2-2.8,3.9-4.9c0.5-1.8,0.6-3.6,0.3-5.4c0-0.3,0.3-0.7,0.5-1.1c0.3,0.3,0.9,0.5,0.9,0.8c0.2,1,0.2,2.1,0.3,3.1   c0,0.5,0.1,0.9,0.3,1.3c1,2,2.3,4,3.1,6.1c2.4,6.3,5.6,12.2,9.4,17.8c0.5,0.7,1,1.4,1.4,2.1c0.1,0.3,0,0.8-0.1,1.1   c-0.4-0.1-0.8-0.2-1.1-0.3c-0.1,0-0.2-0.2-0.2-0.3c-2.5-4.3-5.1-8.5-7.6-12.8c-0.9-1.5-1.5-3.2-2.3-5c-1.8,1.4-3.4,2.7-5.1,4   c0.5,0.2,0.9,0.3,1.2,0.2c1-0.2,2.1-0.4,3.1-0.5c0.3,0,0.6,0.2,0.8,0.4c-0.2,0.3-0.3,0.6-0.5,0.8c-0.3,0.2-0.6,0.2-1,0.3   c-3.2,0.7-6.4,0.3-9.6-0.2c-3.3-0.5-6.5-1.1-9.8-1.7c0.3,0.4,0.7,0.8,1.2,1c0.7,0.3,1.4,0.5,2.1,0.7c1.2,0.3,1.8,0.9,1.6,1.6   c-0.2,1-1.1,1.2-1.9,1.1c-1.2,0-2.4-0.2-3.6-0.4c-0.5-0.1-0.9-0.5-1.3-0.8c-0.5-0.4-0.9-0.8-1.4-1.2c-0.1,0.1-0.1,0.2-0.2,0.2   c0.2,0.2,0.4,0.4,0.6,0.6c1.1,0.9,2.4,1.6,3.3,2.7c1.5,1.8,3.4,3,5.2,4.3c0.5,0.4,0.8,0.3,1.2-0.2c0.6-0.7,1.3-1.3,1.9-2   c1.8-2.2,4.2-2.8,6.8-2.5c1.6,0.2,3.1,0.7,4.6,1.1c0.2,0.1,0.3,0.6,0.4,0.9c-0.3,0.1-0.7,0.3-1,0.1c-1.7-0.9-3.5-0.9-5.3-0.9   c-0.8,0-1.2,0.2-1.3,1.1c-0.1,0.5-0.4,1.3-0.9,1.5c-0.8,0.5-1.7,0.7-2.6,0.9c-0.9,0.1-1.8,0.4-2.4,1.1c-0.4,0.5-1,0.7-1.6,0.3   c-0.6-0.4-1.2-0.4-1.7,0c-1.2,0.8-2.3,1.7-3.5,2.5c-0.8,0.6-1.6,1.2-2.5,1.5c-0.9,0.4-1.8-0.2-2.2-1.1c-0.4-0.9,0.2-1.3,0.8-1.7   c0.3-0.2,0.5-0.5,0.7-0.7c0.8-1.3,1.5-2.6,2.4-3.8c0.5-0.7,0.4-1.1-0.1-1.6c-0.4-0.4-0.9-0.7-1.5-1.1c0,1.3,0.1,2.4,0,3.5   c-0.1,1.5-1.1,2.4-2.5,2.6c-0.9,0.1-1.8,0.2-2.7,0.1c-3.9-0.2-7.5,0.7-10.6,3.2c-0.3,0.2-0.6,0.4-0.9,0.5c-0.7,0.2-1.4,0.5-2.2,0.4   c-1,0-1.5-0.7-1.7-1.7C8.7,58.3,9.4,58,10,57.7c0.4-0.2,0.7-0.5,1-0.8c0.8-1,1.5-2.2,2.5-3.1c3.9-3.6,8-7,11.8-10.8   c1.2-1.2,2.5-2.3,3.8-3.4c2-1.7,3.8-3.7,5.6-5.7c1.3-1.5,2.5-3.1,3.7-4.7c1.4-2,2.7-4.1,4.1-6c1.8-2.4,4.3-3.6,7.3-3.9   c0.5,0,1-0.4,1.4-0.7c1.3-1.1,2.5-2.3,3.9-3.2c1.9-1.2,3.3-1,5,0.5c2.4,2.2,4.1,4.9,5.7,7.7c0.1,0.3-0.1,0.8-0.2,1.1   c-0.4-0.1-0.9-0.2-1.1-0.4c-0.5-0.6-0.7-1.3-1.2-1.9c-1.5-1.9-3-3.7-4.5-5.5c-0.6-0.7-1.5-0.8-2.3-0.5c-1.7,0.7-2.9,1.8-4,3.1   c0.7,0.6,1.3,1,1.8,1.6c4.3,4.4,8.8,8.7,12.4,13.7C66.6,35,66.6,35.3,66.6,35.6z M26.9,43.9c-5.8,4.8-11.6,9.3-15.9,15.4   c0.5,0.1,0.9,0,2-0.8c2.2-1.6,4.5-2.8,7.2-3c1.7-0.2,3.5-0.2,5.2-0.2c2.2,0,2.7-0.6,2.6-2.8c-0.1-1.1-0.1-2.1-0.2-3.2   c0-0.2-0.3-0.5-0.5-0.6c-0.5-0.4-1.1-0.7-1.6-1.1c-0.2-0.2-0.6-0.6-0.5-0.8c0.1-0.3,0.5-0.6,0.8-0.7c0.7-0.2,1.4-0.2,2.3-0.3   C27.8,45.1,27.4,44.5,26.9,43.9z M29.8,45.1c0-0.6,0-1,0.1-1.4c0.2-1,1-1.2,1.7-0.6c0.4,0.3,0.7,0.6,1.1,0.9c0.8,0.5,1.5,0.5,2.3,0   c2.5-2,5-4,7.4-6c0.2-0.2,0.2-0.8,0.1-1.1c-0.5-0.8-1.2-1.5-1.7-2.3C40.3,34,40,34,39.5,34.5c-1.1,1-2.1,2-3.2,3   c-1.1,0.9-2.2,1.9-3.4,2.6c-1.3,0.8-2.7,1.3-4.1,1.8c-0.3,0.1-0.7,0.2-1.2,0.3C28.3,43.2,29,44.1,29.8,45.1z M43,41.5   c-1.2,0.8-2,2.2-3,3.3c1.7,1.3,4.4,1.2,5.9,0c1.7-1.4,3.5-2.8,5.2-4.1c0.5-0.4,0.6-0.7,0.3-1.3c-0.8-1.5-1.5-3.1-2.3-4.6   c-0.1,0-0.2,0-0.3,0C47.8,37.8,45.6,39.7,43,41.5z M34.5,54.8c-1.7-1.5-1.7-1.6-3,0.3c-0.6,0.8-1,1.7-1.5,2.5   c-0.3,0.5-0.6,0.9-0.8,1.5c1.8-1.4,3.5-2.7,5.3-4.1C34.5,54.9,34.5,54.8,34.5,54.8z M34.6,48.3c0-0.1,0-0.2,0-0.3   c-0.8-0.1-1.5-0.8-2.3-0.2c0,0.1,0,0.2,0,0.3C33.1,48.2,33.8,48.3,34.6,48.3z"
   class="st1" />
</g>
</svg>