<?xml version="1.0" encoding="UTF-8" standalone="no"?>
<svg
   xmlns:dc="http://purl.org/dc/elements/1.1/"
   xmlns:cc="http://creativecommons.org/ns#"
   xmlns:rdf="http://www.w3.org/1999/02/22-rdf-syntax-ns#"
   xmlns:svg="http://www.w3.org/2000/svg"
   xmlns="http://www.w3.org/2000/svg"
   xml:space="preserve"
   style="enable-background:new 0 0 82.2 82.2;"
   viewBox="0 0 82.2 82.2"
   y="0px"
   x="0px"
   id="Calque_1"
   version="1.1"><metadata
   id="metadata31"><rdf:RDF><cc:Work
       rdf:about=""><dc:format>image/svg+xml</dc:format><dc:type
         rdf:resource="http://purl.org/dc/dcmitype/StillImage" /></cc:Work></rdf:RDF></metadata><defs
   id="defs29" />
<style
   id="style2"
   type="text/css">
	.st0{fill:#E6007E;}
	.st1{fill:#FFFFFF;}
</style>
<g
   id="g24">
	<circle
   id="circle4"
   r="41.1"
   cy="41.1"
   cx="41"
   class="st0" />
	<g
   id="g22">
		<path
   id="path6"
   d="M36.2,45.3c-0.4-1.8-0.8-3.7-1.8-5.4c-0.9-1.5-2-2.9-3-4.4c-0.5-0.7-1.2-1.4-1.7-2.1    c-0.1-0.2-0.1-0.3-0.2-0.5c-0.8-1.1-1.5-2.2-2.3-3.3c-1-1.5-1.8-3.2-2-5c-0.2-1.2,0.1-2.3,1.2-2.9c1-0.5,2-0.9,3.1-1.1    c1.5-0.3,2.9,0.2,4.3,0.5c1.4,0.3,2.7,0.5,4.1,0.7c0.3,0,0.6-0.1,0.9-0.2c0-0.1,0-0.1,0-0.2c-0.5-0.2-1-0.3-1.5-0.5    c-1.4-0.7-3-1.1-4.5-1.3c-2.6-0.3-5.1-0.3-7.6,0.4c-0.6,0.2-0.9,0.5-1.2,1.1c-0.7,1.7-0.8,3.4-0.2,5.2c1,3.1,2.9,5.6,4.8,8.2    c0.9,1.5,1.8,3,2.7,4.4c1.6,2.3,2.7,4.7,3.1,7.5c0.2,1.4,0.7,2.8,1.4,4c0.8,1.5,1.7,3,1.7,4.8c0,1.3,0.3,2.6,0.4,3.9    c0.2,2.3-0.1,4.4-1.4,6.4c-1.1,1.8-2.2,3.6-3.2,5.4c-0.5,0.8-0.8,1.7-0.9,2.7c0.2-0.2,0.3-0.3,0.4-0.4c1.8-1.9,3.4-4,4.8-6.2    c0.9-1.5,1.7-3.2,2-4.9c0.6-3.6,0.1-7.2-1.4-10.5C37.4,49.6,36.7,47.5,36.2,45.3z"
   class="st1" />
		<path
   id="path8"
   d="M49,31.7c0.6,0.2,1.2,0.1,1.7-0.3c1.1-1.1,1.3-3.7-0.4-4.6c-1.5-0.8-3-1.8-3.9-3.3c-1.2-1.9-1.8-4-1.5-6.2    c0.3-1.6,0.7-3.1,1.1-4.6c-0.9,0.3-1.6,0.9-2.2,1.8c-1.3,1.8-1.8,3.8-1.8,6c0,3.4,0.9,6.5,3.3,9C46.3,30.3,47.5,31.3,49,31.7z"
   class="st1" />
		<path
   id="path10"
   d="M53.1,38.5c-1.4-0.3-2.9-0.5-4.3-0.7c-0.9-0.1-1.9-0.2-2.8-0.1c-0.4,0-0.9,0.4-1.2,0.7    c-0.1,0.2,0.1,0.7,0.2,1.1c-0.1,0-0.3,0-0.5,0c-0.6,0.1-1.2,0.1-1.8,0.2c-0.7,0.2-1,0.7-1,1.2c0,0.6,0.4,0.9,1.1,1.1    c0.4,0.1,0.8,0.1,1.2,0.1c0.7,0,1.4,0,2.1,0c0,0.1,0,0.1,0,0.2c-0.8,0.1-1.7,0.2-2.5,0.4c-0.7,0.1-1.4,0.3-2,0.7    c-0.3,0.1-0.6,0.6-0.6,1c0,0.3,0.4,0.7,0.7,0.9c0.2,0.2,0.6,0.2,0.9,0.2c1-0.1,2-0.2,2.9-0.3c0.5-0.1,1.1-0.1,1.6-0.1    c0,0.1,0,0.1,0,0.2c-1,0.3-2,0.4-3,0.8c-0.6,0.2-1.2,0.6-1.7,1.1c-0.5,0.6-0.2,1.4,0.6,1.5c0.7,0.1,1.4,0.1,2.1-0.1    c1.2-0.3,2.4-0.6,3.6-1c0.6-0.2,1.3-0.4,1.9-0.5c0.2,0,0.6,0,0.7,0.2c0.1,0.1,0.1,0.5,0,0.7c-0.1,0.3-0.4,0.5-0.5,0.7    c-0.3,0.3-0.6,0.6-0.8,1c-0.4,0.8-0.3,1.6,0.2,1.9c0.6,0.4,1.3,0.2,1.9-0.5c0.4-0.5,0.9-1,1.3-1.5c1.2-1.3,2.3-2.7,2.9-4.3    C57.7,42.1,56.2,39.1,53.1,38.5z M55.6,45.1C55,46.6,54,47.8,52.8,49c-0.4,0.4-0.8,0.9-1.2,1.3c-0.2,0.2-0.4,0.3-0.7,0.5    c-0.1-0.8,0.4-1.2,0.7-1.6c0.3-0.4,0.6-0.7,0.8-1.2c0.3-0.5,0.3-1-0.1-1.5c-0.4-0.5-1-0.7-1.7-0.5c-1.6,0.4-3.2,0.9-4.8,1.3    c-0.8,0.2-1.7,0.3-2.5,0.4c0-0.1-0.1-0.2-0.1-0.3c0.3-0.2,0.6-0.4,0.9-0.5c0.8-0.3,1.7-0.4,2.5-0.6c0.7-0.2,1.5-0.4,1.9-0.9    c-0.2-0.4-0.4-0.7-0.7-1.1C48,44.1,47.7,44,47.6,44c-1.1,0.1-2.3,0.2-3.4,0.3c-0.5,0-0.9,0.1-1.4,0.2c-0.2,0-0.5-0.1-0.7-0.1    c0-0.1,0-0.1,0-0.2c0.3-0.1,0.7-0.4,1-0.4c1.1-0.2,2.3-0.3,3.4-0.5c0.6-0.1,1.2-0.2,1.8-0.4c0.5-0.2,0.6-0.8,0.1-1.2    c-0.3-0.2-0.6-0.3-1-0.3c-1.2-0.1-2.4-0.1-3.6-0.2c-0.4,0-0.7-0.1-1.1-0.2c0.3-0.6,0.8-0.6,1.2-0.6c1.4,0,2.8,0.1,4.2,0.2    c0.2,0,0.5,0,0.6-0.1c0.3-0.2,0.6-0.5,0.6-0.8c0-0.5-0.4-0.6-0.8-0.7c-0.6-0.1-1.2-0.1-1.8-0.1c-0.2,0-0.5-0.1-0.7-0.1    c0-0.1,0-0.1,0-0.2c0.3,0,0.6-0.1,0.9-0.1c2,0.3,4,0.5,6,0.9C55.8,39.9,56.6,42.8,55.6,45.1z"
   class="st1" />
		<path
   id="path12"
   d="M52.1,52.6c-0.1-0.2-0.3-0.2-0.5-0.3c-0.9-0.4-1.7,0.1-1.6,1.1c0.1,0.4,0.3,0.9,0.5,1.3    c0.2,0.4,0.7,0.7,0.9,1.1c0.2,0.2,0.1,0.6,0.2,0.9c-0.3,0-0.6,0.2-0.9,0.1c-1.4-0.4-2.8-0.8-4.3-1.2c-0.9-0.2-1.7-0.3-2.6-0.4    c-0.6-0.1-1.1,0.1-1.3,0.7c-0.2,0.6,0.1,1.1,0.7,1.4c0.6,0.3,1.2,0.5,1.8,0.7c0.8,0.2,1.6,0.4,2.4,0.6c0,0.1,0,0.1,0,0.2    c-1.1-0.1-2.2-0.3-3.4-0.4c-0.7-0.1-1.4-0.1-2.1,0c-0.9,0.2-1,1.2-0.3,1.8c0.5,0.3,1.1,0.6,1.6,0.7c1.1,0.2,2.2,0.3,3.3,0.5    c-0.3,0.2-0.5,0.2-0.8,0.2c-0.7,0-1.4,0-2.1,0c-0.4,0-0.7,0.1-1.1,0.2c-0.5,0.1-0.7,0.5-0.7,1c0,0.5,0.2,0.9,0.7,1.1    c0.5,0.2,1,0.2,1.5,0.3c0.4,0,0.8,0,1.3,0c-0.1,0.2-0.2,0.3-0.2,0.3c-0.6,0.6-0.5,1.1,0.2,1.4c0.3,0.1,0.6,0.2,0.9,0.2    c2.4-0.3,4.7-0.5,7.1-0.9c1.9-0.3,3.1-1.6,3.5-3.5c0.3-1.6-0.1-3-0.8-4.4C55,55.5,53.4,54.2,52.1,52.6z M53.2,64.3    c-2.2,0.4-4.4,0.7-6.6,1c-0.2,0-0.5-0.1-0.7-0.1c0-0.1,0-0.1,0-0.2c0.6-0.1,1.2-0.2,1.8-0.3c0.2,0,0.5,0,0.7-0.1    c0.4-0.1,0.8-0.2,0.8-0.7c0-0.5-0.5-0.9-1-0.8c-0.5,0-1.1,0.1-1.6,0.2c-1,0-1.9,0.1-2.9,0c-0.4,0-0.7-0.2-1.1-0.3    c0-0.1,0-0.2,0-0.3c0.3-0.1,0.6-0.2,0.9-0.2c1.4-0.1,2.7-0.2,4.1-0.2c0.5,0,0.9-0.2,1-0.7c0.1-0.5-0.3-0.7-0.7-0.8    c-0.5-0.1-1-0.2-1.5-0.2c-1.4-0.2-2.7-0.5-4-0.7c-0.2,0-0.3-0.2-0.5-0.2c0-0.1,0-0.2,0-0.3c0.3,0,0.7,0,1,0    c1.4,0.1,2.7,0.3,4.1,0.5c0.5,0,0.9,0,1.1-0.6c0.1-0.2,0.4-0.4,0.6-0.5c-0.5-0.7-1.2-0.8-1.9-1c-0.9-0.2-1.8-0.5-2.7-0.7    c-0.3-0.1-0.6-0.3-0.8-0.5c0-0.1,0-0.2,0-0.2c0.5,0,0.9,0,1.4,0.1c1.7,0.4,3.4,0.9,5.1,1.4c0.5,0.1,1,0.3,1.5,0.2    c1-0.1,1.5-0.9,1.1-1.8c-0.2-0.5-0.6-1-0.9-1.4c-0.3-0.4-0.7-0.7-0.6-1.4c0.2,0.1,0.5,0.2,0.6,0.3c1.1,1.2,2.2,2.5,3.2,3.8    c0.7,0.8,1.1,1.8,1.2,2.9C56.1,61.8,55.3,63.9,53.2,64.3z"
   class="st1" />
		<path
   id="path14"
   d="M58.3,23.4c-0.4-1.1-1-1.5-2.1-1.5c-0.9,0-1.8,0.2-2.6,0.1c-2.8-0.2-5.2-2.3-6-4.9c-0.3-1.1-0.5-2.3-0.8-3.5    c-0.1,0-0.1-0.1-0.2-0.1c-0.3,0.9-0.7,1.7-0.9,2.6c-0.3,1.1-0.1,2.2,0.2,3.3c0.6,2.6,2.1,4.5,4.3,6c1.7,1.2,3.7,1.4,5.7,1.2    C58,26.4,58.9,25.2,58.3,23.4z"
   class="st1" />
		<path
   id="path16"
   d="M51.9,20.7c1.7,0.4,4-0.6,5-2.1c0.5-0.8,0.5-1.5,0.1-2.4c-0.3-0.7-0.8-0.8-1.5-0.4c-0.6,0.4-1.3,0.8-1.9,1.2    c-1.2,0.6-2.7,0.3-3.6-0.8c-0.8-0.9-1.2-2-1.4-3.2c-0.5,1.6-0.5,3.2,0.1,4.7C49.4,19.3,50.3,20.4,51.9,20.7z"
   class="st1" />
		<path
   id="path18"
   d="M38.6,27.2c0.2,0.2,0.5,0.6,0.5,0.9c0.2,1.1,0.3,2.1,0.4,3.2c0.2,1.9,1.1,2.8,3,2.8c0.2,0,0.4,0,0.6,0    c1.1,0,2.1,0.1,3,1.2c0-1.4-0.4-1.9-1.5-2.1c-0.6-0.1-1.2-0.1-1.8-0.1c-1.4-0.1-2-0.6-2.2-2c-0.1-0.7-0.1-1.5-0.3-2.2    c-0.1-0.6-0.2-1.2-0.5-1.6c-0.7-0.9-0.7-0.9-0.1-1.9c0.8-1.2,1.1-2.4,0.9-3.8c-0.1-0.7,0-1.4,0.1-2c0.1-0.8,0.2-1.5,0.4-2.3    c-0.9,0.9-1.4,2.3-1.4,3.5c0,1.1-0.1,2.2-0.3,3.2c-0.1,0.6-0.6,1.1-0.9,1.7C38,26.4,38.1,26.7,38.6,27.2z"
   class="st1" />
		<path
   id="path20"
   d="M42.3,36.5c0.6-0.1,1.2-0.2,1.8-0.3c0.1,0,0.2-0.3,0.3-0.4c-0.2,0-0.4-0.1-0.5-0.1c-1,0.4-1.7,0.3-2.3-0.6    c0,0-0.1-0.1-0.1-0.1c-1.3-0.9-2.6-1.8-3.9-2.6C37,32,36.4,31.6,36,31c-0.5-0.7-1.1-1.4-1.7-2.1c-1-1.4-2-2.8-3.1-4.2    c0,1.2,0.3,2.4,0.9,3.5c0.3,0.6,0.9,1,1.4,1.5c0,0.1,0,0.1,0,0.2c0.8,1,1.5,2,2.3,3c0.3,0.3,0.7,0.7,1.2,0.7    c1.5,0.2,2.7,1.1,3.7,2.1C41.2,36.2,41.6,36.6,42.3,36.5z"
   class="st1" />
	</g>
</g>
</svg>