<?xml version="1.0" encoding="UTF-8" standalone="no"?>
<svg
   xmlns:dc="http://purl.org/dc/elements/1.1/"
   xmlns:cc="http://creativecommons.org/ns#"
   xmlns:rdf="http://www.w3.org/1999/02/22-rdf-syntax-ns#"
   xmlns:svg="http://www.w3.org/2000/svg"
   xmlns="http://www.w3.org/2000/svg"
   xml:space="preserve"
   style="enable-background:new 0 0 82.2 82.2;"
   viewBox="0 0 82.2 82.2"
   y="0px"
   x="0px"
   id="Calque_1"
   version="1.1"><metadata
   id="metadata15"><rdf:RDF><cc:Work
       rdf:about=""><dc:format>image/svg+xml</dc:format><dc:type
         rdf:resource="http://purl.org/dc/dcmitype/StillImage" /></cc:Work></rdf:RDF></metadata><defs
   id="defs13" />
<style
   id="style2"
   type="text/css">
	.st0{fill:#009FE3;}
	.st1{fill:#FFFFFF;}
</style>
<g
   id="g8">
	<circle
   id="circle4"
   r="41.1"
   cy="40.3"
   cx="41.1"
   class="st0" />
	<path
   id="path6"
   d="M37.9,17.2h-0.5c-0.1,0-0.3,0.1-0.3,0.3v22.2h0.8v2.5h-3v0c-1.4,1.5-2.7,3.1-3.9,4.8c-1.6,2.4-3,5.3-3.2,8.2   c-0.2,3.8,1.6,6.8,4.3,9.2h5.7v1.5h-6.3c-10.7-9-2.8-19.5,3.3-25.8V16.8c0-1.1,0.9-2,2-2h1V17.2z M41.1,14.7v47.8l0,0   c-4.6,0-1.6-5.3-1.3-6.7V42.2h-1.8v-2.5h0.8V17.5c0-0.1-0.1-0.3-0.3-0.3h-0.5v-2.5H41.1L41.1,14.7z M37.9,64.5h3.2v1.5h-3.2V64.5z    M47.2,16.8v23.3c6.1,6.3,14,16.8,3.3,25.8h-9.4v-1.5H50c5.9-5.3,5.3-11.2,1.1-17.4c-1.1-1.7-2.5-3.3-3.9-4.8v0h-4.8v13.6   c0.3,1.3,3.3,6.7-1.3,6.7V14.7h4.1C46.3,14.7,47.2,15.7,47.2,16.8z"
   class="st1" />
</g>
</svg>