<?xml version="1.0" encoding="UTF-8" standalone="no"?>
<svg
   xmlns:dc="http://purl.org/dc/elements/1.1/"
   xmlns:cc="http://creativecommons.org/ns#"
   xmlns:rdf="http://www.w3.org/1999/02/22-rdf-syntax-ns#"
   xmlns:svg="http://www.w3.org/2000/svg"
   xmlns="http://www.w3.org/2000/svg"
   xml:space="preserve"
   style="enable-background:new 0 0 82.2 82.2;"
   viewBox="0 0 82.2 82.2"
   y="0px"
   x="0px"
   id="Calque_1"
   version="1.1"><metadata
   id="metadata27"><rdf:RDF><cc:Work
       rdf:about=""><dc:format>image/svg+xml</dc:format><dc:type
         rdf:resource="http://purl.org/dc/dcmitype/StillImage" /></cc:Work></rdf:RDF></metadata><defs
   id="defs25" />
<style
   id="style2"
   type="text/css">
	.st0{fill:#FCEA10;}
	.st1{fill:#FFFFFF;}
</style>
<g
   id="g20">
	<ellipse
   id="ellipse4"
   ry="41.1"
   rx="41.1"
   cy="41.1"
   cx="41.1"
   class="st0"
   transform="matrix(0.9715 -0.2369 0.2369 0.9715 -8.5656 10.9047)" />
	<path
   id="path6"
   d="M22.1,40.7c0.5-0.8,1.1-1.5,1.6-2.3c0.1-0.2,0.2-0.4,0.3-0.6c0.4,0.1,0.3-0.2,0.2-0.4c0.1,0,0.2,0,0.3,0.1   c0-0.2,0.1-0.4,0.1-0.6c0,0,0.1,0.1,0.2,0.2c0.3-0.3,0.8-0.5,0.9-0.9c0.2-0.4,1-0.4,0.7-1.1c0.1,0.1,0.3,0.2,0.3,0.2   c0.3-0.3,0.6-0.6,0.8-1c0.1,0,0.3,0.1,0.3,0c0.1-0.2,0.1-0.4,0.2-0.6c0,0,0.1,0.2,0.2,0.3c0.9-0.7,0.2-1.6,0.4-2.3   c0.1,0.6,0.3,1.1,0.4,1.7c1-0.5,0.3-1.3,0.4-2c0.2,0.5,0.3,1,0.5,1.4c0.8-0.3,0.8-0.3,0.7-1.1c-0.1-0.4-0.1-0.8-0.1-1.3   c0.2,0.6,0.3,1.2,0.5,2c0.3-0.5,0.1-1,0.1-1.4c0.1,0.3,0.2,0.7,0.3,1c0.9-0.2,1-0.3,1.1-1.4c0.1,0.4,0.1,0.6,0.2,0.8   c1-0.3,1-0.3,1.1-1.3c0-0.4,0-0.8,0-1.3c0,0,0.1,0,0.1,0c0.1,0.7,0.1,1.3,0.2,2c0.9-0.2,0.3-1,0.6-1.6c0,0.4,0.1,0.8,0.1,1.2   c0.7,0,0.7,0,0.8-1.1c0.1,0.3,0.1,0.6,0.2,0.9c0.9-0.1,0.9-0.1,0.9-0.9c0-0.6-0.1-1.3,0-1.9c0.1,0.4,0.2,0.8,0.3,1.2   c0.1,0.4,0.1,0.9,0.1,1.3c0.7,0.1,0.7,0.1,0.9-1.2c0,0.3,0,0.7,0.1,1.1c0.2,0,0.5,0,0.7-0.1c0-0.3,0-0.6,0.1-0.9c0,0,0.1,0,0.1,0   c0.1,0.3,0.1,0.6,0.2,0.9c0.9,0.1,0.9,0.1,1-0.8c0-0.7,0-1.3,0-2c0.1,0,0.1,0,0.2,0c0.1,0.9,0.1,1.8,0.2,2.8c0.2,0,0.5,0,0.8,0.1   c0.1-0.6,0.1-1.2,0.1-1.7c0,0,0,0,0.1,0c0,0.5,0,1.1,0,1.7c0.3,0,0.6,0,0.9,0.1c0.1-0.4,0.1-0.9,0.2-1.3c0,0,0.1,0,0.1,0   c0,0.4,0.1,0.9,0.1,1.3c0.3,0,0.7,0.1,1.1,0.2c0.1-1.3,0.2-2.5,0.4-3.8c0.4,1.1,0.3,2.2,0.1,3.3c0,0.1-0.1,0.2-0.1,0.3   c0,0.1,0.1,0.2,0.1,0.3c0.1-0.1,0.2-0.1,0.2-0.2c0.2-0.5,0.3-1.1,0.4-1.6c0-0.1,0.1-0.2,0.2-0.3c-0.1,0.6-0.2,1.3-0.3,1.9   c-0.1,0.3,0,0.5,0.4,0.4c0.1-0.3,0.1-0.7,0.2-1.2c0,0.5,0,0.9,0,1.3c0.2,0,0.4,0.1,0.6,0.2c0.1-0.3,0.2-0.6,0.2-0.9c0,0,0,0,0.1,0   c0,0.3,0,0.7,0,1c0.3,0.1,0.5,0.2,0.9,0.3c0.2-1.1,0.4-2.1,0.6-3.2c0.2,1.2,0,2.3-0.3,3.3c0.2,0.1,0.3,0.1,0.5,0.3   c0.1-0.5,0.2-0.9,0.4-1.3c0,0,0,0,0.1,0c-0.1,0.4-0.1,0.9-0.2,1.4c0.1,0.1,0.3,0.2,0.6,0.3c0.2-0.4,0.3-0.8,0.4-1.2   c0,0,0.1,0,0.1,0c0,0.4-0.1,0.8-0.1,1.2c0,0,0,0,0.1,0c0.3-0.7,0.6-1.4,1-2.1c0,0,0.1,0,0.1,0c-0.3,0.8-0.5,1.6-0.8,2.5   c0.9-0.9,1-2.1,1.3-3.3c0.1,1.3-0.2,2.5-0.7,3.6c0.2,0.1,0.3,0.3,0.6,0.4c0.7-1,1.1-2,1.4-3.1c0,1.1-0.2,2.2-0.7,3.2   c-0.1,0.1-0.1,0.3,0,0.5c1-1.1,1.4-2.5,1.9-3.9c-0.1,1.4-0.6,2.7-1.3,4c0.9-0.7,1.4-1.9,2.5-5.9c0,0.4,0,0.9,0,1.3   c-0.1,1.8-0.9,3.5-1.8,5c-0.1,0.2-0.4,0.4,0.2,0.7c0.6-1.1,1.2-2.3,1.9-3.6c-0.3,1.4-0.9,2.4-1.6,3.5c-0.2,0.2-0.3,0.4,0.2,0.7   c0.6-0.9,1.2-1.8,1.9-2.8c-0.3,0.8-0.5,1.6-0.8,2.3c0,0,0.1,0,0.1,0.1c0.6-1.1,1.3-2.2,1.9-3.4c-0.3,1.5-1.1,2.8-1.9,4   c0.9-0.6,1.5-1.5,2-2.3c0.5-0.9,1-1.8,1.5-2.7c0,1.5-1,3.2-3.2,6c0.4-0.3,0.9-0.7,1.3-1.1c0.4-0.4,0.7-0.8,1.1-1.3   c0,0,0.1,0.1,0.1,0.1c-0.5,0.7-1,1.4-1.6,2.1c0,0,0.1,0.1,0.1,0.1c0.8-0.9,1.7-1.8,2.6-2.8c-0.7,1.6-1.8,2.6-3,3.7   c0.6-0.1,1.5-0.9,2.7-2.2c-0.1,0.8-1.1,2-2.5,2.9c0,0,0.1,0.1,0.1,0.1c0.7-0.5,1.4-0.9,2-1.4c0.7-0.5,1.2-1.2,1.9-1.7   c-0.3,0.4-0.6,0.8-1,1.2c-0.4,0.4-0.8,0.8-1.2,1.1c-0.4,0.3-0.8,0.7-1.2,1c2.2-0.8,3.4-2.6,4.7-4.4c-0.7,2.4-2.5,3.9-4.4,5.3   c1.8-0.5,3.1-1.7,4.5-2.9c-0.1,0.2-0.3,0.4-0.4,0.6c-0.9,1.1-2.1,1.9-3.4,2.6c-0.5,0.3-0.9,0.6-1.3,0.9c-1,0.8-1.9,1.6-3,2.5   c1.2,0.8,2.4,1.7,3,3.1c-1-1.1-1.8-2.5-3.5-2.5c0.6,0.5,1.3,0.9,1.6,1.7c-0.8-0.6-1.5-1.3-2.6-1.4c0.7,0.6,1.4,1.2,2.1,1.8   c0,0-0.1,0.1-0.1,0.1c-0.5-0.4-1-0.8-1.5-1.2c0,0-0.1,0.1-0.1,0.1c0.8,0.8,1.7,1.5,2,2.7c-0.9-1.1-1.6-2.5-3.4-2.6   c0.6,0.5,1.3,1,1.6,1.8c-0.7-0.7-1.4-1.4-2.5-1.6c0.7,0.6,1.3,1.2,1.9,1.7c0,0-0.1,0.1-0.1,0.1c-0.2-0.2-0.5-0.4-0.8-0.7   c0.4,0.7,0.8,1.3,1.1,1.9c0,0-0.1,0.1-0.1,0.1c-0.7-1-1.3-2.3-2.8-2.5c0.5,0.6,1,1.2,1.5,1.7c0,0-0.1,0.1-0.1,0.1   c-0.6-0.7-1.1-1.4-2.1-1.6c0.4,0.5,0.9,0.9,1.3,1.4c0,0-0.1,0.1-0.1,0.1c-0.3-0.3-0.6-0.5-0.9-0.8c0.5,0.9,1,1.7,1.5,2.5   c-0.1,0-0.1,0.1-0.2,0.1c-0.7-1.1-1.2-2.4-2.7-2.8c0.5,0.6,0.9,1.2,1.3,1.7c0,0-0.1,0.1-0.1,0.1c-0.5-0.7-1.1-1.3-1.9-1.5   c0.4,0.5,0.9,1,1.3,1.4c0,0-0.1,0.1-0.1,0.1c-0.3-0.4-0.7-0.8-1-1.2c0,0-0.1,0.1-0.1,0.1c0.3,0.7,0.6,1.5,0.9,2.2   c-0.1,0-0.1,0-0.2,0.1c-0.4-1-0.7-2.1-1.9-2.6c0.7,1,1.4,2.1,1.4,3.4c-0.5-1.1-0.7-2.4-2.1-3.1c0.4,0.7,1,1.2,0.7,2.1   c-0.4-0.8-0.8-1.6-1.7-2c0.7,0.9,1.2,1.9,1.3,3.1c-0.5-1.2-0.9-2.6-2.4-3.1c0.4,0.6,0.7,1.2,1.1,1.8c-0.1,0-0.1,0.1-0.2,0.1   c-0.5-0.7-0.9-1.5-1.8-1.8c1.1,1.2,1.5,2.6,1.7,4.2c-0.6-1.4-0.9-3.1-2.6-3.7c0.6,0.8,1.1,1.5,1.1,2.5c-0.5-1-1-1.9-2-2.4   c0.3,0.6,0.8,1.2,1,1.8c0.3,0.7,0.4,1.4,0.5,2.1c-0.6-1.5-0.9-3.3-2.8-3.9c0.6,0.8,1.1,1.6,1.2,2.7c-1.3-2.3-1.5-2.5-2.3-2.6   c0.8,0.9,1.4,1.8,1.6,3c-0.4-1-1-1.9-1.8-2.6c0.5,1.1,1,2.3,0.8,3.6c-0.3-1.3-0.4-2.7-1.5-3.6c-0.1-0.1-0.3-0.2-0.5-0.2   c0.4,0.8,0.8,1.5,0.8,2.5c-0.4-1.1-0.7-2.1-1.7-2.6c0.5,0.8,0.9,1.6,0.9,2.5c-0.4-0.8-0.8-1.6-1.3-2.4c-0.1,0-0.1,0-0.2,0.1   c0.4,0.9,0.7,1.8,0.6,2.9c-0.2-0.6-0.3-1.3-0.5-1.9c-0.2-0.6-0.5-1.2-1.2-1.5c0.3,0.7,0.5,1.4,0.7,2.1c-0.1,0-0.1,0-0.2,0.1   c-0.3-0.8-0.6-1.7-1.4-2.2c0.3,0.8,0.6,1.6,0.9,2.4c0,0-0.1,0-0.1,0.1c-0.2-0.4-0.3-0.9-0.5-1.3c-0.2-0.4-0.5-0.8-0.8-1.2   c0.3,1.1,0.7,2.2,0.3,3.6c-0.1-1.4,0-2.8-1.2-3.8c0.2,0.8,0.3,1.5,0.5,2.2c-0.1,0-0.1,0-0.2,0c-0.2-0.9-0.3-1.7-1.1-2.3   c0.2,0.8,0.4,1.6,0.6,2.4c0,0-0.1,0-0.1,0c-0.2-0.7-0.4-1.3-0.6-2c-0.1,0-0.1,0-0.2,0c0.1,0.6,0.1,1.1,0.2,1.7   c-0.3-0.7-0.3-1.6-1-2.3c0.1,0.7,0.3,1.2,0.4,1.8c0,0-0.1,0-0.1,0c-0.2-0.7-0.3-1.5-1-2.1c0.2,0.7,0.3,1.4,0.5,2c0,0-0.1,0-0.1,0   c-0.2-0.6-0.4-1.2-0.7-1.8c0,0-0.1,0-0.1,0c0.1,0.5,0.1,1,0.2,1.5c-0.3-0.6-0.3-1.4-0.9-1.9c0.1,0.5,0.2,1,0.3,1.5c0,0,0,0-0.1,0   c-0.2-0.5-0.5-1.1-0.7-1.6c-0.1,0-0.1,0-0.2,0.1c0.1,0.5,0.2,0.9,0.4,1.4c0,0-0.1,0-0.1,0c-0.1-0.4-0.3-0.7-0.4-1.1   c0,0-0.1,0-0.1,0c0,0.4,0,0.8,0,1.2c-0.2-0.6-0.3-1.2-0.5-1.8c0,0-0.1,0-0.1,0c0,0.4,0.1,0.9,0.1,1.3c0,0,0,0,0,0   c-0.2-0.5-0.3-1-0.5-1.6c0,0-0.1,0-0.1,0c0.1,0.5,0.2,0.9,0.2,1.4c0,0-0.1,0-0.1,0c-0.1-0.2-0.1-0.5-0.2-0.7   c-0.3-0.8-0.6-1.5-1.6-1.9c-0.9-0.4-1.6-1-2.4-1.5c-0.4-0.3-0.3-0.5-0.1-0.9c0.2-0.3,0.4-0.5,0.6-0.8c0.1-0.1,0.3-0.2,0.4-0.3   c0.5-0.5,1-1,1.5-1.4c0.4-0.3,0.4-0.6,0.3-1.2C23.4,39.3,22.7,40,22.1,40.7z M28.4,38.3c-0.2,0.1-0.5,0.1-0.6,0.2   c-1.8,1.1-3.6,2.1-5.4,3.3c-1.2,0.8-1.2,1.2,0.2,1.8c1.3,0.5,2.7,1,4.1,1.4c1.8,0.5,3.6,0.9,5.5,1.4C29.9,44,28.4,41.5,28.4,38.3z    M49.9,42.5c-0.9-1.3-2.1-2.2-3.5-2.7c-0.6-0.2-0.9-0.1-1.2,0.5c-0.2,0.4-0.3,0.9-0.5,1.3c-0.8,2-2.2,3.5-4.1,4.4   c-0.3,0.1-0.5,0.2-0.8,0.3C43.5,46,46.8,44.6,49.9,42.5z M34,37.3c-0.6,0.1-1,0.1-1.4,0.2c-0.2,0-0.4,0.3-0.4,0.5   c0,0.5,0.7,1.2,1.2,1.2c0.9,0,1.8-0.2,2.5-0.7c0.5-0.3,0.4-0.7-0.1-0.8C35.2,37.5,34.5,37.4,34,37.3z M41.4,30.2   c0,0-0.1-0.1-0.1-0.1c-0.3,0.1-0.7-0.4-0.9,0.2c-0.2,0.8-0.5,1.6-0.7,2.6c0.2-0.1,0.5-0.2,0.6-0.4C40.6,31.8,41,31,41.4,30.2z    M40.8,32.7c0.6,0,1.3-1,1.6-2.5c-0.2,0-0.5-0.1-0.7-0.1C41.4,31,41.1,31.9,40.8,32.7z M33.7,31.3c-0.3,0.2-0.7,0.3-0.8,0.5   c-0.3,0.7-0.4,1.4-0.6,2.1C33,33.7,33.7,32.5,33.7,31.3z M42.9,30.3c-0.3,0.8-0.6,1.5-0.8,2.2c0.8-0.1,1.5-1.1,1.6-2.1   C43.4,30.4,43.2,30.3,42.9,30.3z M35.6,32.7c0.7-0.4,1.3-1.4,1.1-2.3c-0.3,0.1-0.6,0.2-0.7,0.4C35.8,31.4,35.7,32,35.6,32.7z    M38.1,30.3c-0.1-0.1-0.1-0.1-0.2-0.2c-0.2,0.1-0.6,0.2-0.6,0.3c-0.2,0.8-0.4,1.6-0.6,2.5c0,0,0.1,0,0.1,0.1   C37.2,32.1,37.6,31.2,38.1,30.3z M38.7,32.1c0.7-0.2,1.3-1.2,1.2-2c-0.2,0-0.5,0-0.7,0C39.1,30.8,38.9,31.4,38.7,32.1z M38.9,30   c-0.3,0.1-0.7,0.2-0.7,0.3c-0.2,0.7-0.4,1.4-0.6,2.2C38.5,31.9,38.7,31,38.9,30z M35.5,30.7c-0.2,0.1-0.5,0.2-0.6,0.4   c-0.2,0.6-0.3,1.3-0.5,2C35.3,32.5,35.4,31.6,35.5,30.7z M45.6,30.9c-0.3,0.7-0.6,1.3-1,2.1c0.9-0.4,1.2-1.1,1.5-1.9   C45.9,31,45.7,31,45.6,30.9z M29.9,34.8c0.7-0.3,1-1.1,0.8-1.9C29.6,33.2,30.2,34.1,29.9,34.8z M34.7,31.1c-0.1,0-0.1-0.1-0.2-0.1   c-0.1,0.1-0.4,0.1-0.4,0.2c-0.2,0.8-0.4,1.6-0.6,2.4c0,0,0.1,0,0.1,0.1C34,32.8,34.4,32,34.7,31.1z M45.7,32.8   c0.8-0.3,1.2-0.7,1.4-1.4c-0.2-0.1-0.4-0.2-0.6-0.2C46.3,31.7,46,32.2,45.7,32.8z M46.5,33.7c0.4-0.1,1.6-1.5,1.5-1.8   c-0.1,0-0.3-0.1-0.4-0.1C47.2,32.4,46.9,33,46.5,33.7z M32.5,32.1c-0.1-0.1-0.2-0.1-0.2-0.2c-0.2,0.2-0.6,0.4-0.7,0.7   c-0.1,0.4,0,0.8,0,1.2c0,0,0.1,0,0.1,0C31.9,33.3,32.2,32.7,32.5,32.1z M48.3,32c-0.3,0.6-0.6,1.1-1,1.7c0.8-0.3,1.1-0.9,1.5-1.4   C48.6,32.2,48.5,32.1,48.3,32z M44,32.9c0,0,0.1,0,0.1,0.1c0.4-0.7,0.9-1.4,1.3-2.1c-0.1-0.1-0.1-0.1-0.2-0.2   c-0.1,0.1-0.3,0.1-0.4,0.2C44.5,31.6,44.2,32.3,44,32.9z M29,35.3c0.6-0.4,0.6-1.1,0.6-1.7C28.8,34,29.2,34.7,29,35.3z M49.4,34.5   c0.5-0.4,0.8-0.7,1.3-1.1c-0.3-0.2-0.4-0.3-0.6-0.4c-0.3,0.4-0.5,0.8-0.8,1.2C49.3,34.3,49.4,34.3,49.4,34.5z M43.6,32.4   c0,0,0.1,0,0.1,0.1c0.3-0.6,0.5-1.2,0.8-1.8c-0.1,0-0.2-0.1-0.2-0.1C44.1,31.2,43.8,31.8,43.6,32.4z M27.7,35   c-0.6,0.5-0.1,0.9-0.2,1.4c0.1,0,0.1,0,0.2,0C27.7,35.9,27.7,35.5,27.7,35z M26.9,36.8c0.1,0,0.2,0,0.2,0c0-0.4,0.1-0.8,0.1-1.3   C26.6,35.9,27,36.4,26.9,36.8z M26,37.5c0,0,0.1,0,0.1,0c0-0.4,0.1-0.8,0.1-1.1c-0.1,0-0.2,0-0.2,0C26,36.8,26,37.2,26,37.5z    M28.2,35.7c0-0.4,0-0.7,0-1.1C27.7,35,28.1,35.4,28.2,35.7z"
   class="st1" />
	<path
   id="path8"
   d="M60.8,21.8c-1.1-0.3-2.1-0.7-3.1-1c-4.5-1.2-9-1-13.5-0.1c-5.8,1.2-11.1,3.5-16.3,6.3c-1.9,1-3.7,2-5.5,3.1   c-0.6,0.4-1,0.3-1.4-0.3C20,28,19.6,26.1,19.8,24c0.1-0.5,0.3-0.9,0.8-1.1c5.6-2.7,11.3-4.9,17.4-6.1c4.9-0.9,9.8-1.2,14.6,0.2   c2.9,0.8,5.5,2.1,7.7,4.2c0.1,0.1,0.3,0.3,0.4,0.4C60.8,21.7,60.8,21.8,60.8,21.8z"
   class="st1" />
	<g
   id="g18">
		<path
   id="path10"
   d="M64.5,69.3c-0.4,0.3-0.8,0.2-1.2,0c-3-1.5-5.9-3-8.9-4.5c-0.8-0.4-0.9-0.6-0.5-1.5c-0.8-0.4-1.6-0.9-2.4-1.3    c-3-1.6-6.1-3.2-9.1-4.9c-0.9-0.5-1.7-1.3-2.5-2c-0.6-0.5-0.7-0.5-1.2,0.2c-0.2,0.3-0.4,0.7-0.7,1c-0.1,0.1-0.3,0.2-0.4,0.3    c0,0-0.1,0-0.1-0.1c0-0.5,0.1-0.9,0.1-1.5c-0.3,0.2-0.5,0.4-0.7,0.5c-0.4,0.2-0.6,0.1-0.6-0.3c0-0.3,0.1-0.6,0.2-0.9    c0-0.2,0.1-0.3,0-0.5c-0.4,0.5-0.8,1-1.3,1.5c-0.1,0-0.2-0.1-0.2-0.1c0-0.5,0.1-1,0.1-1.6c-0.3,0.3-0.5,0.7-0.8,0.8    c-0.3,0.1-0.6-0.2-1-0.4c-1.5,2.2-3.1,4.4-4.7,6.7c0,0-0.1,0-0.1,0c1-1.9,2.1-3.9,3.1-5.8c0,0-0.1-0.1-0.1-0.1    c-1.7,2-2.9,4.4-4.7,6.3c1.1-2.5,2.8-4.7,4-7.2c-2.3,2.8-4.3,5.9-6.6,8.7c1.9-3.4,4.3-6.6,6.4-9.9c0,0-0.1-0.1-0.1-0.1    c-0.3,0.2-0.6,0.4-0.8,0.6c-1.4,1.9-2.8,3.8-4.2,5.7c-0.3,0.4-0.7,0.9-1.1,1.3c0-0.2,0-0.4,0-0.5c1-1.6,2-3.2,3-4.8    c0.6-0.9,1.1-1.7,1.7-2.6c0.1-0.1,0.1-0.2,0.1-0.3c0,0-0.1-0.1-0.1-0.1c-0.6,0.7-1.2,1.3-1.7,2c-2.2,3.4-4.4,6.9-6.6,10.3    c-0.3,0.5-0.7,0.9-1.2,1.4c0.1-0.3,0.1-0.7,0.3-1c0.8-1.2,1.6-2.5,2.4-3.7c1.5-2.3,3-4.5,4.5-6.7c0.1-0.2,0.2-0.4,0.3-0.6    c-0.6,0.8-1.3,1.6-1.9,2.5c-1.7,2.5-3.4,4.9-5.1,7.4c-1.1,1.7-2.2,3.6-3.3,5.3c-0.2,0.4-0.5,0.6-0.8,1c-0.1-0.1-0.2-0.1-0.2-0.2    c0.2-0.5,0.3-0.9,0.5-1.4c1.2-2.2,2.4-4.4,3.7-6.5c1.6-2.7,3.4-5.3,5.1-8c0.6-0.9,1.3-1.8,2-2.8c0.1-0.2,0.3-0.5,0.2-0.6    C26.7,49.9,27,49.5,27,49c-0.3,0.1-0.5,0.3-0.8,0.4c-0.1,0-0.3,0.1-0.4,0c-0.1,0-0.1-0.2,0-0.3c0.1-0.3,0.1-0.5,0.2-0.7    c-0.3,0.1-0.6,0.1-0.8,0.1c-0.7,0-0.8-0.2-0.6-0.8c0.2-0.4,0-0.6-0.3-0.8c-0.4-0.3-0.5-0.6-0.3-1c0-0.1,0.1-0.1,0.1-0.2    c0.2,0.1,0.3,0.1,0.5,0.2c0.4,0.2,0.8,0.3,1.2-0.1c0.2-0.2,0.5-0.3,0.8-0.5c0.1,0.4,0.2,0.8,0.3,1.1c0.2-0.1,0.3-0.3,0.5-0.4    c0.2-0.1,0.4-0.2,0.6-0.3c0.1,0.2,0.2,0.4,0.3,0.7c0,0.1,0,0.2,0,0.4c0.2-0.2,0.4-0.5,0.6-0.6c0.1-0.1,0.4-0.1,0.5-0.1    c0.1,0,0.1,0.3,0.1,0.5c0,0.2-0.1,0.5-0.2,0.8c0.4-0.3,0.7-0.6,1.1-0.9c0.1,0.4,0.1,0.7,0.2,1.1c0.4-0.2,0.7-0.4,1.2-0.7    c-0.1,0.6-0.1,1.1-0.2,1.6c0.5-0.5,1-0.9,1.4-1.3c0.1,0,0.1,0.1,0.2,0.1c-0.1,0.5-0.2,1-0.3,1.5c0.4-0.3,0.7-0.6,1.1-0.9    c0.1-0.1,0.3-0.1,0.4-0.2c0,0.2,0.1,0.3,0.1,0.5c-0.1,0.3-0.2,0.6-0.3,0.9c0.5-0.2,0.9-0.4,1.3-0.6c0.1,0,0.3-0.1,0.4,0    c0.1,0.1,0.1,0.2,0,0.4c-0.1,0.2-0.1,0.5-0.2,0.8c0.3-0.2,0.5-0.4,0.8-0.5c0.2-0.1,0.5,0,0.6,0.1c0.1,0.1,0.1,0.4,0,0.5    c0,0.2-0.2,0.4-0.3,0.6c0.5-0.2,0.9-0.4,1.5-0.6c-0.1,0.5-0.2,0.8-0.3,1.2c0.4-0.3,0.8-0.5,1.1-0.8c0.1,0.3,0.1,0.4,0.2,0.7    c0.2-0.1,0.3-0.1,0.6-0.2c0.1,0.7,0.1,1.4,0.2,2c0.1,0.3,0.2,0.7,0.4,0.9c0.3,0.3,0.8,0.5,1.2,0.5c1.3,0.2,2.4,0.7,3.5,1.2    c3.3,1.5,6.5,2.9,9.8,4.4c0.1,0.1,0.4,0.1,0.5,0c0.4-0.4,0.7-0.3,1.1-0.1c2,1,4,2,6,3c1.1,0.5,2.1,1,3.2,1.6    c0.2,0.1,0.3,0.3,0.5,0.4c0.2,0.5,0,0.9-0.3,1.3c-0.5,1.1-1.1,2.2-1.6,3.2C64.5,69.2,64.5,69.2,64.5,69.3z"
   class="st1" />
		<path
   id="path12"
   d="M27.7,61.9c-0.5,1.6-1.5,2.9-2.7,4.1C25.7,64.6,26.5,63.2,27.7,61.9z"
   class="st1" />
		<path
   id="path14"
   d="M19.1,59.8c1.5-2.9,3.3-5.5,5.3-8.1c-0.2,0.6-0.4,1.1-0.6,1.7c0.1,0,0.1,0.1,0.2,0.1c0.6-0.8,1.3-1.6,1.9-2.4    c0.1,0,0.1,0.1,0.2,0.1c-1.5,2.3-2.9,4.5-4.4,6.8c0,0-0.1,0-0.1-0.1c0.2-0.4,0.4-0.9,0.6-1.3c0,0-0.1-0.1-0.1-0.1    C20.8,57.5,20.3,58.9,19.1,59.8z"
   class="st1" />
		<path
   id="path16"
   d="M21.2,58.5c-0.6,0.8-1.1,1.7-1.7,2.5c0.2-1,0.8-1.9,1.5-2.6C21.1,58.4,21.1,58.5,21.2,58.5z"
   class="st1" />
	</g>
</g>
</svg>