<?xml version="1.0" encoding="UTF-8" standalone="no"?>
<svg
   xmlns:dc="http://purl.org/dc/elements/1.1/"
   xmlns:cc="http://creativecommons.org/ns#"
   xmlns:rdf="http://www.w3.org/1999/02/22-rdf-syntax-ns#"
   xmlns:svg="http://www.w3.org/2000/svg"
   xmlns="http://www.w3.org/2000/svg"
   xml:space="preserve"
   style="enable-background:new 0 0 82.2 82.2;"
   viewBox="0 0 82.2 82.2"
   y="0px"
   x="0px"
   id="Calque_1"
   version="1.1"><metadata
   id="metadata21"><rdf:RDF><cc:Work
       rdf:about=""><dc:format>image/svg+xml</dc:format><dc:type
         rdf:resource="http://purl.org/dc/dcmitype/StillImage" /></cc:Work></rdf:RDF></metadata><defs
   id="defs19" />
<style
   id="style2"
   type="text/css">
	.st0{fill:#009FE3;}
	.st1{fill:#FFFFFF;}
</style>
<g
   id="g14">
	<circle
   id="circle4"
   r="41"
   cy="41"
   cx="40.8"
   class="st0" />
	<path
   id="path6"
   d="M51.4,35.2v1.2H37.5v16.7c0,1.3,0.8,2.7,2.1,2.9l11.7,0v1.3H39.6c-1.9,0-3.5-1.2-3.5-4V35.2H51.4z M51.4,56   l11.8,0c1.4,0,2.1-1.4,2.1-2.9V36.4H51.4v-1.2h15.3v18.1c0,2.7-1.6,4-3.5,4H51.4V56z"
   class="st1" />
	<path
   id="path8"
   d="M54.5,34.2c-2.8-7.6-10.7-1.7-12.2-9.4c-2.9,2-4,5.2-3.8,9.4H54.5z"
   class="st1" />
	<path
   id="path10"
   d="M38.4,37.3v15.8c0,1.1,0.9,1.9,2,1.9h22.4c1.1,0,1.5-0.8,1.5-1.9v-9.6c-2.7-5-6.4-2.9-8.6-6.2H38.4z"
   class="st1" />
	<path
   id="path12"
   d="M24,56.4l4.6-11.5v6.5l-2.4,5.9L24,56.4L24,56.4z M28.6,26.3c-12.8,0.5-20,23.5-6.8,29.2l6.8-17V26.3z    M28.6,51.4v-6.5l6.8-17l2.2,0.9L28.6,51.4L28.6,51.4z M28.6,38.5L33.2,27c-1.6-0.6-3.1-0.8-4.6-0.8V38.5z"
   class="st1" />
</g>
</svg>