<?xml version="1.0" encoding="UTF-8" standalone="no"?>
<svg
   xmlns:dc="http://purl.org/dc/elements/1.1/"
   xmlns:cc="http://creativecommons.org/ns#"
   xmlns:rdf="http://www.w3.org/1999/02/22-rdf-syntax-ns#"
   xmlns:svg="http://www.w3.org/2000/svg"
   xmlns="http://www.w3.org/2000/svg"
   xml:space="preserve"
   style="enable-background:new 0 0 82.2 82.2;"
   viewBox="0 0 82.2 82.2"
   y="0px"
   x="0px"
   id="Calque_1"
   version="1.1"><metadata
   id="metadata17"><rdf:RDF><cc:Work
       rdf:about=""><dc:format>image/svg+xml</dc:format><dc:type
         rdf:resource="http://purl.org/dc/dcmitype/StillImage" /></cc:Work></rdf:RDF></metadata><defs
   id="defs15" />
<style
   id="style2"
   type="text/css">
	.st0{fill:#FCEA10;}
	.st1{fill:#FFFFFF;}
</style>
<g
   id="g10">
	<g
   id="g6">
		<ellipse
   id="ellipse4"
   ry="41.1"
   rx="41.1"
   cy="40.3"
   cx="41.1"
   class="st0"
   transform="matrix(0.9843 -0.1765 0.1765 0.9843 -6.471 7.8895)" />
	</g>
	<path
   id="path8"
   d="M60.9,20.8c0,0,0.1-0.1,0.2-0.1c0.8-0.8,1.5-1.6,2.3-2.3c-2.4-0.1-4.4,0.6-6.1,2.2c-1.7,1.6-3.3,3.3-4.9,5   c-0.2,0.2-0.3,0.7-0.2,1.1c0.3,1.1,0.7,2.2,1,3.3c0.1,0.4,0,1-0.2,1.4c-1.5,2.5-3.2,4.9-4.7,7.4c-0.5,0.8-1.1,1.3-1.9,1.5   c-0.8,0.1-1.6,0.2-2.4,0.2c-3.9-0.1-7.9-0.2-11.8-0.3c-1.8,0-3.6,0-5.4,0c0.1-0.4,0.3-0.5,0.4-0.6c0.2-0.1,0.4-0.2,0.6-0.4   c2.7-1.6,5.7-2.3,8.8-2.9c2.1-0.4,4.3-0.6,6.1-1.5c3.1-1.6,6-3.6,8.9-5.5c0.2-0.1,0.3-0.5,0.3-0.7c-0.1-0.6-0.3-1.1-0.6-1.8   c-1.2,1-2.3,1.9-3.4,2.8c-3.2,2.5-6.6,4.5-10.8,5.1c-2.4,0.3-4.8,1-7.2,1.7c-2.3,0.7-4.5,1.7-6.2,3.5c-3.2,3.4-5.3,7.4-7.2,11.6   c-0.1,0.2,0.1,0.6,0.1,1c0.1,0,0.2,0,0.3,0c0.1-0.1,0.1-0.2,0.2-0.3c2-2.9,4.1-5.8,6.1-8.7c1.2-1.6,2.8-2.4,4.9-2.3   c6.3,0.1,12.6,0.6,19,0.3c-0.7,3.1-1.3,6.3-2.2,9.4c-0.7,2.5-1.9,4.8-3.9,6.6c-2.1,1.8-4.2,3.5-6.4,5.1c-1.4,1.1-3,2-4.5,3   c0.2,0.7,0.7,0.7,1.2,0.4c2.9-1.6,5.8-3.2,8.5-4.9c2.7-1.7,4.8-4,5.8-7.1c0.7-2.3,1.4-4.7,1.9-7c0.6-2.5,0.8-5.1,2.1-7.4   c2.5-4.3,5.7-8.2,9.4-11.6c0.6-0.6,0.7-1,0.4-1.7C58.4,22.9,58.4,22.9,60.9,20.8z M56.1,28c-1,0-1.9-0.8-1.9-1.8   c0-1,0.8-1.9,1.8-1.9c1.1,0,1.9,0.8,1.9,2C57.9,27.2,57.1,28,56.1,28z"
   class="st1" />
</g>
</svg>