<?xml version="1.0" encoding="UTF-8" standalone="no"?>
<svg
   xmlns:dc="http://purl.org/dc/elements/1.1/"
   xmlns:cc="http://creativecommons.org/ns#"
   xmlns:rdf="http://www.w3.org/1999/02/22-rdf-syntax-ns#"
   xmlns:svg="http://www.w3.org/2000/svg"
   xmlns="http://www.w3.org/2000/svg"
   xml:space="preserve"
   style="enable-background:new 0 0 82.2 82.2;"
   viewBox="0 0 82.2 82.2"
   y="0px"
   x="0px"
   id="Calque_1"
   version="1.1"><metadata
   id="metadata17"><rdf:RDF><cc:Work
       rdf:about=""><dc:format>image/svg+xml</dc:format><dc:type
         rdf:resource="http://purl.org/dc/dcmitype/StillImage" /></cc:Work></rdf:RDF></metadata><defs
   id="defs15" />
<style
   id="style2"
   type="text/css">
	.st0{fill:#E6007E;}
	.st1{fill:#FFFFFF;}
</style>
<g
   id="g10">
	<circle
   id="circle4"
   r="41.2"
   cy="40.1"
   cx="41"
   class="st0" />
	<g
   id="g8">
		<path
   id="path6"
   d="M58.7,68.3c0-0.9,0-1.7,0-2.4c0.1-6.7,0.2-13.4,0.3-20.1c0-0.6,0.1-1.1,0-1.7c-0.1-0.8-0.2-1.5-0.3-2.3    c0-0.1-0.4-0.2-0.7-0.4c0-3.6,0-7.4,0-11.2c-1.1,0.1-2.1,0.2-3.3,0.2c0,3.8,0,7.6,0,11.4c-0.1,0-0.2,0-0.3,0c0-3.8,0-7.5,0-11.4    c-0.5,0-0.8,0-1.3,0c0,4.9,0,9.8,0,14.7c0.4,0,0.7,0,1.1,0c-0.1-1.1-0.2-2.2-0.2-3.3c0.1,0,0.2,0,0.3,0c0.1,1.1,0.2,2.2,0.3,3.3    c0.3,0,0.6,0,1,0c-0.2,7.9-0.4,15.8-0.7,23.8c-2.3,0-4.4,0.1-6.6-0.6c-0.4-0.1-0.7-0.4-0.7-0.9c-0.1-2.1-0.1-4.3-0.2-6.4    c-0.1-2.7-0.2-5.4-0.3-8c-1,0.1-1.9,0.3-2.9,0.3c-1,0.1-1.9,0-2.9,0c-0.9,0-1.8,0-2.7,0.1c-4.4,0.3-8.3-0.7-11.6-3.8    c-2.8-2.7-5.3-5.6-7.4-8.9c-0.7-1.1-1.4-1.3-3-1c-0.3-0.6-0.2-1.1,0.4-1.3c0.9-0.3,1.4-1,1.7-1.9c0.6-2.3,1.6-4.5,2.9-6.5    c1.7-2.6,3.5-5,6.3-6.5c3-1.7,6.2-1.7,9.2,0.1c1,0.6,1.8,0.6,2.8,0c2.9-1.7,6-1.9,9-0.2c0.1,0,0.1,0,0.3,0.1c0-0.6,0-1.3,0-1.9    c0.1-1.7,0.2-3.4,0.3-5.1c0-0.2,0.1-0.6,0.3-0.7c1.6-1.4,3.1-2.8,4.7-4.2c0.1-0.1,0.2-0.1,0.3-0.2c1.2,1.3,1.9,2.8,2,4.4    c0.2,3.7,0.3,7.5,0.5,11.2c0,0.6,0,1.3,0,1.9c0,0.5,0.1,0.7,0.6,0.7c0.5,0,0.7,0.3,0.7,0.8c0,1.2,0,2.4,0,3.6    c0,0.9,0.3,1.3,1.1,1.6c0.2,0.1,0.4,0.1,0.5,0.2c0.2,0.1,0.5,0.3,0.5,0.5c0,0.2-0.2,0.5-0.4,0.6c-0.6,0.3-1,0.8-1.1,1.5    c-0.2,0.6-0.6,1.2-0.5,1.9c0,1,0.3,2,0.5,3c0.2,0.8,0.5,1.6,0.4,2.4c-0.1,6.9-0.3,13.8-0.5,20.7C59.1,67.2,59.3,67.8,58.7,68.3z     M48.7,30.3c0,3.8,0,7.6,0,11.4c-0.8-0.3-0.9,0.1-0.8,0.7c0,0.4,0,0.8-0.2,1.1c-0.4,0.8-0.3,1.2,0.4,1.5c0.1,4.6,0.2,9.2,0.3,13.8    c0.1,2.8,0.2,5.6,0.3,8.4c0,0.7,0.3,1,1,1c0.7,0,0.9-0.4,0.9-1c0-0.9,0.1-1.9,0.1-2.8c0.1-6.1,0.1-12.2,0.2-18.3    c0-0.3,0-0.6,0-0.9c0.5,0,0.9,0,1.4,0c0-0.4,0-0.8,0-1.2c-0.1-1.1-0.3-2.2-0.3-3.4c0-3.3,0-6.5,0-9.8c0-0.1,0-0.3,0-0.4    C51,30.5,49.9,30.4,48.7,30.3z M22.7,36.3c0,0.1-0.1,0.1-0.1,0.2c0.4,0.5,0.9,0.9,1.4,1.5c-0.6,0.1-1.2,0.3-1.7,0.1    c-0.5-0.1-0.9-0.6-1.5-1.1c0.4,0.6,0.7,0.9,1,1.4c-1.6,0.2-3.2,0.4-4.8,0.6c0,0.1,0,0.2,0,0.3c1.4-0.1,2.8-0.1,4.2-0.2    c-0.5,0.4-0.9,0.7-1.3,1.1c0.9-0.4,1.7-1.2,2.9-1.1c-0.3,0.4-0.6,0.8-0.9,1.2c0.9-0.8,1.7-1.6,3-1.4c-0.6,0.9-1.3,1.8-1.9,2.8    c0.1,0,0.1,0.1,0.2,0.1c1.2-1.5,2-3.6,4.5-3.4c-0.7,1.4-1.5,2.9-2.2,4.3c0.1,0,0.1,0.1,0.2,0.1c0.1-0.2,0.3-0.5,0.4-0.7    c0.7-1.2,1.4-2.4,2.1-3.5c0.4-0.6,1.9-0.8,2.5-0.3c-1.6,2-2.6,4.3-3.4,6.4c1.2-2,2.5-4.1,3.9-6.3c0.6,0.3,1,0.6,1.4,0.8    c-1.4,2.3-2.3,4.7-2.9,7.3c0.9-2.4,1.9-4.8,3.4-7c0.3,0.4,1.2,0.3,1,1.2c-0.3,1.8-0.7,3.6-1,5.4c-0.1,0.5-0.1,0.9-0.2,1.4    c0,0.5,0,0.9,0,1.4c0,0,0,0-0.1,0c0.5-2.8,1-5.6,1.5-8.3c1,0.1,1.7,0.2,2.5,0.2c0,2.7,0,5.4,0,8.1c0.1-0.4,0.1-0.8,0.1-1.2    c0.1-2.2,0.2-4.3,0.4-6.5c0-0.2,0.2-0.6,0.4-0.7c0.5-0.2,1-0.2,1.5-0.3c0.2,2.7,0.4,5.3,0.5,8c0,0,0.1,0,0.1,0    c-0.1-2.7-0.2-5.3-0.3-8.1c0.4,0,0.7,0.1,1,0.1c0.5,2.7,0.9,5.3,1.4,8c0,0,0.1,0,0.1,0c-0.4-2.6-0.7-5.2-1.1-7.9    c0.4,0.1,0.7,0.2,1,0.2c0.8-0.1,1,0.4,1.2,1.1c0.5,2.1,1.1,4.1,1.6,6.1c0.3,1,0.5,2,0.8,3.2c0.1-0.2,0.1-0.2,0.1-0.3    c-0.7-3-1.3-6.1-2.1-9.1c-0.3-1.1-0.3-1.1,1-1.6c0.9,1.6,1.7,3.3,2.6,4.9c-0.2-2-1.3-3.5-2.3-5.1c1.1-1.2,1.5-1.2,2.6-0.2    c0.1,0.1,0.2,0.3,0.3,0.5c0.4-0.9-0.5-1.1-0.6-1.6c0.3-0.4,0.7-0.7,0.8-1c0.1-0.7,0-1.3,0-1.9c-0.8-0.2-1.5-0.3-2.2-0.5    c0.6-1.6,1.2-3.2,1.9-4.8c0,0-0.1,0-0.1,0c-0.8,1.6-1.6,3.1-2.5,4.7c-0.3-0.1-0.4-0.1-0.5-0.2c-0.1,0-0.2-0.1-0.2-0.1    c0.3-2.1,0.6-4,0.9-6c0,0-0.1,0-0.1,0c-0.4,2-0.9,4-1.3,5.9c-0.7,0-1.3,0-1.8,0c0-2.2,0-4.3,0-6.4c-0.2,2-0.3,4-0.5,6    c0,0.2-0.2,0.6-0.4,0.7c-0.5,0.2-1.1,0.2-1.6,0.3c-0.1-1.1-0.3-2.1-0.4-3.2c0,0,0,0,0,0c0,1.1,0,2.1,0,3.2c-0.5,0-1.1,0-1.8,0    c0-0.9,0-1.8,0-2.7c0-0.9-0.1-1.7-0.1-2.6c-0.1,0-0.1,0-0.2,0c0,1.7,0,3.5,0,5.2c-0.3,0-0.6,0-0.9,0c-0.2-2.5-0.4-5-0.5-7.5    c0,0-0.1,0-0.1,0c0.1,2.5,0.2,4.9,0.2,7.3c-0.5,0.1-0.9,0.1-1.4,0.2c-0.3-2.1-0.5-4.2-0.8-6.3c0,0-0.1,0-0.1,0    c0.2,2.1,0.4,4.3,0.6,6.4c-0.4,0.1-0.7,0.2-1,0.3c-0.9-2.6-1.8-5.2-2.7-7.8c-0.1,0-0.1,0-0.2,0.1c0.8,2.6,1.6,5.2,2.4,7.9    c-1.3,0.6-1.4,0.6-2.5-0.5c-0.3-0.3-0.6-0.6-0.8-0.9c-0.7-0.9-1.5-1.8-2.2-2.7c-0.1,0-0.1,0.1-0.2,0.1c1.2,1.5,2.5,3.1,3.7,4.6    c-1,0.7-1.9,0.5-2.7-0.3c-0.8-0.8-1.6-1.5-2.4-2.2c0,0-0.1,0.1-0.1,0.1c1.1,1,2.2,2.1,3.3,3.1c-0.8,0.5-1.7,0.6-2.4-0.2    c-0.8-0.9-1.7-1.7-2.5-2.5c0,0-0.1,0.1-0.1,0.1c0.9,1.1,1.9,2.2,2.8,3.3C24.8,38.2,23.7,37.4,22.7,36.3z M52.8,15.4    c-0.7,0.3-1.6,0.7-2.4,1.2c-0.3,0.1-0.6,0.5-0.6,0.8c-0.1,4-0.1,8.1,0,12.1c0,0.2,0.3,0.5,0.4,0.6c0.6,0.1,1.3,0.1,2,0.2    c0-0.2,0.1-0.4,0.1-0.6c0.1-4.4,0.2-8.8,0.3-13.2C52.6,16.1,52.7,15.7,52.8,15.4z M47,51.2c-0.5,0-0.9,0.1-1.3,0.1    c-2.1-0.1-4.2-0.2-6.3-0.2c-1.6,0-3.2,0.2-4.8,0.5c-1.1,0.2-2,0.3-2.9-0.3c-0.3-0.1-0.6-0.2-0.9-0.3c-0.1,0.1-0.1,0.2-0.2,0.3    c0.3,0.3,0.6,0.6,1,0.8c2.1,0.9,4.2,1.3,6.5,1.1c1.2-0.1,2.3-0.1,3.5-0.1c1.8,0.1,3.6,0,5.3-0.5C47,52.1,47,51.7,47,51.2z     M56.1,16.2c-0.1,0-0.2,0-0.2,0c-0.4,1.1-0.7,2.2-1.1,3.2c-0.1,0.4-0.3,0.8-0.3,1.2c-0.1,2.9-0.1,5.8-0.1,8.7c0,0.3,0,0.5,0.1,0.9    c0.8-0.1,1.5-0.2,2-0.3c0-3.9,0-7.6,0-11.4C56.4,17.8,56.2,17,56.1,16.2z M20.2,33.4c0.1,0.1,0.1,0.1,0.2,0.2    c0.6-0.2,1-0.5,1.8-1.6c2.4-3.5,5.5-6,9.5-7.4c0.5-0.2,0.9-0.3,1.3-0.6c0.2-0.1,0.3-0.4,0.4-0.6c-0.2-0.1-0.4-0.2-0.6-0.3    c-1.7-0.2-3.3,0.3-4.8,1.2c-2,1.2-3.6,2.8-4.9,4.6C22.1,30.4,21.2,31.9,20.2,33.4z M58.6,36.3c0,0.4,0,0.6,0.1,0.9    c0.5-0.1,1-0.3,1.4-0.4c0-0.1,0-0.1,0-0.2C59.6,36.5,59.2,36.5,58.6,36.3z"
   class="st1" />
	</g>
</g>
</svg>