<?xml version="1.0" encoding="UTF-8" standalone="no"?>
<svg
   xmlns:dc="http://purl.org/dc/elements/1.1/"
   xmlns:cc="http://creativecommons.org/ns#"
   xmlns:rdf="http://www.w3.org/1999/02/22-rdf-syntax-ns#"
   xmlns:svg="http://www.w3.org/2000/svg"
   xmlns="http://www.w3.org/2000/svg"
   xml:space="preserve"
   style="enable-background:new 0 0 82.2 82.2;"
   viewBox="0 0 82.2 82.2"
   y="0px"
   x="0px"
   id="Calque_1"
   version="1.1"><metadata
   id="metadata21"><rdf:RDF><cc:Work
       rdf:about=""><dc:format>image/svg+xml</dc:format><dc:type
         rdf:resource="http://purl.org/dc/dcmitype/StillImage" /></cc:Work></rdf:RDF></metadata><defs
   id="defs19" />
<style
   id="style2"
   type="text/css">
	.st0{fill:#FCEA10;}
	.st1{fill:#FFFFFF;}
</style>
<g
   id="g14">
	
		<ellipse
   id="ellipse4"
   ry="41.1"
   rx="41.1"
   cy="41.1"
   cx="41.1"
   class="st0"
   transform="matrix(7.313513e-02 -0.9973 0.9973 7.313513e-02 -2.896 79.0886)" />
	<path
   id="path6"
   d="M41.6,64.7L41.6,64.7c-0.6,0-1.1-0.6-1-1.2l2.2-29.9c0-0.2,0.2-0.3,0.3-0.3l0.8,0.1l0.1-1.7l-0.6,0   c-0.9-0.1-1.7,0.6-1.7,1.5l-2.1,28.7c-0.1,1.8,0.6,3.5,1.9,4.6L41.6,64.7z M51.1,62.7l2.1-28.7c0.1-0.9-0.6-1.7-1.5-1.7L44,31.6   l-0.1,1.7l0.8,0.1c0.2,0,0.3,0.2,0.3,0.3l-2.2,29.9c0,0.6-0.6,1-1.2,1l0,0l-0.1,1.8c0.9,0.8,2,1.3,3.3,1.4l0.3,0   C48.2,68.1,50.9,65.7,51.1,62.7z"
   class="st1" />
	<path
   id="path8"
   d="M48.4,15.2c-1.2,0-2.3,0.1-3.4,0.4l0.9,8.3l-1.6-8.1c-1,0.3-1.9,0.8-2.8,1.3l2.4,7.6l-3.1-7.1   c-0.7,0.6-1.4,1.2-2,1.9l3.8,11l10.2,0.7l5.3-10.3c-0.5-0.8-1.1-1.6-1.8-2.3L52.1,25l3.5-6.9c-0.8-0.7-1.7-1.2-2.6-1.7l-2.9,7.9   l2.2-8.2c-1-0.4-2.1-0.7-3.2-0.8l-1,8.4L48.4,15.2z"
   class="st1" />
	<path
   id="path10"
   d="M27.6,64.8L27.6,64.8c-0.4,0-0.7-0.3-0.6-0.7l1.7-22.9c0-0.1,0.1-0.2,0.2-0.2l0.5,0l0.1-1l-0.4,0   c-0.5,0-1,0.4-1,0.9l-1.6,22.2c-0.1,1.1,0.4,2.1,1.2,2.8L27.6,64.8z M33.4,63.6L35,41.4c0-0.5-0.4-1-0.9-1L29.4,40l-0.1,1l0.5,0   c0.1,0,0.2,0.1,0.2,0.2l-1.7,22.9c0,0.4-0.3,0.6-0.7,0.6l0,0l-0.1,1.1c0.5,0.5,1.2,0.8,2,0.8l0.2,0C31.6,66.9,33.2,65.4,33.4,63.6z   "
   class="st1" />
	<path
   id="path12"
   d="M32.4,25.3c-0.7,0-1.4,0-2.1,0.2l0.5,5l-1-4.9c-0.6,0.2-1.2,0.5-1.7,0.8l1.5,4.6l-1.9-4.3   c-0.5,0.3-0.9,0.7-1.2,1.2l2,11l6.2,0.5l3.5-10.6c-0.3-0.5-0.7-1-1.1-1.4l-2.5,3.9l2.1-4.2c-0.5-0.4-1-0.8-1.6-1l-1.8,4.8l1.4-5   c-0.6-0.2-1.3-0.4-1.9-0.5l-0.6,5.1L32.4,25.3z"
   class="st1" />
</g>
</svg>